<svg width="24" height="24" viewBox="0 0 24 24" fill="none" xmlns="http://www.w3.org/2000/svg">
  <path d="M13.4848 7.37999L13.4648 2H10.46L10.4801 7.37999L11.9824 9.44004L13.4848 7.37999Z" fill="white" />
  <path d="M10.48 16.6V22H13.4848V16.6L11.9824 14.54L10.48 16.6Z" fill="white" />
  <path d="M13.4937 16.6217L16.6588 20.9887L19.0826 19.2259L15.9175 14.8589L13.4937 14.0776V16.6217Z" fill="#00F2E6" />
  <path d="M10.489 7.38696L7.30384 3.01998L4.87998 4.78281L8.04506 9.14979L10.489 9.93103V7.38696Z" fill="#00F2E6" />
  <path d="M8.04969 9.14266L2.92144 7.48L2 10.3245L7.12818 12.0072L9.55203 11.2059L8.04969 9.14266Z" fill="#00B9F1" />
  <path d="M14.4198 12.7885L15.9221 14.8518L21.0504 16.5144L21.9718 13.6699L16.8437 12.0072L14.4198 12.7885Z"
    fill="#00B9F1" />
  <path d="M16.8437 12.0072L21.9718 10.3245L21.0504 7.48L15.9221 9.14266L14.4198 11.2059L16.8437 12.0072Z"
    fill="#D63AFF" />
  <path d="M7.12818 12.0072L2 13.6699L2.92144 16.5144L8.04969 14.8518L9.55203 12.7885L7.12818 12.0072Z"
    fill="#D63AFF" />
  <path d="M8.04506 14.8589L4.87998 19.2259L7.30384 20.9887L10.489 16.6217V14.0776L8.04506 14.8589Z" fill="#FB015B" />
  <path d="M15.9175 9.14979L19.0826 4.78281L16.6588 3.01998L13.4937 7.38696V9.93103L15.9175 9.14979Z" fill="#FB015B" />
</svg>
