<svg width="24" height="25" viewBox="0 0 24 25" fill="none" xmlns="http://www.w3.org/2000/svg">
<path d="M2.89746 4.19042C8.4759 -2.30199 18.8193 -1.02042 22.6861 6.56337C19.9642 6.56436 15.7018 6.56255 13.3932 6.56337C11.7189 6.56395 10.6378 6.52589 9.46712 7.1422C8.09079 7.86668 7.05232 9.20962 6.68982 10.787L2.89746 4.19042Z" fill="#EA4335"/>
<path d="M8.00781 12.0093C8.00781 14.2096 9.79692 15.9997 11.9961 15.9997C14.1952 15.9997 15.9843 14.2096 15.9843 12.0093C15.9843 9.80896 14.1952 8.0188 11.9961 8.0188C9.79692 8.0188 8.00781 9.80896 8.00781 12.0093Z" fill="#4285F4"/>
<path d="M13.5438 17.2326C11.3053 17.8979 8.68567 17.1601 7.25074 14.6832C6.15542 12.7926 3.26143 7.75096 1.94603 5.4585C-2.66093 12.5195 1.30962 22.1419 9.67323 23.7843L13.5438 17.2326Z" fill="#34A853"/>
<path d="M15.7005 8.0188C17.5649 9.75289 17.9711 12.5608 16.7082 14.7381C15.7567 16.3784 12.7199 21.5039 11.248 23.9859C19.8652 24.5171 26.1469 16.0716 23.3095 8.0188H15.7005Z" fill="#FBBC05"/>
</svg>
