<svg width="24" height="24" viewBox="0 0 24 24" fill="none" xmlns="http://www.w3.org/2000/svg">
<path d="M2.625 20.25C2.32663 20.25 2.04048 20.3685 1.8295 20.5795C1.61853 20.7905 1.5 21.0766 1.5 21.375C1.5 21.6734 1.61853 21.9595 1.8295 22.1705C2.04048 22.3815 2.32663 22.5 2.625 22.5H21.375C21.6734 22.5 21.9595 22.3815 22.1705 22.1705C22.3815 21.9595 22.5 21.6734 22.5 21.375C22.5 21.0766 22.3815 20.7905 22.1705 20.5795C21.9595 20.3685 21.6734 20.25 21.375 20.25H2.625Z" fill="#1877F2"/>
<path opacity="0.32" d="M12.453 6.22499C12.5805 6.02999 12.726 5.82449 12.888 5.61299L12.912 5.57999C13.31 5.05215 13.7681 4.57242 14.277 4.15049C14.8665 3.67049 15.5805 3.25949 16.3995 3.08549C16.6725 3.02849 16.959 2.99849 17.2545 2.99999C19.281 3.01349 20.8125 4.39499 21.7515 5.55599C21.87 5.70149 21.9765 5.84249 22.0755 5.97749L22.1175 6.03599C22.218 6.17399 22.2975 6.31799 22.3575 6.46349L22.3695 6.49199C22.7655 7.49999 22.227 8.58899 21.3 9.04949C21.2283 9.08553 21.1547 9.11758 21.0795 9.14549L17.7315 10.3725L13.0725 17.0925C11.6655 19.122 8.4915 17.7345 9.027 15.3225L9.495 13.212L4.8375 14.5245C4.44734 14.6345 4.037 14.6527 3.63864 14.5776C3.24029 14.5025 2.86474 14.3361 2.54143 14.0916C2.21813 13.847 1.95585 13.5309 1.77517 13.168C1.59449 12.8052 1.5003 12.4054 1.5 12V7.73999C1.5 5.92499 3.957 5.35949 4.749 6.99449L5.6565 8.86799L10.8045 7.51199C11.4525 7.34249 12.0285 6.86999 12.4545 6.22499H12.453ZM6.516 6.85949L6.666 7.05149L10.4235 6.06149C10.6215 6.01049 10.92 5.82449 11.202 5.39849C11.3516 5.17038 11.5087 4.94726 11.673 4.72949L9.762 3.41999C9.36328 3.14641 8.89106 2.99998 8.4075 2.99999C6.42 2.99999 5.2965 5.28749 6.516 6.85949Z" fill="#1877F2"/>
</svg>
