<svg width="24" height="24" viewBox="0 0 24 24" fill="none" xmlns="http://www.w3.org/2000/svg">
<path opacity="0.32" d="M4.32992 6C3.84871 6 3.43524 6.34385 3.34854 6.8172C1.98294 14.2724 1.75 18 1.75 18H22.25C22.25 18 22.017 14.2724 20.6514 6.8172C20.5647 6.34385 20.1513 6 19.67 6H4.32992Z" fill="#1877F2"/>
<path fill-rule="evenodd" clip-rule="evenodd" d="M22.25 18H1.75C1.75 18 1.75 18.695 1.80122 19.6754C1.87282 21.0459 2.95622 22.0861 4.32766 22.138C5.855 22.1959 8.2782 22.25 12 22.25C15.7218 22.25 18.145 22.1959 19.6723 22.138C21.0438 22.0861 22.1272 21.0459 22.1988 19.6754C22.25 18.695 22.25 18 22.25 18Z" fill="#1877F2"/>
<path d="M12 1C9.2386 1 7 3.23857 7 6H9C9 4.34314 10.3432 3 12 3C13.6568 3 15 4.34314 15 6H17C17 3.23857 14.7614 1 12 1Z" fill="#1877F2"/>
</svg>
