<svg width="24" height="24" viewBox="0 0 24 24" fill="none" xmlns="http://www.w3.org/2000/svg">
<path opacity="0.32" d="M9.4295 3.52977C8.82565 2.82611 7.93185 2.4354 7.01215 2.50878C5.54285 2.626 4.50415 2.78455 3.79502 2.92833C2.94163 3.10136 2.36415 3.78264 2.27276 4.65587C2.14336 5.89235 2 8.11915 2 11.9167C2 15.7144 2.14336 17.9412 2.27276 19.1776C2.36415 20.0509 2.94075 20.7319 3.79413 20.905C5.13115 21.1762 7.6404 21.5 12 21.5C12.9291 21.5 13.7742 21.4853 14.5418 21.4595C14.5349 20.9401 14.5279 20.2894 14.5216 19.4853C14.2858 19.477 14.0907 19.4662 13.9366 19.4557C13.6861 19.4386 13.5 19.229 13.5 18.9779V18.5222C13.5 18.2711 13.6861 18.0616 13.9366 18.0444C14.0886 18.0341 14.2804 18.0234 14.5119 18.0152C14.5087 17.4045 14.5059 16.7294 14.5038 15.9846C14.276 15.9764 14.0869 15.9659 13.9366 15.9557C13.6861 15.9386 13.5 15.729 13.5 15.4779V15.0222C13.5 14.7711 13.6861 14.5616 13.9366 14.5444C14.0862 14.5342 14.2744 14.5238 14.5009 14.5156C14.5003 14.035 14.5 13.5302 14.5 13.0001L14.5001 12.4845C14.2739 12.4763 14.0861 12.4659 13.9366 12.4557C13.6861 12.4386 13.5 12.229 13.5 11.9779V11.5222C13.5 11.2711 13.6861 11.0616 13.9366 11.0444C14.0864 11.0342 14.2747 11.0238 14.5016 11.0156C14.5029 10.28 14.5049 9.60436 14.5073 8.98476C14.2779 8.97651 14.0876 8.96596 13.9366 8.95566C13.6861 8.93856 13.5 8.72896 13.5 8.47791V8.02216C13.5 7.77111 13.6861 7.56156 13.9366 7.54441C14.0892 7.53401 14.2819 7.52336 14.5146 7.51511C14.5197 6.66621 14.5258 5.95346 14.5321 5.35986H15.9679C15.9742 5.95151 15.9802 6.66146 15.9853 7.50661C16.2599 7.51341 16.4658 7.52461 16.6176 7.53641C16.8443 7.55406 17 7.74196 17 7.96931V8.53081C17 8.75816 16.8443 8.94606 16.6176 8.96366C16.4671 8.97536 16.2636 8.98651 15.9927 8.99331C15.9951 9.60816 15.9971 10.2781 15.9984 11.007C16.2664 11.0138 16.4682 11.0248 16.6176 11.0364C16.8443 11.0541 17 11.242 17 11.4693V12.0308C17 12.2582 16.8443 12.4461 16.6176 12.4637C16.4685 12.4753 16.2673 12.4863 15.9999 12.4931L16 13.0001C16 13.527 15.9997 14.029 15.9991 14.507C16.2668 14.5138 16.4683 14.5248 16.6176 14.5364C16.8443 14.5541 17 14.742 17 14.9693V15.5308C17 15.7582 16.8443 15.9461 16.6176 15.9637C16.4678 15.9753 16.2654 15.9864 15.9961 15.9932C15.9941 16.7311 15.9914 17.4006 15.9881 18.0067C16.2613 18.0135 16.4663 18.0247 16.6176 18.0364C16.8443 18.0541 17 18.242 17 18.4693V19.0308C17 19.2582 16.8443 19.4461 16.6176 19.4637C16.4645 19.4756 16.2565 19.4869 15.9784 19.4937C15.9724 20.2611 15.9657 20.8886 15.9591 21.3953C17.9869 21.2777 19.3414 21.0804 20.2059 20.905C21.0592 20.7319 21.6358 20.0509 21.7272 19.1776C21.8566 17.9412 22 15.7144 22 11.9167C22 10.429 21.978 9.1823 21.9435 8.14175C21.8912 6.5679 20.5912 5.35985 19.0301 5.35985H11.9139C11.3335 5.35985 10.7817 5.10545 10.4018 4.66279L9.4295 3.52977Z" fill="#1877F2"/>
<path d="M15.9591 21.3953C15.519 21.4209 15.0471 21.4426 14.5418 21.4596C14.5349 20.9402 14.5279 20.2894 14.5216 19.4853C14.2858 19.477 14.0907 19.4662 13.9366 19.4557C13.6861 19.4386 13.5 19.229 13.5 18.9779V18.5222C13.5 18.2711 13.6861 18.0616 13.9366 18.0444C14.0886 18.0341 14.2804 18.0234 14.5119 18.0152C14.5087 17.4045 14.5059 16.7294 14.5038 15.9846C14.276 15.9764 14.0869 15.9659 13.9366 15.9557C13.6861 15.9386 13.5 15.729 13.5 15.4779V15.0222C13.5 14.7711 13.6861 14.5616 13.9366 14.5444C14.0862 14.5342 14.2743 14.5238 14.5009 14.5156C14.5003 14.035 14.5 13.5302 14.5 13.0001L14.5001 12.4845C14.2739 12.4763 14.0861 12.4659 13.9366 12.4557C13.6861 12.4386 13.5 12.229 13.5 11.9779V11.5222C13.5 11.2711 13.6861 11.0616 13.9366 11.0444C14.0864 11.0342 14.2747 11.0238 14.5016 11.0156C14.5029 10.28 14.5049 9.60436 14.5073 8.98476C14.2779 8.97651 14.0876 8.96596 13.9366 8.95566C13.6861 8.93856 13.5 8.72896 13.5 8.47791V8.02216C13.5 7.77111 13.6861 7.56156 13.9366 7.54441C14.0892 7.53401 14.2819 7.52336 14.5146 7.51511C14.5197 6.66621 14.5258 5.95346 14.5321 5.35986H15.9679C15.9742 5.95151 15.9802 6.66146 15.9853 7.50661C16.2599 7.51341 16.4658 7.52461 16.6176 7.53641C16.8443 7.55406 17 7.74196 17 7.96931V8.53081C17 8.75816 16.8443 8.94606 16.6176 8.96366C16.4671 8.97536 16.2636 8.98651 15.9927 8.99331C15.9951 9.60816 15.9971 10.2781 15.9984 11.007C16.2665 11.0138 16.4682 11.0248 16.6176 11.0364C16.8443 11.0541 17 11.242 17 11.4693V12.0308C17 12.2582 16.8443 12.4461 16.6176 12.4637C16.4685 12.4753 16.2672 12.4863 15.9999 12.4931L16 13.0001C16 13.527 15.9997 14.029 15.9991 14.507C16.2668 14.5138 16.4683 14.5248 16.6176 14.5364C16.8443 14.5541 17 14.742 17 14.9693V15.5308C17 15.7582 16.8443 15.9461 16.6176 15.9637C16.4678 15.9753 16.2654 15.9864 15.9961 15.9932C15.9941 16.7311 15.9914 17.4006 15.9881 18.0067C16.2614 18.0135 16.4663 18.0247 16.6176 18.0364C16.8443 18.0541 17 18.242 17 18.4693V19.0308C17 19.2582 16.8443 19.4461 16.6176 19.4637C16.4645 19.4756 16.2565 19.4869 15.9784 19.4937C15.9724 20.2612 15.9657 20.8887 15.9591 21.3953Z" fill="#1877F2"/>
</svg>
