<svg width="24" height="24" viewBox="0 0 24 24" fill="none" xmlns="http://www.w3.org/2000/svg">
<path opacity="0.32" d="M10.286 3.91C10.286 3.342 10.824 2.75 11.66 2.75C12.496 2.75 13.034 3.342 13.034 3.91C13.034 4.221 12.922 4.491 12.74 4.69C12.6165 4.82138 12.4898 4.94975 12.36 5.075L12.28 5.155C12.0958 5.33334 11.9193 5.51951 11.751 5.713C11.486 6.025 11.198 6.436 11.093 6.943C10.4552 7.04826 9.84904 7.29496 9.319 7.665L2.224 12.657C1.297 13.309 1.058 14.359 1.396 15.239C1.728 16.105 2.59 16.75 3.702 16.75H6.01C6.026 16.113 6.071 15.63 6.194 15.25H3.704C3.201 15.25 2.903 14.977 2.797 14.702C2.697 14.441 2.743 14.126 3.087 13.883L10.183 8.893C10.6617 8.56204 11.2291 8.38325 11.811 8.38C12.3987 8.36959 12.9758 8.53765 13.466 8.862L20.899 13.872C21.255 14.113 21.305 14.432 21.207 14.695C21.104 14.973 20.807 15.25 20.298 15.25H17.808C17.931 15.63 17.976 16.113 17.992 16.75H20.298C21.423 16.75 22.288 16.093 22.614 15.216C22.944 14.326 22.687 13.269 21.737 12.629L14.304 7.619C13.8163 7.29185 13.2672 7.0673 12.69 6.959C12.74 6.878 12.808 6.787 12.895 6.685C13.021 6.536 13.169 6.387 13.335 6.221L13.41 6.149C13.55 6.009 13.705 5.857 13.845 5.704C14.288 5.224 14.535 4.589 14.535 3.909C14.535 2.367 13.171 1.25 11.661 1.25C10.151 1.25 8.786 2.367 8.786 3.91C8.786 4.10891 8.86502 4.29968 9.00567 4.44033C9.14632 4.58098 9.33709 4.66 9.536 4.66C9.73492 4.66 9.92568 4.58098 10.0663 4.44033C10.207 4.29968 10.286 4.10891 10.286 3.91Z" fill="#1877F2"/>
<path d="M6 18C6 16.114 6 15.172 6.586 14.586C7.172 14 8.114 14 10 14H14C15.886 14 16.828 14 17.414 14.586C18 15.172 18 16.114 18 18C18 19.886 18 20.828 17.414 21.414C16.828 22 15.886 22 14 22H10C8.114 22 7.172 22 6.586 21.414C6 20.828 6 19.886 6 18Z" fill="#1877F2"/>
</svg>
