<svg width="24" height="24" viewBox="0 0 24 24" fill="none" xmlns="http://www.w3.org/2000/svg">
<g opacity="0.32">
<path d="M12.5845 7.76958C12.8511 7.23366 13.001 6.62946 13.001 5.99023C13.001 5.35101 12.8511 4.74681 12.5845 4.21088C13.1308 3.47048 14.0093 2.99023 15.0001 2.99023C16.6569 2.99023 18.0001 4.33338 18.0001 5.99023C18.0001 7.64709 16.6569 8.99023 15.0001 8.99023C14.0093 8.99023 13.1308 8.50998 12.5845 7.76958Z" fill="#B5BAC1"/>
<path d="M14.0598 19.756C14.6564 19.9068 15.312 19.9902 16.0001 19.9902C18.7615 19.9902 21.0001 18.6471 21.0001 16.9902C21.0001 15.3334 18.7615 13.9902 16.0001 13.9902C15.3111 13.9902 14.6547 14.0738 14.0574 14.2251C15.2614 14.9435 16.001 15.918 16.001 16.9912C16.001 18.0638 15.2623 19.0377 14.0598 19.756Z" fill="#B5BAC1"/>
</g>
<path d="M9.00098 9.99023C11.2101 9.99023 13.001 8.19937 13.001 5.99023C13.001 3.7811 11.2101 1.99023 9.00098 1.99023C6.79184 1.99023 5.00098 3.7811 5.00098 5.99023C5.00098 8.19937 6.79184 9.99023 9.00098 9.99023Z" fill="#B5BAC1"/>
<path d="M9.00098 20.9912C12.867 20.9912 16.001 19.2004 16.001 16.9912C16.001 14.7821 12.867 12.9912 9.00098 12.9912C5.13498 12.9912 2.00098 14.7821 2.00098 16.9912C2.00098 19.2004 5.13498 20.9912 9.00098 20.9912Z" fill="#B5BAC1"/>
</svg>
