<svg width="23" height="22" viewBox="0 0 23 22" fill="none" xmlns="http://www.w3.org/2000/svg">
<path fill-rule="evenodd" clip-rule="evenodd" d="M3.75057 12.6104C5.80343 17.1654 7.92545 21.4568 10.3631 15.1616C10.6965 14.3524 10.9396 12.7796 11.4841 12.7796V12.7876C12.0286 12.7876 12.2715 14.3604 12.605 15.1696C15.0427 21.4648 17.1647 17.1733 19.2176 12.6184C19.3721 12.2749 19.5205 11.947 19.6475 11.6621C14.943 15.439 15.339 4.02885 11.4841 3.93818V3.93019C7.62903 4.02086 8.02518 15.431 3.32068 11.6542C3.4476 11.939 3.596 12.2669 3.75057 12.6104Z" fill="#F2F3F5"/>
<path d="M3.32068 11.6535C5.60537 13.4947 6.67997 11.7534 7.62642 9.47153C6.84322 7.66303 6.31495 6.53463 6.06182 6.13585C5.58449 5.38359 5.06378 4.81402 4.42336 4.48538C2.11674 3.11059 0.902708 6.36836 2.01986 8.81019L3.32068 11.6535Z" fill="#F2F3F5"/>
<ellipse cx="20.1411" cy="5.91458" rx="1.96927" ry="1.96927" fill="#F2F3F5"/>
</svg>
