<svg width="24" height="24" viewBox="0 0 24 24" fill="none" xmlns="http://www.w3.org/2000/svg">
<path d="M3.53588 2.0252C4.07763 2.0806 4.36934 2.55551 4.38944 3.09972C4.43389 4.30253 4.5 6.94185 4.5 12C4.5 17.0581 4.43389 19.6974 4.38944 20.9003C4.36934 21.4445 4.07763 21.9194 3.53588 21.9748C3.38398 21.9904 3.20649 22 3 22C2.79351 22 2.61602 21.9904 2.46412 21.9748C1.92237 21.9194 1.63066 21.4445 1.61056 20.9003C1.56611 19.6974 1.5 17.0581 1.5 12C1.5 6.94185 1.56611 4.30253 1.61056 3.09972C1.63066 2.55551 1.92237 2.0806 2.46412 2.0252C2.61602 2.00967 2.79351 2 3 2C3.20649 2 3.38398 2.00967 3.53588 2.0252Z" fill="#637381"/>
<g opacity="0.4">
<path d="M16.4649 4.74734C16.4334 3.88857 15.9091 3.23087 15.0545 3.14106C14.3225 3.06415 13.2019 3 11.5 3C9.7981 3 8.6775 3.06415 7.94555 3.14106C7.0909 3.23087 6.56655 3.88857 6.5351 4.74734C6.51525 5.28845 6.5 6.0223 6.5 7C6.5 7.9777 6.51525 8.71155 6.5351 9.25265C6.56655 10.1115 7.0909 10.7691 7.94555 10.8589C8.6775 10.9358 9.7981 11 11.5 11C13.2019 11 14.3225 10.9358 15.0545 10.8589C15.9091 10.7691 16.4334 10.1115 16.4649 9.25265C16.4847 8.71155 16.5 7.9777 16.5 7C16.5 6.0223 16.4847 5.28845 16.4649 4.74734Z" fill="#637381"/>
<path d="M22.4536 14.9249C22.4041 13.9629 21.7449 13.2665 20.785 13.1855C19.6588 13.0906 17.7362 13 14.5 13C11.2638 13 9.3412 13.0906 8.21495 13.1855C7.25505 13.2665 6.5959 13.9629 6.54635 14.9249C6.5195 15.4458 6.5 16.1253 6.5 17C6.5 17.8747 6.5195 18.5542 6.54635 19.0751C6.5959 20.0371 7.25505 20.7335 8.21495 20.8144C9.3412 20.9094 11.2638 21 14.5 21C17.7362 21 19.6588 20.9094 20.785 20.8144C21.7449 20.7335 22.4041 20.0371 22.4536 19.0751C22.4805 18.5542 22.5 17.8747 22.5 17C22.5 16.1253 22.4805 15.4458 22.4536 14.9249Z" fill="#637381"/>
</g>
</svg>
