<svg width="24" height="24" viewBox="0 0 24 24" fill="none" xmlns="http://www.w3.org/2000/svg">
<path d="M20.9641 2.0252C20.4224 2.0806 20.1307 2.55551 20.1106 3.09972C20.0661 4.30253 20 6.94185 20 12C20 17.0581 20.0661 19.6974 20.1106 20.9003C20.1307 21.4445 20.4224 21.9194 20.9641 21.9748C21.116 21.9904 21.2935 22 21.5 22C21.7065 22 21.884 21.9904 22.0359 21.9748C22.5776 21.9194 22.8693 21.4445 22.8894 20.9003C22.9339 19.6974 23 17.0581 23 12C23 6.94185 22.9339 4.30253 22.8894 3.09972C22.8693 2.55551 22.5776 2.0806 22.0359 2.0252C21.884 2.00967 21.7065 2 21.5 2C21.2935 2 21.116 2.00967 20.9641 2.0252Z" fill="#637381"/>
<g opacity="0.4">
<path d="M8.0351 4.74734C8.06655 3.88857 8.5909 3.23087 9.44555 3.14106C10.1775 3.06415 11.2981 3 13 3C14.7019 3 15.8225 3.06415 16.5545 3.14106C17.4091 3.23087 17.9335 3.88857 17.9649 4.74734C17.9848 5.28845 18 6.0223 18 7C18 7.9777 17.9848 8.71155 17.9649 9.25265C17.9335 10.1115 17.4091 10.7691 16.5545 10.8589C15.8225 10.9358 14.7019 11 13 11C11.2981 11 10.1775 10.9358 9.44555 10.8589C8.5909 10.7691 8.06655 10.1115 8.0351 9.25265C8.01525 8.71155 8 7.9777 8 7C8 6.0223 8.01525 5.28845 8.0351 4.74734Z" fill="#637381"/>
<path d="M2.04635 14.9249C2.0959 13.9629 2.75505 13.2665 3.71495 13.1855C4.8412 13.0906 6.76375 13 10 13C13.2362 13 15.1588 13.0906 16.2851 13.1855C17.245 13.2665 17.9041 13.9629 17.9536 14.9249C17.9805 15.4458 18 16.1253 18 17C18 17.8747 17.9805 18.5542 17.9536 19.0751C17.9041 20.0371 17.245 20.7335 16.2851 20.8144C15.1588 20.9094 13.2362 21 10 21C6.76375 21 4.8412 20.9094 3.71495 20.8144C2.75505 20.7335 2.0959 20.0371 2.04635 19.0751C2.0195 18.5542 2 17.8747 2 17C2 16.1253 2.0195 15.4458 2.04635 14.9249Z" fill="#637381"/>
</g>
</svg>
