<svg width="24" height="24" viewBox="0 0 24 24" fill="none" xmlns="http://www.w3.org/2000/svg">
<path fill-rule="evenodd" clip-rule="evenodd" d="M6.5565 2.10053C3.94225 2.2122 2 3.88336 2 6.5C2 9.11665 3.94225 10.7878 6.5565 10.8995C7.9246 10.9579 9.7062 11 12 11C14.2938 11 16.0754 10.9579 17.4435 10.8995C20.0578 10.7878 22 9.11665 22 6.5C22 3.88336 20.0578 2.2122 17.4435 2.10053C16.0754 2.04209 14.2938 2 12 2C9.7062 2 7.9246 2.04209 6.5565 2.10053ZM20 6.5C20 7.88071 18.8807 9 17.5 9C16.1193 9 15 7.88071 15 6.5C15 5.11929 16.1193 4 17.5 4C18.8807 4 20 5.11929 20 6.5Z" fill="#637381"/>
<path opacity="0.4" fill-rule="evenodd" clip-rule="evenodd" d="M17.4435 13.1005C20.0578 13.2122 22 14.8833 22 17.5C22 20.1167 20.0578 21.7878 17.4435 21.8995C16.0754 21.9579 14.2938 22 12 22C9.7062 22 7.9246 21.9579 6.5565 21.8995C3.94225 21.7878 2 20.1167 2 17.5C2 14.8833 3.94225 13.2122 6.5565 13.1005C7.9246 13.0421 9.7062 13 12 13C14.2938 13 16.0754 13.0421 17.4435 13.1005ZM4 17.5C4 18.8807 5.11929 20 6.5 20C7.88071 20 9 18.8807 9 17.5C9 16.1193 7.88071 15 6.5 15C5.11929 15 4 16.1193 4 17.5Z" fill="#637381"/>
<path opacity="0.4" d="M17.5 9C18.8807 9 20 7.88071 20 6.5C20 5.11929 18.8807 4 17.5 4C16.1193 4 15 5.11929 15 6.5C15 7.88071 16.1193 9 17.5 9Z" fill="#637381"/>
<path d="M6.5 20C5.11929 20 4 18.8807 4 17.5C4 16.1193 5.11929 15 6.5 15C7.88071 15 9 16.1193 9 17.5C9 18.8807 7.88071 20 6.5 20Z" fill="#637381"/>
</svg>
