<?xml version="1.0" encoding="utf-8"?>
<!-- Generator: Adobe Illustrator 25.1.0, SVG Export Plug-In . SVG Version: 6.00 Build 0)  -->
<svg version="1.1" id="Layer_1" xmlns="http://www.w3.org/2000/svg" xmlns:xlink="http://www.w3.org/1999/xlink" x="0px" y="0px"
	 viewBox="0 0 1159 771" style="enable-background:new 0 0 1159 771;" xml:space="preserve">
<style type="text/css">
	.st1{opacity:0.85;}
	.st2{opacity:0.88;}
	.st3{opacity:0.7;fill:#FECBCF;}
	.st4{opacity:0.91;}
	.st5{fill:#FFBC80;}
	.st6{fill:#EF9A54;}
	.st7{fill:#F2E6DD;}
	.st8{fill:#E6DACF;}
	.st9{fill:#5A7CF7;}
	.st10{fill:#3456B8;}
	.st11{fill:#22317A;}
	.st12{fill:#FBB9C4;}
	.st13{fill:#7386B8;}
	.st14{fill:#F083A8;}
	.st15{fill:#FECBCF;}
	.st16{fill:#FDB260;}
	.st17{opacity:0.83;}
	.st18{fill:#E5EBFD;}
	.st19{fill:#97A5CE;}
	.st20{fill:#1A1C54;}
	.st21{fill:#2C363D;}
	.st22{fill:#304086;}
	.st23{fill:#84B9FF;}
	.st24{fill:#80A1FF;}
	.st25{opacity:0.87;}
	.st26{opacity:0.73;}
	.st27{fill:#BBD0F9;}
	.st28{opacity:0.78;}
	.st29{fill:#F490B7;}
	.st30{opacity:0.75;}
</style>
<g>
	<g class="st1">
		<g class="st2">
			<ellipse class="st3" cx="568.57" cy="671.03" rx="345.15" ry="42.24"/>
		</g>
		<g class="st4">
			<ellipse class="st3" cx="531.76" cy="657.72" rx="169.1" ry="19.39"/>
		</g>
	</g>
	<g>
		<g>
			<g>
				<g>
					<g>
						<g>
							<g>
								<g>
									<path class="st5" d="M784.06,239.28c-0.87,3.8-2.52,7.22-4.74,10.14c-1.1,1.45-2.35,2.78-3.71,3.96
										c-1.33,1.15-2.77,2.17-4.29,3.04c-1.98,1.13-4.12,2.01-6.34,2.6c-3.51,0.93-7.25,1.16-11.03,0.55
										c-0.58-0.09-1.16-0.21-1.74-0.34c-3.55-0.82-6.76-2.31-9.55-4.3c-1.57-1.13-3.01-2.42-4.28-3.85
										c-5.57-6.22-8.13-14.95-6.12-23.7c0.63-2.75,1.67-5.31,3.04-7.62c1.92-3.24,4.49-5.98,7.49-8.11
										c0.01-0.01,0.02-0.02,0.03-0.02c1.86-1.31,3.88-2.39,6.02-3.19c3.29-1.24,6.86-1.83,10.5-1.66
										c1.58,0.07,3.17,0.29,4.76,0.65C778.42,210.71,787.35,224.97,784.06,239.28z"/>
								</g>
							</g>
						</g>
					</g>
				</g>
			</g>
			<g>
				<g>
					<g>
						<g>
							<g>
								<g>
									<path class="st6" d="M778.48,237.99c-2.58,11.22-13.76,18.22-24.98,15.64c-11.22-2.58-18.22-13.76-15.64-24.98
										c2.58-11.22,13.76-18.22,24.98-15.64C774.05,215.59,781.05,226.78,778.48,237.99z"/>
								</g>
							</g>
						</g>
					</g>
				</g>
			</g>
			<g>
				<g>
					<g>
						<g>
							<g>
								<g>
									<path class="st0" d="M765.5,235.88c-0.73-1.2-1.76-2.15-3.09-2.86l0.07-0.3c2.77-0.45,4.42-1.84,4.96-4.16
										c0.24-1.06,0.21-2.04-0.1-2.95c-0.25-0.73-0.74-1.41-1.47-2.05c-0.3-0.26-0.67-0.51-1.11-0.75l1.06-4.63l-2.88-0.66
										l-0.96,4.19c-0.61-0.19-1.29-0.36-2.01-0.53l-0.13-0.03l0.95-4.12l-2.88-0.66l-0.95,4.12l-5.13-1.18
										c-0.12-0.03-0.18,0.02-0.21,0.13l-0.21,0.9c-0.03,0.11,0.02,0.18,0.13,0.21l2.9,0.97c0.12,0.03,0.16,0.1,0.13,0.21
										l-4.62,20.12c-0.03,0.12-0.1,0.16-0.21,0.13l-3.03-0.41c-0.12-0.03-0.18,0.02-0.21,0.15l-0.21,0.9
										c-0.03,0.11,0.02,0.18,0.13,0.21l5.13,1.18l-1.02,4.42l2.88,0.66l1.02-4.42l0.94,0.22c0.42,0.1,0.84,0.18,1.23,0.25
										l-1.02,4.45l2.88,0.66l1.12-4.86c2.04-0.04,3.64-0.59,4.8-1.67c0.99-0.92,1.63-2.03,1.93-3.31
										C766.65,238.84,766.39,237.32,765.5,235.88z M760.46,223.05c0.4,0.11,0.77,0.23,1.11,0.39c0.79,0.34,1.43,0.8,1.92,1.38
										c0.25,0.3,0.44,0.62,0.58,0.97c0.27,0.71,0.31,1.52,0.1,2.44c-0.22,0.94-0.61,1.69-1.17,2.25
										c-0.43,0.42-0.96,0.74-1.59,0.94c-0.49,0.16-1.07,0.24-1.71,0.24c-0.66,0-1.4-0.08-2.22-0.24
										c-0.19-0.04-0.37-0.07-0.57-0.12l-1.08-0.25c-0.11-0.03-0.16-0.1-0.13-0.21l1.92-8.34c0.03-0.11,0.1-0.16,0.21-0.13
										l1.33,0.31l0.31,0.08L760.46,223.05z M760.06,243.23c-0.85,0.31-1.88,0.4-3.1,0.27c-0.51-0.05-1.05-0.15-1.62-0.28
										l-0.56-0.13l-1.64-0.38c-0.11-0.03-0.16-0.1-0.13-0.21l2.29-9.98c0.03-0.12,0.1-0.16,0.21-0.13l1.54,0.35
										c0.04,0.01,0.07,0.02,0.1,0.03c0.79,0.18,1.5,0.41,2.12,0.67c1.14,0.48,2.01,1.09,2.62,1.83c0.99,1.21,1.26,2.76,0.83,4.65
										C762.33,241.62,761.44,242.72,760.06,243.23z"/>
								</g>
							</g>
						</g>
					</g>
				</g>
			</g>
		</g>
		<g>
			<g>
				<g>
					<g>
						<g>
							<g>
								<g>
									<path class="st5" d="M708.04,335.42c0.41,1.57,0.45,3.14,0.2,4.64c-0.13,0.75-0.33,1.47-0.61,2.17
										c-0.27,0.68-0.6,1.33-1,1.94c-0.51,0.8-1.13,1.53-1.84,2.17c-1.11,1.02-2.45,1.82-3.96,2.31
										c-0.23,0.08-0.47,0.15-0.71,0.21c-1.46,0.38-2.93,0.45-4.34,0.24c-0.8-0.11-1.57-0.32-2.32-0.6
										c-3.24-1.22-5.86-3.95-6.8-7.56c-0.29-1.14-0.4-2.28-0.34-3.39c0.09-1.56,0.51-3.06,1.2-4.42c0-0.01,0.01-0.01,0.01-0.02
										c0.43-0.84,0.97-1.62,1.61-2.33c0.98-1.09,2.18-1.99,3.55-2.62c0.59-0.28,1.22-0.5,1.88-0.67
										C700.48,325.98,706.51,329.52,708.04,335.42z"/>
								</g>
							</g>
						</g>
					</g>
				</g>
			</g>
			<g>
				<g>
					<g>
						<g>
							<g>
								<g>
									<path class="st6" d="M705.73,336.02c1.2,4.63-1.58,9.35-6.21,10.55c-4.63,1.2-9.35-1.58-10.55-6.21
										c-1.2-4.63,1.58-9.35,6.21-10.55C699.81,328.61,704.53,331.39,705.73,336.02z"/>
								</g>
							</g>
						</g>
					</g>
				</g>
			</g>
			<g>
				<g>
					<g>
						<g>
							<g>
								<g>
									<path class="st0" d="M700.55,337.73c-0.5-0.3-1.06-0.45-1.69-0.46l-0.03-0.12c0.94-0.7,1.28-1.52,1.03-2.48
										c-0.11-0.44-0.31-0.79-0.6-1.07c-0.23-0.22-0.54-0.38-0.94-0.47c-0.16-0.04-0.34-0.06-0.55-0.06l-0.49-1.91l-1.19,0.31
										l0.45,1.73c-0.26,0.05-0.54,0.11-0.84,0.19l-0.06,0.01l-0.44-1.7L694,332l0.44,1.7l-2.12,0.55
										c-0.05,0.01-0.06,0.04-0.05,0.09l0.1,0.37c0.01,0.05,0.04,0.06,0.09,0.05l1.26-0.2c0.05-0.01,0.08,0.01,0.09,0.05l2.15,8.3
										c0.01,0.05-0.01,0.08-0.05,0.09l-1.2,0.43c-0.05,0.01-0.06,0.04-0.05,0.1l0.1,0.37c0.01,0.05,0.04,0.06,0.09,0.05
										l2.12-0.55l0.47,1.82l1.19-0.31l-0.47-1.82l0.39-0.1c0.17-0.05,0.34-0.09,0.5-0.14l0.48,1.84l1.19-0.31l-0.52-2
										c0.75-0.41,1.23-0.92,1.45-1.54c0.19-0.53,0.21-1.06,0.08-1.59C701.54,338.6,701.15,338.09,700.55,337.73z M696.23,333.96
										c0.17-0.04,0.33-0.06,0.48-0.07c0.36-0.03,0.68,0.02,0.97,0.14c0.15,0.06,0.28,0.14,0.4,0.25c0.24,0.21,0.4,0.5,0.5,0.88
										c0.1,0.39,0.1,0.74,0,1.05c-0.08,0.24-0.21,0.46-0.41,0.65c-0.15,0.15-0.35,0.29-0.59,0.42c-0.24,0.13-0.53,0.24-0.86,0.34
										c-0.08,0.02-0.15,0.04-0.23,0.06l-0.44,0.12c-0.05,0.01-0.08-0.01-0.09-0.05l-0.89-3.44c-0.01-0.05,0.01-0.08,0.05-0.09
										l0.55-0.14l0.13-0.03L696.23,333.96z M699.95,341.48c-0.25,0.28-0.62,0.51-1.09,0.69c-0.2,0.08-0.41,0.15-0.65,0.21
										l-0.23,0.06l-0.68,0.18c-0.05,0.01-0.08-0.01-0.09-0.05l-1.07-4.12c-0.01-0.05,0.01-0.08,0.05-0.09l0.64-0.16
										c0.01,0,0.03-0.01,0.04-0.01c0.33-0.08,0.63-0.14,0.91-0.16c0.51-0.04,0.95,0.02,1.31,0.17c0.59,0.26,0.99,0.77,1.2,1.56
										C700.48,340.45,700.36,341.03,699.95,341.48z"/>
								</g>
							</g>
						</g>
					</g>
				</g>
			</g>
		</g>
		<g>
			<g>
				<g>
					<g>
						<g>
							<g>
								<g>
									<g>
										<path class="st5" d="M797.49,143.42c-1.25,4.73-3.45,8.95-6.34,12.52c-1.44,1.78-3.06,3.39-4.81,4.82
											c-1.71,1.39-3.55,2.61-5.5,3.64c-2.53,1.34-5.24,2.36-8.05,3.01c-4.43,1.03-9.13,1.16-13.84,0.25
											c-0.72-0.14-1.44-0.3-2.16-0.49c-4.41-1.16-8.39-3.16-11.79-5.77c-1.93-1.48-3.67-3.16-5.22-4.99
											c-6.73-8.01-9.6-19.06-6.73-29.95c0.9-3.43,2.31-6.59,4.11-9.43c2.54-3.98,5.86-7.32,9.7-9.87
											c0.01-0.01,0.03-0.02,0.04-0.03c2.38-1.57,4.96-2.84,7.68-3.76c4.18-1.42,8.67-2.02,13.23-1.67
											c1.97,0.15,3.96,0.49,5.94,1.01C791.54,107.39,802.17,125.62,797.49,143.42z"/>
									</g>
								</g>
							</g>
						</g>
					</g>
				</g>
			</g>
			<g>
				<g>
					<g>
						<g>
							<g>
								<g>
									<g>
										<circle class="st6" cx="765.26" cy="134.93" r="26.13"/>
									</g>
								</g>
							</g>
						</g>
					</g>
				</g>
			</g>
			<g>
				<g>
					<g>
						<g>
							<g>
								<polygon class="st0" points="778.8,139.75 767.28,142.49 767.28,142.49 763.16,143.48 751.9,131.8 751.9,131.8
									771.98,113.62 								"/>
							</g>
						</g>
					</g>
				</g>
				<g>
					<g>
						<g>
							<g>
								<path class="st0" d="M778.26,141.57l-18.94,14.9c-2.58-7.67-5.16-15.34-7.74-23.01l11.04,11.83
									c0.03,0.03,0.06,0.06,0.09,0.1C767.9,144.12,773.08,142.84,778.26,141.57z"/>
							</g>
						</g>
					</g>
				</g>
				<g>
					<g>
						<g>
							<g>
								<path class="st7" d="M762.71,145.39c5.18-1.27,10.37-2.54,15.55-3.82l-18.94,14.9l3.3-11.18
									C762.65,145.32,762.68,145.36,762.71,145.39z"/>
							</g>
						</g>
					</g>
				</g>
				<g>
					<g>
						<g>
							<g>
								<polygon class="st7" points="778.8,139.75 763.16,143.48 771.98,113.62 								"/>
							</g>
						</g>
					</g>
				</g>
				<g>
					<g>
						<g>
							<g>
								<polygon class="st8" points="778.8,139.75 767.28,142.49 767.28,142.49 763.16,143.48 751.9,131.8 751.9,131.8
									767.24,129.65 								"/>
							</g>
						</g>
					</g>
				</g>
			</g>
		</g>
		<g>
			<g>
				<g>
					<g>
						<g>
							<g>
								<g>
									<g>
										<path class="st5" d="M711.17,285.24c0.26,2.43-0.02,4.79-0.74,6.97c-0.36,1.08-0.83,2.12-1.39,3.1
											c-0.55,0.95-1.2,1.85-1.92,2.67c-0.95,1.07-2.03,2.03-3.23,2.83c-1.89,1.27-4.06,2.16-6.42,2.57
											c-0.36,0.06-0.73,0.11-1.1,0.15c-2.27,0.24-4.48,0.01-6.53-0.6c-1.16-0.35-2.27-0.82-3.32-1.41
											c-4.56-2.55-7.86-7.2-8.45-12.79c-0.19-1.76-0.09-3.49,0.25-5.13c0.48-2.31,1.44-4.46,2.78-6.33
											c0.01-0.01,0.01-0.01,0.02-0.02c0.83-1.16,1.81-2.21,2.92-3.12c1.7-1.4,3.69-2.48,5.88-3.12
											c0.95-0.28,1.94-0.48,2.95-0.58C702,269.47,710.2,276.09,711.17,285.24z"/>
									</g>
								</g>
							</g>
						</g>
					</g>
				</g>
			</g>
			<g>
				<g>
					<g>
						<g>
							<g>
								<g>
									<g>

											<ellipse transform="matrix(0.5121 -0.859 0.859 0.5121 92.4252 736.6735)" class="st6" cx="694.61" cy="286.99" rx="13.05" ry="13.05"/>
									</g>
								</g>
							</g>
						</g>
					</g>
				</g>
			</g>
			<g>
				<g>
					<g>
						<g>
							<g>
								<polygon class="st0" points="701.79,286.84 696.9,290.16 696.9,290.16 695.15,291.35 687.82,287.9 687.82,287.89
									693.97,275.84 								"/>
							</g>
						</g>
					</g>
				</g>
				<g>
					<g>
						<g>
							<g>
								<path class="st0" d="M701.86,287.78l-6.2,10.32c-2.57-3.12-5.13-6.25-7.69-9.37l7.25,3.57c0.02,0.01,0.04,0.02,0.06,0.03
									C697.47,290.81,699.67,289.3,701.86,287.78z"/>
							</g>
						</g>
					</g>
				</g>
				<g>
					<g>
						<g>
							<g>
								<path class="st7" d="M695.28,292.32c2.19-1.51,4.39-3.03,6.58-4.54l-6.2,10.32l-0.44-5.81
									C695.24,292.3,695.26,292.31,695.28,292.32z"/>
							</g>
						</g>
					</g>
				</g>
				<g>
					<g>
						<g>
							<g>
								<polygon class="st7" points="701.79,286.84 695.15,291.35 693.97,275.84 								"/>
							</g>
						</g>
					</g>
				</g>
				<g>
					<g>
						<g>
							<g>
								<polygon class="st8" points="701.79,286.84 696.9,290.16 696.9,290.16 695.15,291.35 687.82,287.9 687.82,287.89
									694.6,284.17 								"/>
							</g>
						</g>
					</g>
				</g>
			</g>
		</g>
		<g>
			<g>
				<g>
					<g>
						<g>

								<ellipse transform="matrix(0.1568 -0.9876 0.9876 0.1568 402.2234 814.9329)" class="st5" cx="678.37" cy="171.91" rx="28.11" ry="28.11"/>
						</g>
					</g>
				</g>
			</g>
			<g>
				<g>
					<g>
						<g>

								<ellipse transform="matrix(0.2811 -0.9597 0.9597 0.2811 322.6732 774.5838)" class="st6" cx="678.37" cy="171.91" rx="20.74" ry="20.74"/>
						</g>
					</g>
				</g>
			</g>
			<g>
				<g>
					<g>
						<g>
							<polygon class="st0" points="680.75,178.77 677.36,171.35 680.74,161.88 678.62,157.72 675.36,166.98 670.42,156.18
								664.91,160.2 672.15,176.09 670.82,179.86 672.79,184.12 674.12,180.41 677.79,188.46 695.06,175.85 692.51,170.18
								"/>
						</g>
					</g>
				</g>
			</g>
		</g>
		<g>
			<g>
				<g>
					<g>
						<g>
							<path class="st5" d="M742.56,325.53c-3.42,6.46-11.44,8.92-17.9,5.49c-6.46-3.42-8.92-11.44-5.49-17.9
								c3.42-6.46,11.44-8.92,17.9-5.49C743.53,311.06,745.99,319.07,742.56,325.53z"/>
						</g>
					</g>
				</g>
			</g>
			<g>
				<g>
					<g>
						<g>
							<path class="st6" d="M739.49,323.91c-2.53,4.77-8.44,6.58-13.2,4.05c-4.77-2.53-6.58-8.44-4.05-13.2
								c2.53-4.77,8.44-6.58,13.2-4.05C740.2,313.23,742.02,319.14,739.49,323.91z"/>
						</g>
					</g>
				</g>
			</g>
			<g>
				<g>
					<g>
						<g>
							<polygon class="st0" points="728.45,321.75 730.89,318.79 735.6,318.27 736.92,316.52 732.33,317.04 735.89,312.73
								733.05,311.22 727.81,317.56 725.94,317.77 724.54,319.48 726.39,319.28 723.73,322.49 732.63,327.21 734.51,324.96
								"/>
						</g>
					</g>
				</g>
			</g>
		</g>
		<g>
			<g>
				<g>
					<g>
						<g>
							<path class="st5" d="M685.77,357.58c1.9,3.48,0.61,7.83-2.87,9.73c-3.48,1.9-7.83,0.61-9.73-2.87
								c-1.9-3.48-0.61-7.83,2.87-9.73C679.52,352.82,683.88,354.1,685.77,357.58z"/>
						</g>
					</g>
				</g>
			</g>
			<g>
				<g>
					<g>
						<g>
							<path class="st6" d="M684.12,358.48c1.4,2.57,0.45,5.78-2.11,7.18c-2.57,1.4-5.78,0.45-7.18-2.11
								c-1.4-2.57-0.45-5.78,2.11-7.18C679.51,354.97,682.72,355.92,684.12,358.48z"/>
						</g>
					</g>
				</g>
			</g>
			<g>
				<g>
					<g>
						<g>
							<polygon class="st0" points="679.85,362.83 679.24,360.84 680.41,358.56 680.01,357.44 678.88,359.67 677.99,356.77
								676.46,357.6 677.76,361.86 677.3,362.77 677.66,363.92 678.12,363.02 678.77,365.18 683.56,362.57 683.11,361.05 							"/>
						</g>
					</g>
				</g>
			</g>
		</g>
		<g>
			<g>
				<g>
					<g>
						<path class="st9" d="M695.07,528.9c-2.7-15.02-7.33-30.09-15.75-42.23c-10.05-14.51-24.23-25.26-35.69-38.23
							c-86.69-98.15-85.49-81.51-158.73-127.41c-5.43-3.4-9.85-8.48-14.17-13.49c-10.69-12.4-19.94-28.83-32.58-38.58
							c-8.74-6.74-22.67-13.82-33.25-7.63c-7.9,4.62-15.41,15.34-16.68,18.98c-20.19,57.62-61.73,190.76-60.37,269.72
							c0.29,16.82,5.06,32.47,30.99,53.64c21.16,17.27,46.93,27.84,76.92,36.23c10.73,3,16.58,10.47,66.05,15.34
							c7.48,0.74,183.31,3.06,188.56-55.59C692.05,580.9,699.76,555.01,695.07,528.9z M660.7,528.41
							c-1.84,4.72-10.58,6.98-26.45,12.19c-13.09,4.3-23.7,5.56-36.54,7.02c-16.36,1.86-26.21,3.41-32.66,2.61
							c-26.88-3.33-48.14-22.66-53.09-28.19c-10.14-11.34-9.03-17.99-24.92-50.52c-12.2-24.99-21.34-40.56-32.96-58.51
							c-19.68-30.4-25.79-37.34-32.77-62.42c-4.03-14.48-7.59-27.27-2.65-32.11C444.17,293.49,685.15,465.56,660.7,528.41z"/>
						<path class="st10" d="M418.67,318.47c-4.94,4.84-1.38,17.63,2.65,32.11c6.98,25.09,13.09,32.02,32.77,62.42
							c11.63,17.96,20.76,33.52,32.96,58.51c15.89,32.53,14.78,39.18,24.92,50.52c4.95,5.53,26.2,24.86,53.09,28.19
							c6.45,0.8,16.3-0.75,32.66-2.61c12.84-1.46,23.44-2.72,36.54-7.02c15.87-5.21,24.61-7.47,26.45-12.19
							C685.15,465.56,444.17,293.49,418.67,318.47z"/>
					</g>
				</g>
				<g id="man_in_armchair">
					<path class="st11" d="M644.06,472.85c-2.06-3.39-9.61-16.95-13.37-15.75c-2.12,0.67-2.53,7.44-3.75,12.64
						c-1.72,7.37-4.22,14.42-11.82,26.57c-10.02,16.02-27.06,12.6-33.36,15.62c-36.43,17.46-85.57-1.02-86.14,0.41
						c-0.02,0.05,0.02,0.1,0.04,0.13c12.87,20.29,38.87,28.48,38.87,28.48c33.94,10.69,111.61,12.82,122.26-19.68
						C661.8,505.98,651.73,485.48,644.06,472.85z"/>
					<g>
						<g>
							<g>
								<path class="st12" d="M698.18,670.3c-0.12-3,0.98-5.12,1.98-7.6c1.02-2.55,2.27-6.36,2.97-11.4
									c0.05,0.03,0.09,0.06,0.14,0.08c-1.69-6.7-3.37-13.4-5.06-20.11c3.06-1.55,6.72-3.14,10.97-4.49
									c5.05-1.6,9.65-2.46,13.5-2.91c0.92,7.29,1.85,14.57,2.77,21.86c0.34,2.71,2.13,5.02,4.64,5.96
									c2.7,1.02,4.69,1.74,5.68,2.06c0.94,0.3,2.18,0.68,2.18,0.68c0.76,0.24,1.52,0.47,2.25,0.69
									c-2.93,4.24-6.66,10.97-8.2,19.32c-0.06,0.26-0.11,0.53-0.14,0.8c-5.73,0.78-12.18,1.34-19.25,1.43
									c-4.46,0.05-8.66-0.09-12.56-0.36C699.25,674.99,698.28,672.91,698.18,670.3z"/>
							</g>
							<g>
								<path class="st13" d="M731.34,681.53l48.08-4.27c1.32-1.26,1.19-3.05,1.17-3.24c-0.17-1.91-1.57-2.87-1.73-2.98
									c-0.69,0.05-1.36,0.09-2.04,0.14c0.6-1.47,0.51-2.49,0.36-3.11c-1.64-6.66-20.38-9.11-24.65-10.71
									c-0.51-0.19-1.03-0.39-1.58-0.57c-0.75-0.27-1.55-0.53-2.36-0.83c-1.52-0.49-3.14-1.02-4.91-1.58
									c-0.44-0.15-0.88-0.3-1.34-0.43c-0.75-0.26-1.53-0.52-2.34-0.79c-2.89,4.65-6.56,12.03-8.03,21.2
									c-0.05,0.29-0.11,0.58-0.13,0.88C731.56,677.26,731.37,679.36,731.34,681.53z"/>
							</g>
							<g>
								<path class="st13" d="M693.02,684.94l86.41-7.68c1.32-1.26,1.19-3.05,1.17-3.24c-0.17-1.91-1.57-2.87-1.73-2.98
									c-0.69,0.05-1.36,0.09-2.04,0.14c-14.94,1.07-29.89,2.13-44.83,3.18c-12.8,0.91-25.6,1.81-38.4,2.72
									c-0.42,0.02-0.84,0.06-1.27,0.09c-0.32,0.42-1.09,1.57-1.16,3.24C691.05,683.01,692.77,684.7,693.02,684.94z"/>
							</g>
						</g>
						<g>
							<path class="st14" d="M666.16,288.71c0,0,2.8-7.17-0.15-14.46c-2.36-5.82-1.66-8.87-3.29-11.42
								c-0.39-0.61-0.9-1.82-1.75-1.86c-0.63-0.03-1.14,0.58-1.35,0.82c-1.94,2.37-1.94,8.2-1.94,8.47
								C657.67,278.66,653.76,280.39,666.16,288.71z"/>
						</g>
						<g>
							<path class="st15" d="M646.82,674.87c-0.12-3,0.98-5.12,1.98-7.6c1.02-2.55,2.27-6.36,2.97-11.4
								c0.05,0.03,0.09,0.06,0.14,0.08c-1.69-6.7-3.37-13.4-5.06-20.11c3.06-1.55,6.72-3.14,10.97-4.49
								c5.05-1.6,9.65-2.46,13.5-2.91c0.92,7.29,1.85,14.57,2.77,21.86c0.34,2.71,2.13,5.02,4.64,5.96c2.7,1.02,4.69,1.74,5.68,2.06
								c0.94,0.3,2.18,0.68,2.18,0.68c0.76,0.24,1.52,0.47,2.25,0.69c-2.93,4.24-6.66,10.97-8.2,19.32
								c-0.06,0.26-0.11,0.53-0.14,0.8c-5.73,0.78-12.18,1.34-19.25,1.43c-4.46,0.05-8.66-0.09-12.56-0.36
								C647.89,679.56,646.92,677.47,646.82,674.87z"/>
						</g>
						<g>
							<g>
								<path class="st6" d="M695.96,643.46c-8.19-27.36-15.69-57.85-21.46-91.23c-2.76-15.93-4.91-31.32-6.57-46.08
									c-9.25,3.7-22.36,8.31-38.44,11.9c-34.99,7.81-74.27,16.59-91.87-5.97c-3.48-4.47-13.08-19.08-7.19-53.09
									c13.35-2.6,26.69-5.2,40.04-7.8c13.01-2.04,30.49-4.65,51.18-7.38c66.54-8.76,79.67-7.28,89.04,1.98
									c12.46,12.31,12.23,30.37,12.71,59.67c0.55,33.65,2.94,80.14,10.98,137.31c-2.86,1.87-7.19,4.15-12.81,5.23
									C709.24,650.39,699.31,645.36,695.96,643.46z"/>
							</g>
						</g>
						<g>
							<path class="st16" d="M649.86,647.56c-1.96-6.39-4.63-15.44-7.49-26.38c-6.92-26.53-10.5-47.25-12.82-60.72
								c-2.68-15.62-4.81-30.71-6.47-45.17c-11.15,3.89-26.95,8.64-46.31,11.92c-36.61,6.19-63.14,10.76-78.84-6.61
								c-2.74-3.03-17.93-19.31-16.52-51.04c13.28-2.57,31.49-5.47,44.77-8.04c12.95-2.02,30.34-4.6,50.93-7.3
								c66.21-8.68,79.28-7.24,88.59,1.83c11.76,11.45,11.81,27.89,12.57,58.5c0.76,30.71,2.77,75.21,8.57,131.1
								c-4.84,1.34-11.04,2.61-18.32,2.99C661.2,649.01,654.85,648.4,649.86,647.56z"/>
						</g>
						<g class="st17">
							<path class="st0" d="M722.5,648.48l0.96-0.11c-2.69-24.77-16.43-149.53-23.32-173.8c-7.93-27.94-10.49-32.49-54.28-29.5
								c-24.54,1.66-50.05,5.39-67.15,5.03l-0.18,1.36c17.1,0.36,42.83-3.72,67.4-5.38c44.26-3.02,45.82,2.45,53.29,28.77
								C706.08,499.04,719.82,623.73,722.5,648.48z"/>
						</g>
						<g>
							<path class="st12" d="M519.76,323.74c4.54,0.27,11.69,0.99,20.08,3.29c17.39,4.76,24.05,11.86,42.41,18.24
								c5.14,1.79,12.91,4.12,22.91,5.65c5.41,3.71,8.63,9.6,7.79,15.08c-1.23,8.06-11.22,15.21-22.78,12.84
								c-15.58-1.94-27.46-6.29-35.13-9.72c-11.85-5.3-21.22-9.5-27.98-19.68C520.61,339.71,519.76,329.39,519.76,323.74z"/>
						</g>
						<g>
							<path class="st18" d="M521.37,322.07c6.24,15.36,12.46,30.71,18.7,46.08l8.82,3.02l29.08,4.48l6.68,3.09l13.5,0.61
								l-9.39,0.63l-1.02-2.81l-12.97-36c-7.16-4.06-15.51-8.11-25-11.58c-4.67-1.71-9.62-3.28-14.85-4.63
								C530.21,323.74,525.7,322.8,521.37,322.07z"/>
						</g>
						<g>
							<polygon class="st19" points="531.76,338.88 548.89,371.17 579.47,381.32 584.31,382.17 588.75,379.98 590.17,378.83
								587.73,377.17 							"/>
						</g>
						<g>
							<path class="st18" d="M435.9,346.04c3.54,12.23,7.23,24.61,11.05,37.11c3.1,10.12,6.29,20.32,9.57,30.62
								c7.69,24.09,15.55,47.49,23.5,70.2c19.21-4.4,39.59-9.75,60.94-16.33c20.7-6.38,40.03-13.19,57.94-20.16
								c-6.28-10.16-12.56-20.31-18.84-30.48c-19.57-31.65-39.12-63.31-58.68-94.94c-7.24,0.52-15.45,1.46-24.4,3.11
								c-6.73,1.24-13.87,2.88-21.33,5.05c-5.38,1.56-10.49,3.26-15.28,5.04C451.07,338.71,442.9,342.44,435.9,346.04z"/>
						</g>
						<g>
							<path class="st20" d="M434.94,257.38c-0.94,2.33-1.53,4.79-2.04,7.26c-0.44,2.49-0.68,5.03-0.72,7.58
								c-0.05,5.1,0.9,10.31,3.08,15.03c2.29,4.66,5.79,8.72,10.05,11.52l1.62,1.01c0.54,0.34,1.12,0.6,1.67,0.9
								c1.11,0.62,2.27,1.08,3.43,1.56c1.16,0.48,2.38,0.79,3.55,1.18c1.2,0.33,2.41,0.59,3.62,0.86l0.02-0.1
								c-4.77-1.26-9.41-3.21-13.5-6.05c-2-1.47-3.94-3.08-5.53-5.01c-1.61-1.91-2.99-4.03-4.07-6.29
								c-2.17-4.54-3.11-9.6-3.19-14.61c-0.06-5.02,0.63-10.05,2.1-14.81L434.94,257.38z"/>
						</g>
						<g>
							<path class="st19" d="M460.36,335.27c1.85,5.46,10.48,9.03,20.44,8.14c10.9-0.97,19.3-6.91,18.73-13.26
								c-0.16-1.85-1.07-3.53-2.55-4.97c-6.73,1.24-13.87,2.88-21.33,5.05C470.26,331.78,465.15,333.49,460.36,335.27z"/>
						</g>
						<g>
							<path class="st20" d="M489.61,281.9c-0.1-4.13-1.91-10.49-0.21-14.89c0.89-2.31,2.12-4.08,3.2-5.35
								c0.62-0.62,1.28-1.5,1.6-2.68c1.21-4.52-6.57-12.14-12.91-16.5c-5.11-3.51-8.55-5.87-13.61-5.75
								c-6.61,0.15-11.13,4.41-12.53,5.85c-2.48,0.3-9.58,1.5-15.36,7.52c-9.23,9.62-6.78,22.93-6.52,24.18
								c1.34,6.66,4.85,10.81,9.94,16.84c6.48,7.68,10.45,12.45,16.67,13.66C473.7,307.47,489.88,292.95,489.61,281.9z"/>
						</g>
						<g>
							<path class="st15" d="M466.84,338.4c8.55,3.42,15.06,2.84,19.81,0.91c2.78-1.13,5.04-2.93,5.04-2.93
								c2.73-2.12,4.36-4.44,5.24-5.93c-0.95-2.16-3.09-7.07-4.07-9.31c-2.59-5.91-5.17-11.81-7.76-17.72
								c-1.45-3.3-2.89-6.61-4.34-9.91c-4.08-0.01-8.19-0.03-12.31-0.07c-4.91-0.04-9.8-0.1-14.66-0.18
								C458.14,308.31,462.49,323.35,466.84,338.4z"/>
						</g>
						<g>
							<path class="st14" d="M467.1,307.14c0.88,2.25,2.71,5.95,6.38,9.09c7.96,6.81,17.83,5.18,19.42,4.89
								c-2.56-5.92-5.12-11.83-7.69-17.75c-1.67-0.33-3.17-0.55-4.37-0.65c0,0-1.24-0.03-2.56,0.12
								C473.96,303.33,467.5,306.91,467.1,307.14z"/>
						</g>
						<g>
							<path class="st15" d="M461,308.18c3.54,6.06,29.58,10.27,33.79,8.13c4.21-2.14,6.11-24.43,3.29-31.81
								c-1.77-4.64-4.21-15.5-5.76-22.92c-4.36-2.33-13.47-5.37-24.45,1.3c-4.72,2.86-9.42,4.98-13.72,6.41
								c-1.14,1.81-1.76,2.99-1.76,2.99S457.46,302.12,461,308.18z"/>
						</g>
						<g>
							<path class="st14" d="M484.59,279.63c0.21,1.63,0.7,3.98,2.03,6.45c2.09,3.88,4.75,5.25,4.27,6.78
								c-0.44,1.41-3.31,2.32-5.03,1.42C483.22,292.89,482.87,287.03,484.59,279.63z"/>
						</g>
						<g>
							<path class="st20" d="M478.57,259.21c-10.26,1.96-14.64,6.12-16.72,9.69c-4.3,7.4-0.01,14.52-5.37,19.66
								c-3.5,3.35-9.83,4.62-13.38,2.01c-1.35-0.99-2.44-2.6-3.02-5.04c-1.28-5.34-2.96-18.46,5.92-26.68
								C454.28,251.18,468.22,250.91,478.57,259.21z"/>
						</g>
						<g>
							<path class="st21" d="M491.47,280.18c0.31,1.28,1.06,2.2,1.69,2.05c0.62-0.15,0.88-1.3,0.57-2.59
								c-0.31-1.28-1.06-2.2-1.69-2.05C491.42,277.74,491.16,278.9,491.47,280.18z"/>
						</g>
						<g>
							<path class="st21" d="M473.45,284.43c0.31,1.28,1.06,2.2,1.69,2.05c0.62-0.15,0.88-1.3,0.57-2.59
								c-0.31-1.28-1.06-2.2-1.69-2.05C473.4,281.99,473.14,283.15,473.45,284.43z"/>
						</g>
						<g>
							<path class="st0" d="M481.34,298.79c0,0,5.02,2.26,11.38,0.77c0,0-0.28,3.51-4.52,4.51
								C483.96,305.07,481.34,298.79,481.34,298.79z"/>
						</g>
						<g>
							<path class="st21" d="M478.67,273.59c-3.12,0.33-5.45,1.19-7,1.9c-3.32,1.54-5.44,3.56-5.23,4.16
								c0.1,0.28,0.32,0.45,0.46,0.55c0,0,0.24,0.18,0.55,0.26c0.78,0.2,4.13-1.9,4.78-2.29c3.43-2.05,6.31-0.87,6.88-2.51
								C479.25,275.27,479.28,274.62,478.67,273.59z"/>
						</g>
						<g>
							<path class="st21" d="M485.03,271.6c2.93-1.11,5.4-1.4,7.1-1.47c3.66-0.13,6.48,0.71,6.57,1.34c0.04,0.29-0.08,0.54-0.15,0.7
								c0,0-0.13,0.27-0.37,0.48c-0.6,0.53-4.55,0.18-5.3,0.12c-4-0.27-6.02,2.08-7.28,0.88
								C485.29,273.36,484.96,272.8,485.03,271.6z"/>
						</g>
						<g>
							<path class="st20" d="M465.07,251.7c0,0,15.46,20.87,31.82,11.51c16.36-9.35-1.11-40.73-21.84-26.12
								C454.32,251.71,465.07,251.7,465.07,251.7z"/>
						</g>
						<g>
							<polygon class="st20" points="459.07,271.12 465.67,294.73 462.1,295.47 452.59,274.87 							"/>
						</g>
						<g>
							<path class="st20" d="M489.46,265.21c2.06,0.58,4.25,0.64,6.38,0.32c2.13-0.37,4.2-1.18,6.03-2.39
								c3.67-2.4,6.32-6.54,6.76-11.12c0.35-4.58-1.44-9.2-4.55-12.41c-1.56-1.6-3.4-2.9-5.41-3.77c-2.02-0.82-4.17-1.28-6.29-1.21
								l0,0.1c4.2,0.23,8.3,2.2,11.15,5.4c2.87,3.15,4.53,7.51,4.14,11.78c-0.34,4.28-2.81,8.18-6.23,10.58
								c-3.42,2.44-7.82,3.38-11.96,2.6L489.46,265.21z"/>
						</g>
						<g>
							<path class="st20" d="M457.72,245.52c-1.68-1.14-3.43-2.03-5.25-2.77c-1.82-0.74-3.71-1.28-5.63-1.63
								c-0.96-0.2-1.93-0.27-2.89-0.37c-0.97-0.01-1.94-0.1-2.9,0c-1.94,0.06-3.83,0.51-5.67,1.03c1.87-0.44,3.76-0.81,5.69-0.78
								c0.96-0.06,1.91,0.07,2.87,0.12c0.95,0.14,1.9,0.25,2.83,0.49c1.87,0.42,3.7,1.03,5.45,1.83c1.74,0.79,3.45,1.76,4.95,2.88
								L457.72,245.52z"/>
						</g>
						<g>
							<path class="st20" d="M455.84,246.13c-0.62-1.22-1.32-2.34-2.09-3.43c-0.77-1.08-1.61-2.12-2.53-3.07
								c-0.93-0.94-1.94-1.8-3.03-2.54c-1.11-0.7-2.31-1.25-3.56-1.58c1.23,0.42,2.38,1.03,3.42,1.79c1.03,0.79,1.96,1.69,2.81,2.67
								c0.84,0.99,1.6,2.05,2.28,3.15c0.68,1.1,1.31,2.26,1.81,3.42L455.84,246.13z"/>
						</g>
						<g>
							<path class="st13" d="M679.98,686.1l48.08-4.27c1.32-1.26,1.19-3.05,1.17-3.24c-0.17-1.91-1.57-2.87-1.73-2.98
								c-0.69,0.05-1.36,0.09-2.04,0.14c0.6-1.47,0.51-2.49,0.36-3.11c-1.64-6.66-20.38-9.11-24.65-10.71
								c-0.51-0.19-1.03-0.39-1.58-0.57c-0.75-0.27-1.55-0.53-2.36-0.83c-1.52-0.49-3.14-1.02-4.91-1.58
								c-0.44-0.15-0.88-0.3-1.34-0.43c-0.75-0.26-1.53-0.52-2.34-0.79c-2.89,4.65-6.56,12.03-8.03,21.2
								c-0.05,0.29-0.11,0.58-0.13,0.88C680.2,681.82,680.01,683.93,679.98,686.1z"/>
						</g>
						<g>
							<path class="st13" d="M641.66,689.5l86.41-7.68c1.32-1.26,1.19-3.05,1.17-3.24c-0.17-1.91-1.57-2.87-1.73-2.98
								c-0.69,0.05-1.36,0.09-2.04,0.14c-14.94,1.07-29.89,2.13-44.83,3.18c-12.8,0.91-25.6,1.81-38.4,2.72
								c-0.42,0.02-0.84,0.06-1.27,0.09c-0.32,0.42-1.09,1.57-1.16,3.24C639.69,687.58,641.41,689.27,641.66,689.5z"/>
						</g>
						<g>
							<path class="st16" d="M501.92,291.11c0.93-0.29,1.83-0.73,2.65-1.31c2.19-1.53,3.66-3.85,4.13-6.53
								c0.47-2.68-0.11-5.41-1.64-7.67c-1.53-2.27-3.82-3.8-6.45-4.33c-2.63-0.52-5.29,0.03-7.48,1.56
								c-2.19,1.53-3.66,3.85-4.13,6.53c-0.97,5.54,2.66,10.92,8.09,12C498.74,291.68,500.38,291.59,501.92,291.11z M496.09,272.47
								c1.39-0.44,2.88-0.52,4.36-0.23c4.9,0.97,8.18,5.84,7.3,10.84c-0.42,2.42-1.75,4.52-3.73,5.89
								c-1.98,1.38-4.38,1.88-6.75,1.41c-4.9-0.97-8.18-5.84-7.3-10.84l0,0c0.42-2.42,1.75-4.52,3.73-5.89
								C494.44,273.13,495.25,272.73,496.09,272.47z"/>
						</g>
						<g>
							<path class="st16" d="M479.21,298.24c3.41-1.07,6.12-3.99,6.79-7.83c0.97-5.54-2.66-10.92-8.09-12
								c-5.43-1.08-10.64,2.55-11.61,8.09l0,0c-0.97,5.54,2.66,10.92,8.09,12C476.06,298.82,477.71,298.71,479.21,298.24z
								 M473.39,279.61c1.36-0.43,2.85-0.53,4.35-0.23c4.9,0.97,8.18,5.84,7.3,10.84c-0.88,5-5.58,8.28-10.48,7.3
								c-4.9-0.97-8.18-5.84-7.31-10.84C467.87,283.22,470.31,280.58,473.39,279.61z"/>
						</g>
						<g class="st17">
							<path class="st0" d="M675.68,647.92l0.96-0.09c-0.14-1.41-13.6-140.82-17.76-158.01c-3.81-15.75-8.83-31.01-24.35-29.63
								c-5.08,0.45-21.14,2.79-39.73,5.51c-33.83,4.93-80.17,11.69-86.19,10.74l-0.14,0.98c6.16,0.97,50.69-5.52,86.47-10.74
								c18.58-2.71,34.62-5.05,39.68-5.5c13.38-1.19,18.68,9.69,23.33,28.88C662.09,507.18,675.55,646.52,675.68,647.92z"/>
						</g>
						<g>
							<path class="st19" d="M446.95,383.15c3.1,10.12,6.29,20.32,9.57,30.62c7.69,24.09,15.55,47.49,23.5,70.2
								c19.21-4.4,39.59-9.75,60.94-16.33c20.7-6.38,40.03-13.19,57.94-20.16c-6.28-10.16-12.56-20.31-18.84-30.48
								c-12.69,0.79-27,1.81-42,3.15c-50.04,4.45-76.28-54.55-76.28-54.55L446.95,383.15z"/>
						</g>
						<g>
							<path class="st15" d="M652.23,310.24c-4.57,7.76-33.17,56.03-48.59,68.44c-4.63,3.72-7.95,4.13-10.14,3.86
								c-6.28-0.77-11.16-8.05-12.27-14.4c-1.3-7.43,2.48-13.92,6.06-18.95c14.65-20.63,41.91-39.41,53.05-46.73
								C644.31,305.05,648.27,307.65,652.23,310.24z"/>
						</g>
						<g>
							<path class="st19" d="M549.76,329.58c15.37,11.28,27.3,21.93,27.3,21.93s5.56,24.38,7.26,30.66l18.14,3.71l-15.94-39.22
								C579.37,342.61,559.25,333.05,549.76,329.58z"/>
						</g>
						<g>
							<path class="st16" d="M489.6,282.39l0.03-0.99c-0.17-0.01-4.25-0.16-6.12,1.78l0.7,0.7
								C485.78,282.25,489.56,282.39,489.6,282.39z"/>
						</g>
						<g>
							<polygon class="st16" points="466.53,288.91 466.75,287.94 449.95,283.61 449.73,284.57 							"/>
						</g>
						<g>
							<path class="st15" d="M459.02,288.67c0.58,0.73,1.32,1.8,1.96,3.21c1.02,2.25,1.23,4.12,1.39,5.8
								c0.26,2.69,0.54,5.46-0.87,6.33c-0.4,0.25-0.82,0.28-1.13,0.27c-1-0.35-14.57-5.31-15.46-14.73c-0.05-0.56-0.43-5.05,2-6.6
								C449.45,281.33,454.5,283.33,459.02,288.67z"/>
						</g>
						<g>
							<path class="st12" d="M460.97,296.79c0.02,0.25,0.06,0.49,0.08,0.73c0.13,1.65,0.05,3.08-0.1,4.18
								c-0.78,0.05-2.1,0.05-3.67-0.36c-6.93-1.82-12.28-10.21-10.54-13.75c0.34-0.69,0.9-1.02,1.3-1.26
								c1.07-0.65,2.33-0.72,3.58-0.5c0.59,0.11,1.16,0.28,1.72,0.49c1.23,0.46,2.35,1.13,3.15,1.73c0.83,0.64,2.26,1.89,3.37,4.11
								C460.29,293.32,460.74,294.89,460.97,296.79z"/>
						</g>
						<g>
							<path class="st14" d="M460.97,296.79c0.02,0.25,0.06,0.49,0.08,0.73c-6.87-5.35-8.09-8.97-7.71-11.2
								c1.23,0.46,2.35,1.13,3.15,1.73c0.83,0.64,2.26,1.89,3.37,4.11C460.29,293.32,460.74,294.89,460.97,296.79z"/>
						</g>
						<g class="st17">
							<path class="st0" d="M661.37,648.8l0.95-0.18c-12.13-66.94-18.85-106.1-20.53-119.71c-0.53-4.32-1.96-10.96-4.81-24.17
								c-2.28-10.6-3.12-13.57-5.52-16.13c-6.83-7.28-19.94-4.67-26.98-3.27l-0.29,0.06c-12.48,2.16-23.55,3.71-35.11,5.06
								c-12.17,1.43-24.76,2.9-36.96,5.44c-18.65,3.87-25.24,5.7-44.78,7.93l0.26,0.88c19.57-2.24,26.05-3.96,44.72-7.83
								c12.16-2.52,24.73-4,36.88-5.42c11.58-1.36,23.56-2.76,35.19-5.08l0.29-0.06c6.86-1.37,19.63-3.91,26.09,2.98
								c2.22,2.37,3.03,5.27,5.27,15.65c2.84,13.18,4.26,19.8,4.79,24.08C642.52,542.66,649.23,581.84,661.37,648.8z"/>
						</g>
						<g>
							<g>
								<g>
									<polygon class="st22" points="660.02,238.85 664.64,288.66 641.43,288.83 636.81,239.03 									"/>
								</g>
								<g>
									<path class="st18" d="M659.96,245.67l3.33,35.89c0.26,2.79-1.78,5.08-4.55,5.1l-11.78,0.09c-2.77,0.02-5.23-2.23-5.49-5.02
										l-3.33-35.9c-0.26-2.79,1.78-5.08,4.55-5.1l11.78-0.09C657.24,240.63,659.7,242.88,659.96,245.67z"/>
								</g>
								<g>
									<path class="st9" d="M649.93,255.59c4.7-0.03,8.86,3.77,9.3,8.51c0.44,4.73-3.01,8.6-7.71,8.63
										c-4.7,0.03-8.86-3.77-9.3-8.51C641.78,259.49,645.23,255.62,649.93,255.59z"/>
								</g>
								<g>
									<g>
										<g>
											<g>
												<path class="st0" d="M651.37,260.45c-0.38,0.16-0.7,0.38-0.95,0.67c-0.26,0.29-0.47,0.66-0.62,1.12
													c-0.08,0.24-0.18,0.73-0.29,1.46l-4.18,0.03c0.05-0.48,0.22-0.85,0.5-1.13c0.28-0.28,0.7-0.46,1.26-0.55l-0.37-1.51
													c-0.91,0.14-1.59,0.53-2.06,1.17c-0.37,0.5-0.55,1.18-0.55,2.03l-0.69,0.01l0.08,0.86l0.69-0.01
													c0.19,0.97,0.52,1.7,0.99,2.19c0.71,0.73,1.58,1.09,2.61,1.09c0.58,0,1.09-0.13,1.52-0.39
													c0.43-0.25,0.76-0.62,0.97-1.08c0.29-0.63,0.46-1.25,0.52-1.85l4.62-0.03c-0.01,0.57-0.25,1.07-0.72,1.48
													c-0.34,0.29-0.89,0.49-1.66,0.61l0.41,1.47c0.75-0.06,1.37-0.26,1.86-0.59c0.49-0.34,0.83-0.73,1.02-1.19
													c0.19-0.46,0.3-1.05,0.32-1.79l1.45-0.01l-0.08-0.86l-1.47,0.01c-0.14-1.02-0.58-1.85-1.31-2.49
													c-0.73-0.64-1.6-0.96-2.6-0.95C652.17,260.21,651.75,260.29,651.37,260.45z M649.4,264.57
													c-0.14,0.67-0.36,1.14-0.67,1.42c-0.31,0.28-0.71,0.42-1.2,0.43c-0.5,0-0.95-0.16-1.34-0.48
													c-0.4-0.32-0.66-0.77-0.8-1.34L649.4,264.57z M654.47,262.26c0.45,0.37,0.74,0.84,0.86,1.4l-4.42,0.03
													c0.18-0.79,0.42-1.31,0.71-1.58c0.3-0.27,0.71-0.4,1.23-0.4C653.48,261.71,654.01,261.89,654.47,262.26z"/>
											</g>
										</g>
									</g>
								</g>
								<g>
									<g>
										<path class="st23" d="M652.01,278.07c1.75-0.01,3.3,1.41,3.47,3.17c0.16,1.77-1.12,3.21-2.88,3.22
											c-1.75,0.01-3.3-1.41-3.47-3.17C648.97,279.52,650.26,278.08,652.01,278.07z"/>
									</g>
								</g>
								<g>
									<g>
										<path class="st23" d="M648.97,244.91c1.75-0.01,3.3,1.41,3.47,3.17c0.16,1.77-1.12,3.21-2.88,3.22
											c-1.75,0.01-3.3-1.41-3.47-3.17C645.93,246.37,647.22,244.92,648.97,244.91z"/>
									</g>
								</g>
							</g>
							<g>
								<g>
									<polygon class="st22" points="665.85,237.48 667.93,287.24 644.64,286.22 642.56,236.46 									"/>
								</g>
								<g>
									<path class="st18" d="M665.44,244.26l1.5,35.86c0.12,2.79-2.04,4.95-4.83,4.83l-11.82-0.52c-2.78-0.12-5.13-2.48-5.25-5.28
										l-1.5-35.86c-0.12-2.79,2.04-4.96,4.83-4.83l11.82,0.52C662.97,239.11,665.32,241.47,665.44,244.26z"/>
								</g>
								<g>

										<ellipse transform="matrix(0.7218 -0.6921 0.6921 0.7218 0.8548 526.4527)" class="st9" cx="655.23" cy="262.16" rx="8.18" ry="8.91"/>
								</g>
								<g>
									<g>
										<g>
											<g>
												<path class="st0" d="M656.07,258.51c-0.39,0.14-0.72,0.34-0.99,0.62c-0.27,0.27-0.5,0.63-0.68,1.08
													c-0.09,0.23-0.21,0.71-0.37,1.44l-4.2-0.18c0.08-0.47,0.26-0.84,0.56-1.1c0.29-0.26,0.72-0.42,1.29-0.48l-0.29-1.52
													c-0.92,0.09-1.63,0.44-2.13,1.06c-0.39,0.48-0.61,1.14-0.66,1.99l-0.69-0.03l0.04,0.86l0.69,0.03
													c0.14,0.97,0.43,1.71,0.88,2.23c0.67,0.76,1.53,1.17,2.56,1.21c0.58,0.03,1.1-0.08,1.55-0.31
													c0.45-0.23,0.79-0.57,1.03-1.03c0.32-0.61,0.53-1.22,0.62-1.81l4.63,0.2c-0.04,0.57-0.3,1.05-0.8,1.44
													c-0.35,0.27-0.92,0.45-1.7,0.52l0.34,1.48c0.75-0.02,1.38-0.19,1.89-0.5c0.51-0.31,0.87-0.69,1.09-1.13
													c0.22-0.45,0.35-1.03,0.41-1.76l1.46,0.06l-0.04-0.86l-1.47-0.06c-0.09-1.02-0.49-1.87-1.19-2.55
													c-0.7-0.67-1.55-1.03-2.56-1.08C656.88,258.31,656.46,258.37,656.07,258.51z M653.88,262.5
													c-0.17,0.66-0.42,1.12-0.74,1.38c-0.32,0.26-0.73,0.38-1.23,0.36c-0.5-0.02-0.94-0.2-1.32-0.55
													c-0.38-0.34-0.63-0.8-0.74-1.37L653.88,262.5z M659.08,260.46c0.44,0.39,0.7,0.87,0.79,1.44l-4.43-0.2
													c0.22-0.77,0.49-1.28,0.8-1.53c0.31-0.25,0.73-0.36,1.26-0.34C658.12,259.87,658.65,260.07,659.08,260.46z"/>
											</g>
										</g>
									</g>
								</g>
								<g>
									<g>
										<path class="st23" d="M655.81,276.06c1.76,0.08,3.24,1.57,3.32,3.33c0.07,1.76-1.29,3.13-3.05,3.05
											c-1.76-0.08-3.24-1.57-3.32-3.33C652.68,277.35,654.05,275.98,655.81,276.06z"/>
									</g>
								</g>
								<g>
									<g>
										<path class="st23" d="M654.46,242.93c1.76,0.08,3.24,1.57,3.32,3.33c0.07,1.76-1.29,3.13-3.05,3.05
											c-1.76-0.08-3.24-1.57-3.32-3.33C651.33,244.22,652.7,242.86,654.46,242.93z"/>
									</g>
								</g>
							</g>
							<g>
								<g>
									<polygon class="st22" points="680.35,232.86 672.74,281.25 649.71,275.69 657.32,227.31 									"/>
								</g>
								<g>
									<path class="st18" d="M678.62,239.32l-5.49,34.87c-0.43,2.71-3,4.38-5.75,3.71l-11.69-2.82c-2.75-0.66-4.64-3.4-4.21-6.12
										l5.49-34.87c0.43-2.71,3-4.38,5.75-3.71l11.69,2.82C677.16,233.86,679.05,236.6,678.62,239.32z"/>
								</g>
								<g>
									<path class="st9" d="M666.26,246.25c4.66,1.12,7.85,5.76,7.13,10.36c-0.72,4.6-5.09,7.41-9.75,6.29
										c-4.66-1.12-7.85-5.76-7.13-10.36C657.23,247.94,661.6,245.13,666.26,246.25z"/>
								</g>
								<g>
									<g>
										<g>
											<g>
												<path class="st0" d="M666.5,251.22c-0.41,0.06-0.78,0.19-1.11,0.4c-0.33,0.21-0.62,0.51-0.89,0.91
													c-0.14,0.21-0.35,0.65-0.65,1.32l-4.15-1c0.17-0.44,0.43-0.76,0.77-0.95c0.34-0.19,0.8-0.26,1.38-0.21l0.01-1.52
													c-0.93-0.09-1.71,0.11-2.33,0.6c-0.49,0.39-0.83,0.98-1.04,1.79l-0.69-0.17l-0.13,0.84l0.69,0.17
													c-0.05,0.96,0.1,1.74,0.45,2.32c0.52,0.87,1.3,1.43,2.32,1.67c0.58,0.14,1.11,0.14,1.6,0.01
													c0.49-0.13,0.9-0.4,1.23-0.79c0.44-0.53,0.77-1.07,0.97-1.63l4.58,1.11c-0.15,0.54-0.51,0.95-1.08,1.23
													c-0.41,0.19-1.01,0.25-1.8,0.17l0.05,1.49c0.76,0.13,1.42,0.09,1.98-0.11c0.57-0.2,1-0.49,1.3-0.88
													c0.3-0.39,0.55-0.93,0.76-1.62l1.44,0.35l0.13-0.84l-1.46-0.35c0.11-1.01-0.12-1.9-0.69-2.69
													c-0.57-0.79-1.35-1.3-2.35-1.54C667.35,251.19,666.92,251.16,666.5,251.22z M663.54,254.64c-0.3,0.6-0.64,1-1.01,1.19
													c-0.37,0.19-0.81,0.23-1.3,0.11c-0.5-0.12-0.9-0.38-1.21-0.79c-0.31-0.41-0.47-0.89-0.47-1.47L663.54,254.64z
													 M669.13,253.69c0.36,0.46,0.53,0.98,0.51,1.54l-4.38-1.06c0.37-0.7,0.74-1.14,1.09-1.32c0.36-0.18,0.8-0.21,1.32-0.08
													C668.28,252.93,668.77,253.23,669.13,253.69z"/>
											</g>
										</g>
									</g>
								</g>
								<g>
									<g>
										<path class="st23" d="M662.82,268.09c1.74,0.42,2.93,2.15,2.66,3.86c-0.27,1.71-1.9,2.77-3.64,2.35
											c-1.74-0.42-2.93-2.15-2.66-3.86C659.46,268.72,661.08,267.67,662.82,268.09z"/>
									</g>
								</g>
								<g>
									<g>
										<path class="st23" d="M667.92,235.89c1.74,0.42,2.93,2.15,2.66,3.86c-0.27,1.71-1.9,2.77-3.64,2.35
											c-1.74-0.42-2.93-2.15-2.66-3.86C664.56,236.52,666.19,235.47,667.92,235.89z"/>
									</g>
								</g>
							</g>
							<g>
								<g>
									<polygon class="st22" points="640.48,239.44 665.55,284.42 645.43,294.46 620.36,249.48 									"/>
								</g>
								<g>
									<path class="st18" d="M643.3,245.89l18.07,32.42c1.41,2.52,0.6,5.54-1.8,6.74l-10.21,5.1c-2.4,1.2-5.49,0.13-6.9-2.4
										l-18.07-32.42c-1.41-2.52-0.6-5.54,1.8-6.74l10.21-5.1C638.81,242.3,641.9,243.37,643.3,245.89z"/>
								</g>
								<g>
									<path class="st9" d="M638.77,259.51c4.07-2.03,9.3-0.21,11.68,4.06s1.01,9.39-3.06,11.42c-4.07,2.03-9.3,0.21-11.68-4.06
										C633.33,266.66,634.7,261.54,638.77,259.51z"/>
								</g>
								<g>
									<g>
										<g>
											<g>
												<path class="st0" d="M642.08,263.48c-0.26,0.31-0.44,0.65-0.55,1.04c-0.1,0.38-0.13,0.82-0.07,1.32
													c0.03,0.26,0.15,0.76,0.37,1.5l-3.63,1.81c-0.16-0.47-0.17-0.9-0.04-1.28c0.13-0.38,0.41-0.73,0.86-1.05l-0.96-1.27
													c-0.73,0.51-1.16,1.17-1.3,1.98c-0.11,0.63,0.02,1.34,0.38,2.15l-0.6,0.3l0.43,0.78l0.6-0.3
													c0.57,0.83,1.17,1.38,1.79,1.64c0.92,0.39,1.83,0.36,2.73-0.09c0.5-0.25,0.89-0.59,1.16-1.01
													c0.27-0.42,0.4-0.9,0.39-1.44c-0.01-0.72-0.12-1.37-0.33-1.96l4-2c0.24,0.54,0.24,1.11,0,1.71
													c-0.17,0.42-0.57,0.85-1.19,1.29l0.98,1.21c0.63-0.37,1.08-0.82,1.36-1.35c0.29-0.53,0.41-1.05,0.38-1.56
													c-0.03-0.51-0.19-1.12-0.48-1.82l1.26-0.63l-0.43-0.78l-1.27,0.63c-0.56-0.9-1.29-1.5-2.2-1.79
													c-0.91-0.29-1.79-0.22-2.67,0.22C642.67,262.91,642.34,263.17,642.08,263.48z M642.11,268.19
													c0.16,0.69,0.17,1.23,0.02,1.63c-0.15,0.4-0.44,0.7-0.87,0.92c-0.43,0.22-0.89,0.26-1.37,0.12
													c-0.48-0.14-0.9-0.44-1.26-0.92L642.11,268.19z M645.54,263.86c0.55,0.15,1,0.47,1.34,0.96l-3.83,1.91
													c-0.18-0.82-0.19-1.42-0.05-1.79c0.15-0.38,0.45-0.68,0.9-0.91C644.44,263.76,644.99,263.71,645.54,263.86z"/>
											</g>
										</g>
									</g>
								</g>
								<g>
									<g>
										<path class="st23" d="M650.08,279.81c1.52-0.76,3.47-0.08,4.36,1.51c0.89,1.59,0.38,3.5-1.14,4.26
											c-1.52,0.76-3.47,0.08-4.36-1.51C648.05,282.48,648.56,280.57,650.08,279.81z"/>
									</g>
								</g>
								<g>
									<g>
										<path class="st23" d="M633.42,249.85c1.52-0.76,3.47-0.08,4.36,1.51c0.89,1.59,0.38,3.5-1.14,4.26
											c-1.52,0.76-3.47,0.08-4.36-1.51S631.9,250.61,633.42,249.85z"/>
									</g>
								</g>
							</g>
							<g>
								<g>
									<polygon class="st22" points="654.59,242.66 674.45,289.84 653.09,297.33 633.23,250.15 									"/>
								</g>
								<g>
									<path class="st18" d="M656.66,249.34l14.32,34c1.11,2.65-0.05,5.52-2.6,6.41l-10.84,3.8c-2.55,0.9-5.52-0.53-6.64-3.17
										l-14.32-34c-1.11-2.65,0.05-5.52,2.6-6.41l10.84-3.8C652.58,245.27,655.55,246.69,656.66,249.34z"/>
								</g>
								<g>
									<path class="st9" d="M650.52,262.19c4.32-1.52,9.36,0.89,11.24,5.37c1.89,4.48-0.09,9.35-4.41,10.86
										c-4.32,1.52-9.36-0.89-11.24-5.37C644.22,268.57,646.19,263.7,650.52,262.19z"/>
								</g>
								<g>
									<g>
										<g>
											<g>
												<path class="st0" d="M653.38,266.48c-0.3,0.27-0.52,0.59-0.67,0.95c-0.15,0.36-0.22,0.79-0.22,1.29
													c0,0.26,0.06,0.77,0.19,1.52l-3.85,1.35c-0.1-0.48-0.07-0.9,0.1-1.26c0.17-0.36,0.5-0.67,0.99-0.93l-0.81-1.36
													c-0.79,0.42-1.31,1.02-1.54,1.79c-0.18,0.61-0.14,1.32,0.12,2.15l-0.64,0.22l0.34,0.82l0.64-0.22
													c0.48,0.89,1.01,1.49,1.6,1.82c0.88,0.49,1.8,0.57,2.75,0.24c0.53-0.19,0.96-0.47,1.28-0.86
													c0.32-0.39,0.51-0.84,0.56-1.37c0.07-0.71,0.04-1.36-0.1-1.97l4.25-1.49c0.17,0.56,0.11,1.12-0.2,1.68
													c-0.22,0.39-0.67,0.76-1.34,1.12l0.84,1.3c0.67-0.29,1.18-0.68,1.53-1.17c0.35-0.48,0.54-0.98,0.57-1.49
													c0.03-0.51-0.05-1.12-0.26-1.85l1.34-0.47l-0.34-0.82l-1.35,0.47c-0.45-0.95-1.12-1.63-1.99-2.02
													c-0.88-0.39-1.77-0.43-2.7-0.1C654.03,265.99,653.68,266.21,653.38,266.48z M652.84,271.12
													c0.08,0.69,0.03,1.23-0.17,1.6c-0.2,0.37-0.52,0.64-0.98,0.8c-0.46,0.16-0.92,0.15-1.39-0.05
													c-0.47-0.19-0.85-0.54-1.16-1.06L652.84,271.12z M656.8,267.26c0.53,0.22,0.95,0.58,1.24,1.1l-4.06,1.43
													c-0.08-0.83-0.03-1.41,0.16-1.77c0.19-0.35,0.53-0.61,1.01-0.78C655.71,267.04,656.26,267.05,656.8,267.26z"/>
											</g>
										</g>
									</g>
								</g>
								<g>
									<g>
										<path class="st23" d="M659.48,283.48c1.61-0.57,3.49,0.33,4.19,2c0.7,1.67-0.03,3.49-1.64,4.05
											c-1.61,0.57-3.49-0.33-4.19-2S657.87,284.05,659.48,283.48z"/>
									</g>
								</g>
								<g>
									<g>
										<path class="st23" d="M646.29,252.06c1.61-0.57,3.49,0.33,4.19,2c0.7,1.67-0.03,3.49-1.64,4.05
											c-1.61,0.57-3.49-0.33-4.19-2C643.94,254.44,644.68,252.63,646.29,252.06z"/>
									</g>
								</g>
							</g>
						</g>
						<g>
							<path class="st15" d="M648.98,313.73c6.16-5.24,12.31-10.49,18.47-15.73c1.97-0.95,3.26-2.84,3.37-4.96l1.49-27.08
								c0.08-1.53-4.6-3.3-4.76-0.25c-0.17,3.05-2.68,19.74-2.68,19.74s-2.42-13.89-4.01-13.97c-1.59-0.08-15.97,0.7-16.05,2.23
								c-0.08,1.53,2.92,4.74,6.18,3.38c3.26-1.36,6.35,0.33,6.35,0.33l1.08,9.23l-2.67-9.31c-0.95-0.03-2.47-0.04-4.32,0.15
								c-3.05,0.31-6.39,0.64-6.97,2.33c-0.31,0.91,0.31,1.84,0.45,2.05c1.14,1.71,4.08,2.3,7.32,1.41
								c0.43,2.58,0.85,5.15,1.28,7.73c-0.18-2.74-0.36-5.47-0.55-8.21c-2.01-0.49-5.47-0.99-8.55,0.52
								c-0.87,0.43-2.4,1.17-2.5,2.43c-0.06,0.7,0.33,1.55,1.02,1.93c0.89,0.49,1.73-0.14,4.28-0.06c0.32,0.01,0.57,0.03,0.75,0.04
								c-1.58,3.34-3.15,6.69-4.73,10.06c-1.19,2.53-1.95,3.36-3.27,4.99C643.08,305.51,645.89,310.92,648.98,313.73z"/>
						</g>
					</g>
					<path class="st9" d="M605.53,639.25c-2.56-14.48-3.3-29.35-8.09-43.43c-3.29-9.67-8.6-18.48-12.49-27.9
						c-2.47-6,13.89-20.15,11.24-20.07c-9.04,0.27-34.47-1.18-38.5-1.93c-26.63-4.96-40.76-18.33-45.71-23.86
						c-10.14-11.34-9.03-17.99-24.92-50.52c-12.2-24.99-21.34-40.56-32.96-58.51c-19.68-30.4-25.79-37.34-32.77-62.42
						c-4.03-14.48-7.59-27.27-2.65-32.11c5.97-5.85,16.08-21.47,3.43-31.23c-8.74-6.74-6.63-32.11-17.21-25.92
						c-7.9,4.62-15.41,15.34-16.68,18.98c-20.19,57.62-64.09,185.22-60.37,269.72c0.74,16.8,5.06,32.47,30.99,53.64
						c21.16,17.27,46.93,27.84,76.92,36.23c10.73,3,16.58,10.47,66.05,15.34c4,0.39,56.1,1.24,104.53-7.02
						C605.85,645.31,605.63,642.3,605.53,639.25z"/>
					<path class="st10" d="M497.76,653.17c0.8-1.89-27.1-4.44-42.48-24.69c-9.36-12.32-11.66-32.8-19.75-83.53
						c-3.12-19.52-4.96-8.4-15.12-79.82c-5.22-36.67-9.34-50.6-11.51-59.37c-10.67-43.14-10.54-44.23-13.61-65.9
						c-3.26-23.01-4.27-27.87-2.75-53.15c0.32-5.28,1.33-14.02-0.94-12.26c-3.22,2.48-43.1,88.14-55.65,170.56
						c-7.82,51.36-8.2,110.69-7.78,115.15C334.55,626.89,495.21,659.18,497.76,653.17z"/>
					<path class="st24" d="M527.58,571.44c3.51-5.34-37.22-27.79-49.05-71.67c-7.57-28.08-15.1-48.78-19.12-57.13
						c-4.61-9.57-29.43-46.57-31.06-45.38c-1.98,1.45,21.08,35.89,28.21,60.64c4.16,14.43,5.72,24.18,11.55,47.94
						c4.25,17.33,6.38,26,8.62,30.72C490.1,564.73,524.36,576.34,527.58,571.44z"/>
					<g>
						<path class="st15" d="M428.64,398.51c2.87,8.73,7.36,19.73,14.49,31.45c7.91,13,16.49,22.62,23.4,29.29
							c7.83-0.4,16.01-1.1,24.5-2.18c25.07-3.18,47.27-8.93,66.2-15.43c-1.34-5.34-2.68-10.67-4.02-16.01
							c-23.84-0.15-47.68-0.31-71.51-0.46c-12.51-18.89-25.02-37.79-37.53-56.68C438.98,378.5,433.81,388.51,428.64,398.51z"/>
					</g>
					<g>
						<path class="st18" d="M439.17,344.39c0,0-12.63,5.21-14.19,14.89c-3.1,19.3-1.91,40.59,5.9,66.31
							c1.87,6.17,3.66,11.18,4.92,14.57c6.19-0.1,16.16-1.15,27.19-6.51c8.8-4.28,15.17-9.79,19.28-13.99
							c-3.26-14.56-7.18-26.25-10.32-34.55c-10.24-27.07-18.07-33.4-22.53-36.19C446.22,346.93,441.04,344.96,439.17,344.39z"/>
					</g>
					<g>
						<g>
							<g>
								<g>
									<g>
										<path class="st21" d="M695.31,372.26l-12.35,66.82c-0.06,0.32-0.25,0.55-0.48,0.6l-84.37,16.05
											c-0.51,0.1-0.96-0.64-0.81-1.32l15.13-67.35c0.07-0.3,0.25-0.51,0.47-0.55l81.59-15.52
											C694.98,370.89,695.43,371.59,695.31,372.26z"/>
									</g>
								</g>
							</g>
						</g>
						<g>
							<g>
								<g>
									<g>
										<polygon class="st21" points="556.93,463.55 557.79,456.59 566.17,455 568.57,461.7 										"/>
									</g>
								</g>
							</g>
						</g>
						<g>
							<g>
								<g>
									<g>
										<polygon class="st21" points="567.19,461.66 568.06,454.7 576.44,453.1 578.84,459.8 										"/>
									</g>
								</g>
							</g>
						</g>
						<g>
							<g>
								<g>
									<g>
										<polygon class="st21" points="577.92,459.62 578.78,452.66 587.16,451.06 589.56,457.77 										"/>
									</g>
								</g>
							</g>
						</g>
						<g>
							<g>
								<g>
									<g>
										<polygon class="st21" points="588.33,457.64 589.2,450.68 597.57,449.08 599.97,455.78 										"/>
									</g>
								</g>
							</g>
						</g>
						<g>
							<g>
								<g>
									<g>
										<polygon class="st21" points="684.39,447.63 554.35,472.36 552.67,462.9 682.71,438.17 										"/>
									</g>
								</g>
							</g>
						</g>
					</g>
					<g>
						<path class="st15" d="M590.28,438.18c-2.83-1.22-5.62-2.75-5.62-2.75c-3.4-0.57-6.79-1.16-10.18-1.73l9.01,4.96
							c5.1,5.65,8.35,10.44,8.17,12.23c-0.1,1.03-0.59,1.61-0.59,1.61c-0.54,0.63-1.4,0.89-2.09,0.79
							c-1.62-0.24-2.26-2.47-4.38-5.31c-0.84-1.12-2.1-2.59-3.92-4.09l-9.01-4.96c2.15,1.51,4.31,3.01,6.47,4.52
							c2.52,4.03,4.41,6.95,5.76,8.97c0.81,1.23,1.74,2.6,1.38,3.66c-0.35,1.04-1.86,1.59-3.13,1.18c-1.69-0.55-2.12-2.5-4.84-6.53
							c-0.95-1.41-1.82-2.52-2.42-3.26c-2.85-1.25-5.7-2.49-8.55-3.74l7.51,4.13c1.7,3.05,2.74,6.51,4.71,9.36
							c0.13,0.18,0.45,0.64,0.46,1.22c0.01,1.04-1.04,1.87-1.63,2c-2.28,0.52-6.17-7.29-6.8-8.57c-5.24-1.27-10.49-2.55-15.73-3.82
							c-5.82-3.84-11.62-7.69-17.44-11.53c1.87-3.49,3.73-6.97,5.6-10.45c6.17-0.47,12.36-0.93,18.53-1.41l24.87,5.95
							c0,0,3.12,1.29,5.78,2.75C592.19,433.34,594.52,437.28,590.28,438.18z"/>
					</g>
				</g>
			</g>
		</g>
	</g>
	<g class="st2">
		<g>
			<g class="st25">
				<path class="st15" d="M353.34,609.43c10.89-19.06,20.95-32.91,30.96-49.76c14.9-25.09-2.72-61.58-1.52-56.95
					c3.24,12.4-7.97,23.21-16.46,33.43c-16.36,19.69-22.2,47.36-22.08,70.53c0.01,2.26,1.49,20.14,1.99,19.13
					C347.55,623.19,349.67,615.85,353.34,609.43z"/>
				<path class="st15" d="M345.85,623.77c-8.72-24.64-24.32-34.31-44.54-59.82c-20.25-25.55-3.6-62.21-4.16-58.49
					c-1.86,12.25,10.68,23.1,18.68,34.21c8.29,11.5,10.21,15.03,14.83,25.02c4.5,9.73,6.37,17.04,8.41,24.69
					C342.99,604.16,346.56,625.79,345.85,623.77z"/>
				<path class="st15" d="M344.54,660.09c0.67,0.22,1.42-0.07,1.99-0.29c3.36-1.3,4.46-5.16,4.76-5.75
					c10.17-20.24,28.8-29.08,38.42-47.03c9.47-17.67,10.2-37.66,4.62-56.73c-0.88-2.99,1.26,15.36-21.1,36.91
					c-35.9,34.6-26.78,42.06-29.7,60.42C343.19,649.76,341.7,659.14,344.54,660.09z"/>
				<path class="st15" d="M344.54,660.09c-0.72,0.11-1.59,0.09-1.87-0.34c-1.78-2.64-4.89-9.81-5.68-11.14
					c-10.3-17.36-25.72-27.98-38.98-45.44c-13.05-17.19-20.84-36.45-19.21-55.69c0.18-2.08,18.31,23.33,37.72,37.41
					c15.98,11.59,33.86,39.13,33.72,54.82C350.21,644,349.29,659.35,344.54,660.09z"/>
				<path class="st15" d="M349.66,619.24c-0.69-27.05-0.68-30.61-0.63-33.18c0.19-8.92,0.81-15.37,2.17-23.05
					c3.37-19.07,9.65-30.4,12.05-50.09c2.75-22.68-7.91-45.58-18.31-67.11c-1.77-3.67,0.13,32.9-11.25,54.18
					c-24.12,45.07,13.02,125.01,14.14,124.9C347.89,624.88,349.8,624.4,349.66,619.24z"/>
			</g>
			<g class="st26">
				<path class="st27" d="M301.46,657.88c5.6-11.9,11.03-20.57,16.23-31.09c7.73-15.67-5.77-37.88-4.71-35.05
					c2.86,7.59-3.49,14.41-8.17,20.83c-9.01,12.36-10.86,29.48-9.26,43.76c0.16,1.39,2.26,12.38,2.52,11.76
					C298.72,666.44,299.57,661.89,301.46,657.88z"/>
				<path class="st27" d="M297.68,666.83c-7.12-15.05-17.58-20.78-32-36.2c-14.44-15.44-6.37-38.26-6.48-35.96
					c-0.37,7.57,8.25,14.07,14.02,20.8c5.98,6.96,7.42,9.11,10.99,15.2c3.47,5.93,5.14,10.4,6.92,15.09
					C294.59,654.79,298.27,668.06,297.68,666.83z"/>
				<path class="st27" d="M299.26,689.21c0.45,0.14,0.92-0.07,1.27-0.22c1.98-0.86,2.44-3.23,2.58-3.6
					c5.07-12.61,16.23-18.33,21.1-29.52c4.8-11.02,3.95-23.34-0.83-35.01c-0.77-1.88,1.74,11.47-13.04,24.39
					c-18.31,16.01-11.95,24.97-12.54,36.29C297.73,682.85,297.43,688.65,299.26,689.21z"/>
				<path class="st27" d="M299.26,689.21c-0.45,0.08-0.88-0.07-1.22-0.19c-3.12-1.11-3.72-5.98-4.29-6.77
					c-7.63-10.55-18.05-16.86-27.55-27.42c-9.36-10.4-15.53-22.15-15.77-34.02c-0.03-1.34,7.46,8.8,21.76,19.11
					c23.97,17.27,28.41,26.93,29.33,36.66C301.75,679.24,302.14,688.67,299.26,689.21z"/>
				<path class="st27" d="M300.4,664.06c-2.22-16.62-2.44-18.81-2.58-20.42c-0.47-5.49-0.5-9.47-0.15-14.21
					c0.87-11.81,4.08-18.87,4.29-31.04c0.24-14.01-7.99-27.96-15.96-41.07c-1.39-2.29,1.02,12.19-4.04,35.18
					c-6.84,31.06,18.15,74.94,18.85,74.85C300.84,667.35,300.82,667.23,300.4,664.06z"/>
			</g>
			<g class="st28">
				<path class="st29" d="M817.48,629.9c-8.18-13.64-15.53-23.73-23.01-35.82c-11.14-18-1.67-40.84-2.2-37.85
					c-1.42,7.99,6.51,16.16,12.62,23.7c11.79,14.53,17.15,33.48,18.37,48.92c0.12,1.5,0.16,13.31-0.23,12.59
					C822.03,639.57,820.24,634.49,817.48,629.9z"/>
				<path class="st29" d="M823.18,640.11c4.31-15.69,13.96-20.81,25.74-36.1c11.79-15.31-1.14-41.19-0.56-38.66
					c1.9,8.33-5.68,14.5-10.28,21.22c-4.77,6.96-5.83,9.15-8.28,15.42c-2.39,6.11-3.21,10.82-4.11,15.75
					C823.95,627.27,822.83,641.39,823.18,640.11z"/>
				<path class="st29" d="M826.18,664.38c-0.47,0.27-1.08-0.01-1.49-0.2c-2.26-1.03-3.13-3.91-3.37-4.35
					c-8.01-14.32-20.44-21.85-27.73-34.64c-7.17-12.59-8.77-25.99-6.19-38.23c0.59-2.8,3.24,12.66,15.85,26.42
					c21.11,23.05,20.01,30.61,22.78,42.83C826.37,657.75,827.68,663.52,826.18,664.38z"/>
				<path class="st29" d="M826.18,664.38c1.75,0.05,3.02-4.04,4.18-6.95c5.52-13.86,14.6-15.61,22.91-26.98
					c7.56-10.35,11.57-22.54,9.43-35.51c-0.15-0.92-6.33,12.43-21.35,22.76c-18.74,12.88-20.25,25.08-20.15,32.66
					C821.28,656.77,823.82,664.31,826.18,664.38z"/>
				<path class="st29" d="M822.9,636.88c0.43-6.61-1.07-19.25-1.45-22.07c-2.32-17.36-9.61-31.13-13.38-49.99
					c-3.07-15.36,2.61-29.73,8.2-43.2c-3.01,7.25-0.19,16,3.71,24.14c2.33,4.86,8.3,16.07,9.52,21.39c3.58,15.71,4,41.17-6.35,73.29
					c-0.07,0.22-0.21,0.89-0.32,0.88C822.58,641.28,822.85,637.55,822.9,636.88z"/>
			</g>
			<g class="st30">
				<path class="st12" d="M889.06,630.32c12.18-18.68,23.12-32.5,34.26-49.06c16.58-24.66,2.49-55.92,3.28-51.84
					c2.11,10.95-9.69,22.13-18.79,32.46c-17.55,19.9-25.54,45.85-27.36,67c-0.18,2.06-0.23,18.22,0.34,17.24
					C882.29,643.57,884.96,636.61,889.06,630.32z"/>
				<path class="st12" d="M880.58,644.3c-6.42-21.49-20.79-28.5-38.32-49.44c-17.56-20.97,1.69-56.4,0.83-52.94
					c-2.83,11.4,8.45,19.86,15.31,29.06c7.11,9.54,8.67,12.53,12.33,21.12c3.56,8.36,4.77,14.82,6.11,21.57
					C879.44,626.73,881.11,646.06,880.58,644.3z"/>
				<path class="st12" d="M876.12,677.54c0.7,0.37,1.61-0.02,2.21-0.27c3.37-1.41,4.66-5.35,5.02-5.95
					c11.92-19.61,30.43-29.93,41.28-47.44c10.68-17.24,13.06-35.59,9.22-52.36c-0.88-3.84-4.82,17.33-23.6,36.18
					c-31.44,31.56-29.8,41.92-33.92,58.65C875.82,668.46,873.88,676.36,876.12,677.54z"/>
				<path class="st12" d="M876.12,677.54c-2.61,0.07-4.49-5.54-6.22-9.52c-8.23-18.98-21.74-21.37-34.11-36.95
					c-11.26-14.18-17.23-30.86-14.04-48.62c0.23-1.26,9.43,17.03,31.78,31.16c27.9,17.64,30.14,34.34,30,44.73
					C883.4,667.12,879.62,677.44,876.12,677.54z"/>
				<path class="st12" d="M881,639.88c-0.65-9.05,1.59-26.37,2.16-30.23c3.46-23.78,14.31-42.63,19.93-68.46
					c4.57-21.03-3.89-40.71-12.21-59.16c4.48,9.93,0.28,21.92-5.53,33.06c-3.47,6.66-12.36,22.01-14.17,29.3
					c-5.33,21.52-5.96,56.38,9.46,100.37c0.11,0.3,0.32,1.22,0.47,1.2C881.47,645.91,881.07,640.8,881,639.88z"/>
			</g>
		</g>
	</g>
</g>
</svg>
