<svg width="24" height="25" viewBox="0 0 24 25" fill="none" xmlns="http://www.w3.org/2000/svg">
<g clip-path="url(#clip0_1255_158106)">
<path fill-rule="evenodd" clip-rule="evenodd" d="M6.14461 0.00976563H14.1767L20.9738 7.10466V20.8828C20.9738 22.6083 19.5811 24.0098 17.8556 24.0098H6.14461C4.42782 24.0098 3.02637 22.6083 3.02637 20.8828V3.12801C3.02634 1.41122 4.42782 0.00976562 6.14461 0.00976562V0.00976563Z" fill="#FFD666"/>
<path opacity="0.4" fill-rule="evenodd" clip-rule="evenodd" d="M14.168 0.00976562V7.04334H20.9738L14.168 0.00976562Z" fill="white"/>
<path d="M8.77246 16.3106C8.8688 16.3281 8.96517 16.3369 9.06151 16.3369C9.46442 16.3369 9.66589 16.1442 9.66589 15.7676V12.5092H10.8396V15.8376C10.8396 16.3544 10.7082 16.7486 10.4455 17.0201C10.1914 17.2829 9.83231 17.423 9.37685 17.423C9.1929 17.423 8.99143 17.4055 8.77246 17.3617V16.3106ZM13.3272 17.4405C12.8367 17.4405 12.3987 17.2916 12.0309 16.9938C11.663 16.6872 11.4615 16.3193 11.4352 15.8726L12.5039 15.5661C12.5301 15.8025 12.6265 16.004 12.7929 16.1617C12.9681 16.3193 13.1608 16.3982 13.3798 16.3982C13.5637 16.3982 13.7039 16.3544 13.8177 16.2755C13.9316 16.1967 13.9841 16.1004 13.9841 15.969C13.9841 15.8639 13.9404 15.7675 13.8528 15.6974C13.7651 15.6186 13.6513 15.5573 13.5112 15.5135C13.371 15.4697 13.2133 15.4172 13.0382 15.3733C12.863 15.3296 12.6878 15.2682 12.5126 15.1894C12.3462 15.1193 12.1885 15.0317 12.0484 14.9266C11.9082 14.8303 11.7944 14.6813 11.698 14.4974C11.6104 14.3135 11.5666 14.1033 11.5666 13.858C11.5666 13.4551 11.7418 13.1222 12.0834 12.8595C12.425 12.5879 12.8367 12.4565 13.3184 12.4565C13.7914 12.4565 14.2119 12.5704 14.571 12.8069C14.9214 13.0346 15.1403 13.3412 15.2279 13.7179L14.1155 14.1821C14.063 13.9719 13.9754 13.8054 13.8353 13.6828C13.6951 13.5602 13.5199 13.4989 13.3185 13.4989C13.1608 13.4989 13.0382 13.5339 12.9418 13.5952C12.8542 13.6565 12.8104 13.7441 12.8104 13.8492C12.8104 13.9544 12.8717 14.0332 12.9944 14.1033C13.1082 14.1646 13.2572 14.2171 13.4411 14.2434C13.6163 14.2697 13.809 14.3223 14.0192 14.3923C14.2294 14.4623 14.4221 14.55 14.606 14.6463C14.7812 14.7514 14.9301 14.9178 15.0527 15.1368C15.1754 15.3558 15.2279 15.6186 15.2279 15.9339C15.2279 16.3806 15.0527 16.7485 14.7024 17.0288C14.352 17.3004 13.8966 17.4405 13.3272 17.4405Z" fill="#B76E00"/>
</g>
<defs>
<clipPath id="clip0_1255_158106">
<rect width="24" height="24" fill="white" transform="translate(0 0.00976562)"/>
</clipPath>
</defs>
</svg>
