<svg width="24" height="24" viewBox="0 0 24 24" fill="none" xmlns="http://www.w3.org/2000/svg">
<path d="M11.2796 0.996155C11.2323 1.00046 11.0817 1.01551 10.9462 1.02626C7.82151 1.30794 4.89462 2.99371 3.04086 5.58473C2.0086 7.02538 1.34839 8.65954 1.09892 10.3905C1.01075 10.9947 1 11.1732 1 11.9924C1 12.8116 1.01075 12.9901 1.09892 13.5943C1.69677 17.7249 4.63656 21.1953 8.62366 22.4812C9.33763 22.7112 10.0903 22.8682 10.9462 22.9628C11.2796 22.9994 12.7204 22.9994 13.0538 22.9628C14.5312 22.7994 15.7828 22.4339 17.0172 21.8039C17.2065 21.7071 17.243 21.6813 17.2172 21.6598C17.2 21.6469 16.3935 20.5653 15.4258 19.258L13.6667 16.882L11.4624 13.6201C10.2495 11.8268 9.25161 10.3604 9.24301 10.3604C9.23441 10.3582 9.22581 11.8075 9.22151 13.5771C9.21505 16.6756 9.2129 16.8003 9.17419 16.8734C9.11828 16.9788 9.07527 17.0218 8.98495 17.0691C8.91613 17.1035 8.85591 17.1099 8.53118 17.1099H8.15914L8.06021 17.0476C7.9957 17.0067 7.94839 16.9529 7.91613 16.8906L7.87097 16.7938L7.87527 12.4826L7.88172 8.16929L7.94839 8.08544C7.9828 8.04028 8.05591 7.98222 8.10753 7.95427C8.1957 7.91127 8.23011 7.90697 8.60215 7.90697C9.04086 7.90697 9.11398 7.92417 9.22796 8.04888C9.26021 8.08328 10.4538 9.88087 11.8817 12.0461C13.3097 14.2114 15.2624 17.168 16.2215 18.6194L17.9634 21.2577L18.0516 21.1996C18.8323 20.6922 19.6581 19.9697 20.3118 19.2171C21.7032 17.6195 22.6 15.6714 22.9011 13.5943C22.9892 12.9901 23 12.8116 23 11.9924C23 11.1732 22.9892 10.9947 22.9011 10.3905C22.3032 6.2599 19.3634 2.78944 15.3763 1.50361C14.6731 1.27568 13.9247 1.11872 13.086 1.02411C12.8796 1.00261 11.4581 0.978953 11.2796 0.996155ZM15.7828 7.64894C15.886 7.70055 15.9699 7.79946 16 7.90267C16.0172 7.95857 16.0215 9.15409 16.0172 11.8483L16.0108 15.7144L15.329 14.6694L14.6452 13.6244V10.8141C14.6452 8.99713 14.6538 7.97577 14.6667 7.92632C14.7011 7.80591 14.7763 7.7113 14.8796 7.65539C14.9677 7.61024 15 7.60594 15.3376 7.60594C15.6559 7.60594 15.7118 7.61024 15.7828 7.64894Z" fill="#212B36"/>
</svg>
