<svg width="24" height="24" viewBox="0 0 24 24" fill="none" xmlns="http://www.w3.org/2000/svg">
<path d="M11.703 6.58008H7.88428V20.1986H4.75506V6.58008H1V3.82489H11.703V6.58008Z" fill="#006C9C"/>
<path d="M19.8496 15.9027C19.8496 15.2355 19.6869 14.7332 19.3616 14.3958C19.0434 14.051 18.46 13.6948 17.6114 13.3275C16.0627 12.7052 14.9489 11.978 14.27 11.1458C13.5911 10.3061 13.2517 9.31653 13.2517 8.17697C13.2517 6.7975 13.7113 5.69167 14.6307 4.85949C15.5571 4.01981 16.731 3.59998 18.1524 3.59998C19.1 3.59998 19.945 3.81364 20.6876 4.24098C21.4301 4.66082 21.9994 5.25684 22.3954 6.02904C22.7985 6.80124 23 7.67841 23 8.66053H19.892C19.892 7.89582 19.7364 7.3148 19.4253 6.91745C19.1212 6.51261 18.6792 6.31018 18.0993 6.31018C17.5548 6.31018 17.1305 6.48262 16.8264 6.82748C16.5223 7.16485 16.3703 7.62218 16.3703 8.19946C16.3703 8.64928 16.54 9.05788 16.8795 9.42524C17.2189 9.7851 17.82 10.16 18.6827 10.5498C20.189 11.1271 21.2816 11.8356 21.9605 12.6752C22.6464 13.5149 22.9894 14.5833 22.9894 15.8803C22.9894 17.3047 22.5616 18.418 21.7059 19.2202C20.8502 20.0224 19.6869 20.4235 18.216 20.4235C17.2189 20.4235 16.3102 20.2061 15.4899 19.7713C14.6696 19.3364 14.026 18.7142 13.5593 17.9045C13.0996 17.0948 12.8698 16.1389 12.8698 15.0368H15.999C15.999 15.9815 16.1723 16.6675 16.5188 17.0948C16.8653 17.5221 17.4311 17.7358 18.216 17.7358C19.305 17.7358 19.8496 17.1248 19.8496 15.9027Z" fill="#006C9C"/>
</svg>
