<svg width="24" height="24" viewBox="0 0 24 24" fill="none" xmlns="http://www.w3.org/2000/svg">
<path d="M22.4127 4.6095L12.5563 22.2343C12.3528 22.5981 11.83 22.6003 11.6234 22.2382L1.57167 4.61115C1.34667 4.2165 1.68402 3.73852 2.13117 3.8184L11.9982 5.5821C12.0611 5.59335 12.1255 5.59325 12.1884 5.5818L21.849 3.82095C22.2947 3.73972 22.6338 4.2141 22.4127 4.6095Z" fill="url(#paint0_linear_2755_145453)"/>
<path d="M16.6983 1.50518L9.40431 2.93438C9.34602 2.94578 9.29318 2.97624 9.25409 3.02097C9.215 3.06569 9.19189 3.12214 9.18839 3.18143L8.73974 10.7593C8.72924 10.9378 8.89311 11.0763 9.06726 11.0361L11.098 10.5675C11.2881 10.5236 11.4598 10.691 11.4207 10.8821L10.8174 13.8365C10.7767 14.0353 10.9634 14.2054 11.1576 14.1464L12.4119 13.7653C12.6064 13.7063 12.7932 13.8768 12.7521 14.0758L11.7933 18.7166C11.7333 19.0068 12.1194 19.1651 12.2804 18.9162L12.388 18.75L18.3315 6.8886C18.431 6.69 18.2595 6.46358 18.0412 6.50565L15.951 6.90908C15.7545 6.94695 15.5874 6.76403 15.6428 6.5718L17.0071 1.8423C17.0626 1.6497 16.8949 1.46663 16.6983 1.50518Z" fill="url(#paint1_linear_2755_145453)"/>
<defs>
<linearGradient id="paint0_linear_2755_145453" x1="1.32622" y1="3.18844" x2="13.5926" y2="19.8472" gradientUnits="userSpaceOnUse">
<stop stop-color="#41D1FF"/>
<stop offset="1" stop-color="#BD34FE"/>
</linearGradient>
<linearGradient id="paint1_linear_2755_145453" x1="11.4313" y1="1.89315" x2="13.6502" y2="17.1148" gradientUnits="userSpaceOnUse">
<stop stop-color="#FFEA83"/>
<stop offset="0.0833" stop-color="#FFDD35"/>
<stop offset="1" stop-color="#FFA800"/>
</linearGradient>
</defs>
</svg>
