<svg height="128" viewBox="0 0 360 128" width="360" xmlns="http://www.w3.org/2000/svg" xmlns:xlink="http://www.w3.org/1999/xlink"><linearGradient id="a" x1="100%" x2="50%" y1="5.663%" y2="50%"><stop offset="0" stop-color="#007b55"/><stop offset="1" stop-color="#00ab55"/></linearGradient><linearGradient id="b" x1="50%" x2="50%" y1="0%" y2="100%"><stop offset="0" stop-color="#5be584"/><stop offset="1" stop-color="#00ab55"/></linearGradient><g fill="none" fill-rule="evenodd"><g transform="translate(3.5 32)"><path d="m23.201647 20.7766255c11.072211 5.7222379 11.5769845 5.9836488 11.6001673 5.9949956.0030619.002182.1605302.0833547 11.1981857 5.7881361-6.5178768 12.13488-10.6732912 19.3164806-12.467118 21.5448017-2.6896467 3.3424817-5.6238067 5.8732365-9.232456 7.333472-7.5864745 3.5654884-17.0175155 3.7321979-24.300426-.6760026z" fill="url(#a)"/><g fill="url(#b)"><path d="m107.577623 25.4315232c-11.5676985-20.2389818-23.5250947-39.3071098-37.2608683-11.3359339-1.8790566 3.5958494-3.2486415 10.5841502-6.3167547 10.5841502v-.035507c-3.0681132 0-4.4372642-6.9883008-6.3163208-10.5841502-13.7362075-27.9711759-25.6936037-8.90304789-37.2613018 11.3359339-.8705283 1.526362-1.7067736 2.9830252-2.4223774 4.2490026 26.5094528-16.7816534 24.2775849 33.9166234 46 34.3194742v.035507c21.7228491-.4028509 19.4905472-51.1011277 46-34.3199126-.71517-1.2655391-1.551415-2.7222022-2.422377-4.2485642"/><path d="m109 64c6.6272 0 12-5.3728 12-12s-5.3728-12-12-12-12 5.3728-12 12 5.3728 12 12 12"/></g></g><path d="m146.031279 45.2145749c3.521619 0 6.071757-2.388664 6.071757-5.6275304s-2.550138-5.5870445-6.071757-5.5870445c-3.440663 0-6.031279 2.3481781-6.031279 5.5870445s2.590616 5.6275304 6.031279 5.6275304zm0 48.6234818c3.319227 0 5.343146-1.9838057 5.343146-5.8704454v-31.9838056c0-3.8866397-2.023919-5.9109312-5.302668-5.9109312-3.319227 0-5.343146 2.0242915-5.343146 5.9109312v31.9838056c0 3.8461539 2.023919 5.8704454 5.302668 5.8704454zm49.059797 0c3.400184 0 5.302668-2.0647773 5.302668-5.8299595v-23.3603239c0-9.4331984-5.181233-14.8582996-14.329347-14.8582996-6.314627 0-11.131554 3.1578947-12.791168 8.2591093h-.526219v-2.631579c-.121435-3.4412955-1.983441-5.3441295-5.181233-5.3441295-3.23827 0-5.262189 2.1862348-5.262189 5.708502v32.1862348c0 3.7651822 1.942962 5.8704454 5.343146 5.8704454s5.343146-2.1052632 5.343146-5.8704454v-18.4210526c0-6.6801619 3.481141-10.7692308 9.026679-10.7692308 4.938363 0 7.731371 3.1578948 7.731371 8.7854251v20.4048583c0 3.7651822 1.902484 5.8704454 5.343146 5.8704454zm21.210672-48.6234818c3.521619 0 6.071757-2.388664 6.071757-5.6275304s-2.550138-5.5870445-6.071757-5.5870445c-3.440662 0-6.031279 2.3481781-6.031279 5.5870445s2.590617 5.6275304 6.031279 5.6275304zm0 48.6234818c3.319227 0 5.343146-1.9838057 5.343146-5.8704454v-31.9838056c0-3.8866397-2.023919-5.9109312-5.302668-5.9109312-3.319227 0-5.343146 2.0242915-5.343146 5.9109312v31.9838056c0 3.8461539 2.023919 5.8704454 5.302668 5.8704454zm72.699172 0c3.400184 0 5.343146-2.0647773 5.343146-5.8704454v-24.5344129c0-8.5020243-5.181233-13.6437247-13.843606-13.6437247-6.193192 0-11.050598 3.1174089-12.912604 8.097166h-.48574c-1.416743-5.0202429-5.788409-8.097166-11.819687-8.097166-5.828887 0-10.321987 2.9959514-11.738731 7.8137652h-.526219v-2.0242915c-.161913-3.4412956-2.064397-5.5060729-5.181232-5.5060729-3.238271 0-5.26219 2.1862348-5.26219 5.7489878v32.145749c0 3.8056681 1.942962 5.8704454 5.343146 5.8704454s5.343147-2.0647773 5.343147-5.8704454v-20.7692307c0-5.2226721 3.035878-8.582996 7.569457-8.582996 4.614535 0 7.4885 3.1174089 7.4885 8.2186235v21.1336032c0 3.8056681 1.821527 5.8704454 5.140755 5.8704454 3.359705 0 5.181232-2.0647773 5.181232-5.8704454v-20.7287449c0-5.1821862 3.116836-8.6234818 7.690893-8.6234818 4.614535 0 7.367065 2.9149798 7.367065 8.0161943v21.3360324c0 3.8056681 1.902484 5.8704454 5.302668 5.8704454zm27.565777.1619433c5.26219 0 9.51242-2.1862348 11.698252-6.0323887h.526219v1.4979757c.323827 2.7935223 2.185833 4.3724697 5.01932 4.3724697 3.319227 0 5.181232-2.0647773 5.181232-5.708502v-23.4817814c0-9.5141701-6.314627-14.8582996-17.567617-14.8582996-4.695492 0-8.298068.8097166-11.01012 2.2267206-3.764489 1.902834-5.505059 4.4534413-5.505059 6.9635628 0 2.1862348 1.457221 3.7651822 3.804967 3.7651822 1.740571 0 2.873965-.4453442 4.088317-1.4170041 2.388224-2.145749 4.695492-3.3603239 7.933763-3.3603239 4.897884 0 7.609935 2.2672065 7.609935 6.5991903v3.5222672h-10.200552c-9.75529 0-15.624655 4.8987855-15.624655 12.8340081 0 7.8137652 5.666973 13.0769231 14.045998 13.0769231zm3.562098-7.6923077c-4.169273 0-7.00276-2.4696356-7.00276-6.0323887 0-3.5222672 2.590616-5.6275303 6.962281-5.6275303h8.25759v4.4534413c0 4.048583-3.602576 7.2064777-8.217111 7.2064777zm34.528059 7.5303644c3.278749 0 5.343146-1.9838057 5.343146-5.8704454v-47.125506c0-3.8866397-2.064397-5.9109312-5.343146-5.9109312-3.319228 0-5.343147 2.0242915-5.343147 5.9109312v47.125506c0 3.8866397 2.023919 5.8704454 5.343147 5.8704454z" fill="#212b36" fill-rule="nonzero"/></g></svg>