<svg width="64" height="64" viewBox="0 0 64 64" fill="none" xmlns="http://www.w3.org/2000/svg">
<g clip-path="url(#clip0_296_3262)">
<mask id="mask0_296_3262" style="mask-type:alpha" maskUnits="userSpaceOnUse" x="0" y="7" width="64" height="53">
<path d="M58.9345 16.6644C50.7574 10.3778 42.8261 15.5013 33.9795 13.6898C25.069 11.8652 21.5189 5.78979 11.37 8.59417C2.37975 11.0783 -3.07525 21.038 1.867 29.3764C3.27537 31.7525 5.67462 33.5452 6.65512 36.2038C8.23675 40.4927 5.82925 43.7854 6.29887 48.0003C8.25037 65.5129 34.9956 58.7295 44.8368 53.2809C60.2705 44.7359 70.7115 25.7188 58.9345 16.6644Z" fill="url(#paint0_linear_296_3262)" fill-opacity="0.16"/>
</mask>
<g mask="url(#mask0_296_3262)">
<path d="M58.9345 16.6644C50.7574 10.3778 42.8261 15.5013 33.9795 13.6898C25.069 11.8652 21.5189 5.78979 11.37 8.59417C2.37975 11.0783 -3.07525 21.038 1.867 29.3764C3.27537 31.7525 5.67462 33.5452 6.65512 36.2038C8.23675 40.4927 5.82925 43.7854 6.29887 48.0003C8.25037 65.5129 34.9956 58.7295 44.8368 53.2809C60.2705 44.7359 70.7115 25.7188 58.9345 16.6644Z" fill="#00A76F"/>
</g>
<path opacity="0.08" d="M51.3966 10.297C50.9324 10.297 50.4683 10.1203 50.1149 9.76702C49.4083 9.0604 49.4083 7.91052 50.1149 7.20377C50.8216 6.49702 51.9716 6.49702 52.6782 7.20377C53.3848 7.91052 53.3848 9.06027 52.6782 9.76702C52.3249 10.1203 51.8608 10.297 51.3966 10.297ZM51.3967 7.92314C51.2526 7.92314 51.1086 7.97789 50.9989 8.08764C50.7797 8.30689 50.7797 8.66377 50.9989 8.88315C51.2182 9.1024 51.5751 9.10252 51.7944 8.88315C52.0137 8.6639 52.0137 8.30702 51.7944 8.08764C51.6847 7.97789 51.5407 7.92314 51.3967 7.92314Z" fill="#00A76F"/>
<path opacity="0.24" d="M54.54 16.4084C54.0759 16.4086 53.6118 16.2318 53.2584 15.8784C52.916 15.5361 52.7275 15.0809 52.7275 14.5968C52.7275 14.1127 52.916 13.6575 53.2584 13.3152C53.9649 12.6085 55.1148 12.6084 55.8215 13.3152C56.1639 13.6575 56.3524 14.1127 56.3524 14.5968C56.3524 15.0811 56.1639 15.5362 55.8214 15.8784C55.4684 16.2317 55.0042 16.4084 54.54 16.4084ZM54.54 14.0345C54.396 14.0345 54.2519 14.0893 54.1423 14.199C54.0359 14.3053 53.9775 14.4465 53.9775 14.5968C53.9775 14.7471 54.036 14.8883 54.1423 14.9946C54.3617 15.2139 54.7185 15.2139 54.9378 14.9946C55.0442 14.8883 55.1025 14.7471 55.1025 14.5968C55.1025 14.4465 55.044 14.3054 54.9378 14.199C54.8282 14.0893 54.6842 14.0345 54.54 14.0345Z" fill="#00A76F"/>
<path opacity="0.08" d="M13.1719 29.595C12.7078 29.595 12.2436 29.4182 11.8903 29.065C11.1837 28.3582 11.1837 27.2083 11.8903 26.5017C12.5969 25.7952 13.7469 25.7951 14.4536 26.5017C15.1602 27.2085 15.1602 28.3582 14.4536 29.065C14.1003 29.4182 13.6361 29.595 13.1719 29.595ZM13.1719 27.2211C13.0279 27.2211 12.8838 27.2758 12.7742 27.3856C12.5548 27.6048 12.5548 27.9617 12.7742 28.1811C12.9934 28.4005 13.3504 28.4003 13.5697 28.1811C13.7891 27.9618 13.7891 27.605 13.5697 27.3856C13.4601 27.2758 13.3161 27.2211 13.1719 27.2211Z" fill="#00A76F"/>
<path opacity="0.48" d="M12.3662 35.2127C12.2062 35.2127 12.0463 35.1517 11.9242 35.0297L11.1787 34.2842L10.4332 35.0297C10.1891 35.2737 9.79343 35.2737 9.5493 35.0297C9.30518 34.7855 9.30518 34.3898 9.5493 34.1458L10.7368 32.9583C10.9809 32.7143 11.3766 32.7143 11.6207 32.9583L12.8082 34.1458C13.0523 34.3899 13.0523 34.7857 12.8082 35.0297C12.6861 35.1515 12.5262 35.2127 12.3662 35.2127Z" fill="#00A76F"/>
<path opacity="0.24" d="M53.3525 53.3126C53.1925 53.3126 53.0326 53.2516 52.9105 53.1296L52.165 52.3841L51.4195 53.1296C51.1754 53.3736 50.7798 53.3736 50.5356 53.1296C50.2915 52.8855 50.2915 52.4897 50.5356 52.2457L51.7231 51.0582C51.9673 50.8142 52.3629 50.8142 52.607 51.0582L53.7945 52.2457C54.0386 52.4899 54.0386 52.8856 53.7945 53.1296C53.6724 53.2515 53.5125 53.3126 53.3525 53.3126Z" fill="#00A76F"/>
<path d="M40.3208 20.2264H23.4151C22.0813 20.2264 21 21.3077 21 22.6415V45.5849C21 46.9188 22.0813 48 23.4151 48H40.3208C41.6546 48 42.7358 46.9188 42.7358 45.5849V22.6415C42.7358 21.3077 41.6546 20.2264 40.3208 20.2264Z" fill="#FFAB00"/>
<path d="M23 23H41V46H23V23Z" fill="#FFD666"/>
<path d="M36.5 43H23V23H41V38.8824L36.5 43Z" fill="#FFF5CC"/>
<path d="M34.2829 19.6226V18.4151C34.2829 17.7746 34.0285 17.1603 33.5755 16.7074C33.1226 16.2544 32.5083 16 31.8678 16C31.2273 16 30.613 16.2544 30.1601 16.7074C29.7072 17.1603 29.4527 17.7746 29.4527 18.4151V19.6226H27.0376L25.8301 21.434V23.2453H37.9056V21.434L36.698 19.6226H34.2829Z" fill="#FFD666"/>
<path d="M37 43.2264V39H41.2264L37 43.2264Z" fill="#FFAB00"/>
<path d="M31.8685 38.3396C30.2862 37.8122 28.9099 36.8002 27.9347 35.4471C26.9594 34.094 26.4346 32.4683 26.4346 30.8004V28.0755C28.0149 28.0755 29.5655 27.646 30.9206 26.8329L31.8685 26.2642L32.8165 26.8329C34.1716 27.646 35.7222 28.0755 37.3025 28.0755V30.8004C37.3025 32.4683 36.7777 34.094 35.8024 35.4471C34.8272 36.8002 33.4509 37.8122 31.8685 38.3396Z" fill="#5BE49B"/>
<path d="M31.8676 33.5094C31.7738 33.5094 31.6814 33.4876 31.5976 33.4457C31.5137 33.4038 31.4408 33.3429 31.3846 33.2679L29.5732 30.8528L30.5393 30.1283L31.8676 31.8994L36.8185 25.2981L37.7846 26.0226L32.3506 33.2679C32.2944 33.3429 32.2214 33.4038 32.1376 33.4457C32.0538 33.4876 31.9613 33.5094 31.8676 33.5094Z" fill="#007867"/>
<path d="M25.2266 37.7358H28.2454V38.9434H25.2266V37.7358Z" fill="#FFAB00"/>
<path d="M25.2266 40.151H29.453V41.3585H25.2266V40.151Z" fill="#FFAB00"/>
</g>
<defs>
<linearGradient id="paint0_linear_296_3262" x1="43.8414" y1="68.4015" x2="70.1982" y2="12.921" gradientUnits="userSpaceOnUse">
<stop/>
<stop offset="1" stop-opacity="0.01"/>
</linearGradient>
<clipPath id="clip0_296_3262">
<rect width="64" height="64" fill="white"/>
</clipPath>
</defs>
</svg>
