<svg width="64" height="64" viewBox="0 0 64 64" fill="none" xmlns="http://www.w3.org/2000/svg">
<g clip-path="url(#clip0_296_3265)">
<mask id="mask0_296_3265" style="mask-type:alpha" maskUnits="userSpaceOnUse" x="0" y="7" width="64" height="53">
<path d="M58.9345 16.6644C50.7574 10.3778 42.8261 15.5013 33.9795 13.6898C25.069 11.8652 21.5189 5.78979 11.37 8.59417C2.37975 11.0783 -3.07525 21.038 1.867 29.3764C3.27537 31.7525 5.67462 33.5452 6.65512 36.2038C8.23675 40.4927 5.82925 43.7854 6.29887 48.0003C8.25037 65.5129 34.9956 58.7295 44.8368 53.2809C60.2705 44.7359 70.7115 25.7188 58.9345 16.6644Z" fill="url(#paint0_linear_296_3265)" fill-opacity="0.16"/>
</mask>
<g mask="url(#mask0_296_3265)">
<path d="M58.9345 16.6644C50.7574 10.3778 42.8261 15.5013 33.9795 13.6898C25.069 11.8652 21.5189 5.78979 11.37 8.59417C2.37975 11.0783 -3.07525 21.038 1.867 29.3764C3.27537 31.7525 5.67462 33.5452 6.65512 36.2038C8.23675 40.4927 5.82925 43.7854 6.29887 48.0003C8.25037 65.5129 34.9956 58.7295 44.8368 53.2809C60.2705 44.7359 70.7115 25.7188 58.9345 16.6644Z" fill="#00A76F"/>
</g>
<path opacity="0.08" d="M51.3966 10.297C50.9324 10.297 50.4683 10.1203 50.1149 9.76702C49.4083 9.0604 49.4083 7.91052 50.1149 7.20377C50.8216 6.49702 51.9716 6.49702 52.6782 7.20377C53.3848 7.91052 53.3848 9.06027 52.6782 9.76702C52.3249 10.1203 51.8608 10.297 51.3966 10.297ZM51.3967 7.92314C51.2526 7.92314 51.1086 7.97789 50.9989 8.08764C50.7797 8.30689 50.7797 8.66377 50.9989 8.88315C51.2182 9.1024 51.5751 9.10252 51.7944 8.88315C52.0137 8.6639 52.0137 8.30702 51.7944 8.08764C51.6847 7.97789 51.5407 7.92314 51.3967 7.92314Z" fill="#00A76F"/>
<path opacity="0.24" d="M54.54 16.4084C54.0759 16.4086 53.6118 16.2318 53.2584 15.8784C52.916 15.5361 52.7275 15.0809 52.7275 14.5968C52.7275 14.1127 52.916 13.6575 53.2584 13.3152C53.9649 12.6085 55.1148 12.6084 55.8215 13.3152C56.1639 13.6575 56.3524 14.1127 56.3524 14.5968C56.3524 15.0811 56.1639 15.5362 55.8214 15.8784C55.4684 16.2317 55.0042 16.4084 54.54 16.4084ZM54.54 14.0345C54.396 14.0345 54.2519 14.0893 54.1423 14.199C54.0359 14.3053 53.9775 14.4465 53.9775 14.5968C53.9775 14.7471 54.036 14.8883 54.1423 14.9946C54.3617 15.2139 54.7185 15.2139 54.9378 14.9946C55.0442 14.8883 55.1025 14.7471 55.1025 14.5968C55.1025 14.4465 55.044 14.3054 54.9378 14.199C54.8282 14.0893 54.6842 14.0345 54.54 14.0345Z" fill="#00A76F"/>
<path opacity="0.08" d="M13.1719 29.595C12.7078 29.595 12.2436 29.4182 11.8903 29.065C11.1837 28.3582 11.1837 27.2083 11.8903 26.5017C12.5969 25.7952 13.7469 25.7951 14.4536 26.5017C15.1602 27.2085 15.1602 28.3582 14.4536 29.065C14.1003 29.4182 13.6361 29.595 13.1719 29.595ZM13.1719 27.2211C13.0279 27.2211 12.8838 27.2758 12.7742 27.3856C12.5548 27.6048 12.5548 27.9617 12.7742 28.1811C12.9934 28.4005 13.3504 28.4003 13.5697 28.1811C13.7891 27.9618 13.7891 27.605 13.5697 27.3856C13.4601 27.2758 13.3161 27.2211 13.1719 27.2211Z" fill="#00A76F"/>
<path opacity="0.48" d="M12.3662 35.2127C12.2062 35.2127 12.0463 35.1517 11.9242 35.0297L11.1787 34.2842L10.4332 35.0297C10.1891 35.2737 9.79343 35.2737 9.5493 35.0297C9.30518 34.7855 9.30518 34.3898 9.5493 34.1458L10.7368 32.9583C10.9809 32.7143 11.3766 32.7143 11.6207 32.9583L12.8082 34.1458C13.0523 34.3899 13.0523 34.7857 12.8082 35.0297C12.6861 35.1515 12.5262 35.2127 12.3662 35.2127Z" fill="#00A76F"/>
<path opacity="0.24" d="M53.3525 53.3126C53.1925 53.3126 53.0326 53.2516 52.9105 53.1296L52.165 52.3841L51.4195 53.1296C51.1754 53.3736 50.7798 53.3736 50.5356 53.1296C50.2915 52.8855 50.2915 52.4897 50.5356 52.2457L51.7231 51.0582C51.9673 50.8142 52.3629 50.8142 52.607 51.0582L53.7945 52.2457C54.0386 52.4899 54.0386 52.8856 53.7945 53.1296C53.6724 53.2515 53.5125 53.3126 53.3525 53.3126Z" fill="#00A76F"/>
<path d="M47.9999 34.7078L43.3129 29.6013C42.9684 29.2256 42.482 29.0118 41.9724 29.0118H36.1535L36.1533 42.993H38.3791C38.3791 41.2345 39.8046 39.809 41.5631 39.809C43.3216 39.809 44.7471 41.2345 44.7471 42.993H46.18C46.6627 42.9931 47.1255 42.8014 47.4668 42.4602C47.8081 42.1189 47.9998 41.656 47.9997 41.1734L47.9999 34.7078Z" fill="#FFAB00"/>
<circle cx="41.5629" cy="42.993" r="3.18402" fill="#B76E00"/>
<path fill-rule="evenodd" clip-rule="evenodd" d="M36.1533 34.7077V42.993H26.4626C26.4626 41.2343 25.0369 39.8086 23.2782 39.8086C21.5195 39.8086 20.0938 41.2343 20.0938 42.993H17.8197C17.337 42.9931 16.8741 42.8014 16.5329 42.4601C16.1916 42.1189 15.9999 41.656 16 41.1734V25.9813C15.9999 25.4986 16.1916 25.0358 16.5329 24.6945C16.8741 24.3532 17.337 24.1615 17.8197 24.1616H19.7936C19.907 27.3699 22.5408 29.9121 25.751 29.9121C28.9613 29.9121 31.595 27.3699 31.7085 24.1616H34.3336C35.3386 24.1617 36.1532 24.9763 36.1533 25.9813V34.7077Z" fill="#FFD666"/>
<path fill-rule="evenodd" clip-rule="evenodd" d="M31.7124 23.9612C31.7124 24.0283 31.7117 24.0953 31.7087 24.1616C31.5952 27.3699 28.9615 29.9121 25.7512 29.9121C22.541 29.9121 19.9072 27.3699 19.7938 24.1616C19.7908 24.0953 19.79 24.0283 19.79 23.9612C19.79 20.6689 22.459 18 25.7512 18C29.0435 18 31.7124 20.6689 31.7124 23.9612Z" fill="#61F3F3"/>
<path fill-rule="evenodd" clip-rule="evenodd" d="M23.2778 39.809C25.0363 39.809 26.4618 41.2345 26.4618 42.993C26.4618 44.7515 25.0363 46.177 23.2778 46.177C21.5193 46.177 20.0938 44.7515 20.0938 42.993C20.0938 41.2345 21.5193 39.809 23.2778 39.809Z" fill="#B76E00"/>
<path fill-rule="evenodd" clip-rule="evenodd" d="M27.7405 26.3456C27.6081 26.3458 27.4806 26.2954 27.3841 26.2048L25.3945 24.3419C25.2892 24.2433 25.2295 24.1055 25.2295 23.9612V20.0953C25.2295 19.8073 25.463 19.5737 25.7511 19.5737C26.0392 19.5737 26.2727 19.8073 26.2727 20.0953V23.7354L28.0971 25.4436C28.2534 25.59 28.3044 25.817 28.2257 26.0161C28.1471 26.2152 27.9547 26.346 27.7406 26.346L27.7405 26.3456Z" fill="#006C9C"/>
</g>
<defs>
<linearGradient id="paint0_linear_296_3265" x1="43.8414" y1="68.4015" x2="70.1982" y2="12.921" gradientUnits="userSpaceOnUse">
<stop/>
<stop offset="1" stop-opacity="0.01"/>
</linearGradient>
<clipPath id="clip0_296_3265">
<rect width="64" height="64" fill="white"/>
</clipPath>
</defs>
</svg>
