<svg width="64" height="64" viewBox="0 0 64 64" fill="none" xmlns="http://www.w3.org/2000/svg">
<g clip-path="url(#clip0_296_2015)">
<mask id="mask0_296_2015" style="mask-type:alpha" maskUnits="userSpaceOnUse" x="0" y="7" width="64" height="53">
<path d="M58.9345 16.6644C50.7574 10.3778 42.8261 15.5013 33.9795 13.6898C25.069 11.8652 21.5189 5.78979 11.37 8.59417C2.37975 11.0783 -3.07525 21.038 1.867 29.3764C3.27537 31.7525 5.67462 33.5452 6.65512 36.2038C8.23675 40.4927 5.82925 43.7854 6.29887 48.0003C8.25037 65.5129 34.9956 58.7295 44.8368 53.2809C60.2705 44.7359 70.7115 25.7188 58.9345 16.6644Z" fill="url(#paint0_linear_296_2015)" fill-opacity="0.16"/>
</mask>
<g mask="url(#mask0_296_2015)">
<path d="M58.9345 16.6644C50.7574 10.3778 42.8261 15.5013 33.9795 13.6898C25.069 11.8652 21.5189 5.78979 11.37 8.59417C2.37975 11.0783 -3.07525 21.038 1.867 29.3764C3.27537 31.7525 5.67462 33.5452 6.65512 36.2038C8.23675 40.4927 5.82925 43.7854 6.29887 48.0003C8.25037 65.5129 34.9956 58.7295 44.8368 53.2809C60.2705 44.7359 70.7115 25.7188 58.9345 16.6644Z" fill="#00A76F"/>
</g>
<path opacity="0.08" d="M51.3966 10.297C50.9324 10.297 50.4683 10.1203 50.1149 9.76702C49.4083 9.0604 49.4083 7.91052 50.1149 7.20377C50.8216 6.49702 51.9716 6.49702 52.6782 7.20377C53.3848 7.91052 53.3848 9.06027 52.6782 9.76702C52.3249 10.1203 51.8608 10.297 51.3966 10.297ZM51.3967 7.92314C51.2526 7.92314 51.1086 7.97789 50.9989 8.08764C50.7797 8.30689 50.7797 8.66377 50.9989 8.88315C51.2182 9.1024 51.5751 9.10252 51.7944 8.88315C52.0137 8.6639 52.0137 8.30702 51.7944 8.08764C51.6847 7.97789 51.5407 7.92314 51.3967 7.92314Z" fill="#00A76F"/>
<path opacity="0.24" d="M54.54 16.4084C54.0759 16.4086 53.6118 16.2318 53.2584 15.8784C52.916 15.5361 52.7275 15.0809 52.7275 14.5968C52.7275 14.1127 52.916 13.6575 53.2584 13.3152C53.9649 12.6085 55.1148 12.6084 55.8215 13.3152C56.1639 13.6575 56.3524 14.1127 56.3524 14.5968C56.3524 15.0811 56.1639 15.5362 55.8214 15.8784C55.4684 16.2317 55.0042 16.4084 54.54 16.4084ZM54.54 14.0345C54.396 14.0345 54.2519 14.0893 54.1423 14.199C54.0359 14.3053 53.9775 14.4465 53.9775 14.5968C53.9775 14.7471 54.036 14.8883 54.1423 14.9946C54.3617 15.2139 54.7185 15.2139 54.9378 14.9946C55.0442 14.8883 55.1025 14.7471 55.1025 14.5968C55.1025 14.4465 55.044 14.3054 54.9378 14.199C54.8282 14.0893 54.6842 14.0345 54.54 14.0345Z" fill="#00A76F"/>
<path opacity="0.08" d="M13.1719 29.595C12.7078 29.595 12.2436 29.4182 11.8903 29.065C11.1837 28.3582 11.1837 27.2083 11.8903 26.5017C12.5969 25.7952 13.7469 25.7951 14.4536 26.5017C15.1602 27.2085 15.1602 28.3582 14.4536 29.065C14.1003 29.4182 13.6361 29.595 13.1719 29.595ZM13.1719 27.2211C13.0279 27.2211 12.8838 27.2758 12.7742 27.3856C12.5548 27.6048 12.5548 27.9617 12.7742 28.1811C12.9934 28.4005 13.3504 28.4003 13.5697 28.1811C13.7891 27.9618 13.7891 27.605 13.5697 27.3856C13.4601 27.2758 13.3161 27.2211 13.1719 27.2211Z" fill="#00A76F"/>
<path opacity="0.48" d="M12.3662 35.2127C12.2062 35.2127 12.0463 35.1517 11.9242 35.0297L11.1787 34.2842L10.4332 35.0297C10.1891 35.2737 9.79343 35.2737 9.5493 35.0297C9.30518 34.7855 9.30518 34.3898 9.5493 34.1458L10.7368 32.9583C10.9809 32.7143 11.3766 32.7143 11.6207 32.9583L12.8082 34.1458C13.0523 34.3899 13.0523 34.7857 12.8082 35.0297C12.6861 35.1515 12.5262 35.2127 12.3662 35.2127Z" fill="#00A76F"/>
<path opacity="0.24" d="M53.3525 53.3126C53.1925 53.3126 53.0326 53.2516 52.9105 53.1296L52.165 52.3841L51.4195 53.1296C51.1754 53.3736 50.7798 53.3736 50.5356 53.1296C50.2915 52.8855 50.2915 52.4897 50.5356 52.2457L51.7231 51.0582C51.9673 50.8142 52.3629 50.8142 52.607 51.0582L53.7945 52.2457C54.0386 52.4899 54.0386 52.8856 53.7945 53.1296C53.6724 53.2515 53.5125 53.3126 53.3525 53.3126Z" fill="#00A76F"/>
<path d="M44.5625 31.9792L46.1424 31.3405C47.6453 30.7322 48.3835 29.0318 47.8016 27.5184L44.1035 17.9048C43.5117 16.3717 41.789 15.6086 40.2559 16.2005C40.2342 16.2089 40.2125 16.2175 40.1911 16.2264L21.7138 23.8859C20.2352 24.5007 19.5083 26.1755 20.0689 27.6755L20.8129 29.6593L22.0615 33.0813H40.7972L44.5625 31.9792Z" fill="#61F3F3"/>
<path d="M24.8997 29.6609L23.7314 26.7404L28.4043 24.4039L29.5726 27.3245L24.8997 29.6609Z" fill="#006C9C"/>
<path d="M38.6953 26.8215L43.952 24.484L44.3998 25.491L39.1431 27.8286L38.6953 26.8215Z" fill="#006C9C"/>
<path d="M35.1836 25.6559L42.7766 22.1515L43.2382 23.1516L35.6452 26.6561L35.1836 25.6559Z" fill="#006C9C"/>
<path opacity="0.12" d="M46.1425 31.3406C46.1915 31.3208 46.2328 31.2905 46.2802 31.2684C46.1326 29.7961 44.8944 28.6746 43.4148 28.673H20.4404L20.8107 29.661L22.0616 33.0814H40.7973L44.5626 31.9793L46.1425 31.3406Z" fill="black"/>
<path d="M18.893 29.775H42.3126C43.9104 29.775 45.2056 31.0703 45.2056 32.668V45.0666C45.2056 46.6644 43.9104 47.9596 42.3126 47.9596H18.893C17.2952 47.9596 16 46.6644 16 45.0666V32.668C16 31.0703 17.2952 29.775 18.893 29.775Z" fill="#FFD666"/>
<path d="M36.9401 46.3066C35.114 46.3066 33.6338 44.8263 33.6338 43.0003C33.6338 41.1742 35.114 39.694 36.9401 39.694C38.7661 39.694 40.2464 41.1742 40.2464 43.0003C40.2446 44.8255 38.7654 46.3048 36.9401 46.3066ZM36.9401 40.7961C35.7227 40.7961 34.7359 41.7829 34.7359 43.0003C34.7359 44.2176 35.7227 45.2045 36.9401 45.2045C38.1574 45.2045 39.1443 44.2176 39.1443 43.0003C39.1443 41.7829 38.1574 40.7961 36.9401 40.7961Z" fill="#B76E00"/>
<path d="M40.2467 46.3066C38.4207 46.3066 36.9404 44.8263 36.9404 43.0003C36.9404 41.1742 38.4207 39.694 40.2467 39.694C42.0728 39.694 43.553 41.1742 43.553 43.0003C43.5512 44.8255 42.072 46.3048 40.2467 46.3066ZM40.2467 40.7961C39.0294 40.7961 38.0425 41.7829 38.0425 43.0003C38.0425 44.2176 39.0294 45.2045 40.2467 45.2045C41.4641 45.2045 42.4509 44.2176 42.4509 43.0003C42.4509 41.7829 41.4641 40.7961 40.2467 40.7961Z" fill="#B76E00"/>
<path d="M16 33.0813H45.2056V37.4897H16V33.0813Z" fill="#B76E00"/>
</g>
<defs>
<linearGradient id="paint0_linear_296_2015" x1="43.8414" y1="68.4015" x2="70.1982" y2="12.921" gradientUnits="userSpaceOnUse">
<stop/>
<stop offset="1" stop-opacity="0.01"/>
</linearGradient>
<clipPath id="clip0_296_2015">
<rect width="64" height="64" fill="white"/>
</clipPath>
</defs>
</svg>
