<svg width="64" height="64" viewBox="0 0 64 64" fill="none" xmlns="http://www.w3.org/2000/svg">
<g clip-path="url(#clip0_296_3264)">
<mask id="mask0_296_3264" style="mask-type:alpha" maskUnits="userSpaceOnUse" x="0" y="7" width="64" height="53">
<path d="M58.9345 16.6644C50.7574 10.3778 42.8261 15.5013 33.9795 13.6898C25.069 11.8652 21.5189 5.78979 11.37 8.59417C2.37975 11.0783 -3.07525 21.038 1.867 29.3764C3.27537 31.7525 5.67462 33.5452 6.65512 36.2038C8.23675 40.4927 5.82925 43.7854 6.29887 48.0003C8.25037 65.5129 34.9956 58.7295 44.8368 53.2809C60.2705 44.7359 70.7115 25.7188 58.9345 16.6644Z" fill="url(#paint0_linear_296_3264)" fill-opacity="0.16"/>
</mask>
<g mask="url(#mask0_296_3264)">
<path d="M58.9345 16.6644C50.7574 10.3778 42.8261 15.5013 33.9795 13.6898C25.069 11.8652 21.5189 5.78979 11.37 8.59417C2.37975 11.0783 -3.07525 21.038 1.867 29.3764C3.27537 31.7525 5.67462 33.5452 6.65512 36.2038C8.23675 40.4927 5.82925 43.7854 6.29887 48.0003C8.25037 65.5129 34.9956 58.7295 44.8368 53.2809C60.2705 44.7359 70.7115 25.7188 58.9345 16.6644Z" fill="#00A76F"/>
</g>
<path opacity="0.08" d="M51.3966 10.297C50.9324 10.297 50.4683 10.1203 50.1149 9.76702C49.4083 9.0604 49.4083 7.91052 50.1149 7.20377C50.8216 6.49702 51.9716 6.49702 52.6782 7.20377C53.3848 7.91052 53.3848 9.06027 52.6782 9.76702C52.3249 10.1203 51.8608 10.297 51.3966 10.297ZM51.3967 7.92314C51.2526 7.92314 51.1086 7.97789 50.9989 8.08764C50.7797 8.30689 50.7797 8.66377 50.9989 8.88315C51.2182 9.1024 51.5751 9.10252 51.7944 8.88315C52.0137 8.6639 52.0137 8.30702 51.7944 8.08764C51.6847 7.97789 51.5407 7.92314 51.3967 7.92314Z" fill="#00A76F"/>
<path opacity="0.24" d="M54.54 16.4084C54.0759 16.4086 53.6118 16.2318 53.2584 15.8784C52.916 15.5361 52.7275 15.0809 52.7275 14.5968C52.7275 14.1127 52.916 13.6575 53.2584 13.3152C53.9649 12.6085 55.1148 12.6084 55.8215 13.3152C56.1639 13.6575 56.3524 14.1127 56.3524 14.5968C56.3524 15.0811 56.1639 15.5362 55.8214 15.8784C55.4684 16.2317 55.0042 16.4084 54.54 16.4084ZM54.54 14.0345C54.396 14.0345 54.2519 14.0893 54.1423 14.199C54.0359 14.3053 53.9775 14.4465 53.9775 14.5968C53.9775 14.7471 54.036 14.8883 54.1423 14.9946C54.3617 15.2139 54.7185 15.2139 54.9378 14.9946C55.0442 14.8883 55.1025 14.7471 55.1025 14.5968C55.1025 14.4465 55.044 14.3054 54.9378 14.199C54.8282 14.0893 54.6842 14.0345 54.54 14.0345Z" fill="#00A76F"/>
<path opacity="0.08" d="M13.1719 29.595C12.7078 29.595 12.2436 29.4182 11.8903 29.065C11.1837 28.3582 11.1837 27.2083 11.8903 26.5017C12.5969 25.7952 13.7469 25.7951 14.4536 26.5017C15.1602 27.2085 15.1602 28.3582 14.4536 29.065C14.1003 29.4182 13.6361 29.595 13.1719 29.595ZM13.1719 27.2211C13.0279 27.2211 12.8838 27.2758 12.7742 27.3856C12.5548 27.6048 12.5548 27.9617 12.7742 28.1811C12.9934 28.4005 13.3504 28.4003 13.5697 28.1811C13.7891 27.9618 13.7891 27.605 13.5697 27.3856C13.4601 27.2758 13.3161 27.2211 13.1719 27.2211Z" fill="#00A76F"/>
<path opacity="0.48" d="M12.3662 35.2127C12.2062 35.2127 12.0463 35.1517 11.9242 35.0297L11.1787 34.2842L10.4332 35.0297C10.1891 35.2737 9.79343 35.2737 9.5493 35.0297C9.30518 34.7855 9.30518 34.3898 9.5493 34.1458L10.7368 32.9583C10.9809 32.7143 11.3766 32.7143 11.6207 32.9583L12.8082 34.1458C13.0523 34.3899 13.0523 34.7857 12.8082 35.0297C12.6861 35.1515 12.5262 35.2127 12.3662 35.2127Z" fill="#00A76F"/>
<path opacity="0.24" d="M53.3525 53.3126C53.1925 53.3126 53.0326 53.2516 52.9105 53.1296L52.165 52.3841L51.4195 53.1296C51.1754 53.3736 50.7798 53.3736 50.5356 53.1296C50.2915 52.8855 50.2915 52.4897 50.5356 52.2457L51.7231 51.0582C51.9673 50.8142 52.3629 50.8142 52.607 51.0582L53.7945 52.2457C54.0386 52.4899 54.0386 52.8856 53.7945 53.1296C53.6724 53.2515 53.5125 53.3126 53.3525 53.3126Z" fill="#00A76F"/>
<path d="M48 25.3631V38.6353C48 39.4756 47.5333 40.2297 46.7823 40.6052L32.6461 47.7683C32.3381 47.9214 32.0013 47.9982 31.6652 47.9982H31.6514C31.3053 47.9957 30.9598 47.9133 30.6462 47.7496L30.6406 47.7464L17.1814 40.6033C16.4529 40.2216 16 39.4743 16 38.6515V25.3468C16 24.9713 16.0937 24.6127 16.2649 24.2966C16.4699 23.9192 16.7847 23.6031 17.1815 23.3956L30.6461 16.2494C31.2696 15.9239 32.0169 15.917 32.6461 16.2306L32.6523 16.2331L46.7824 23.3931C47.1972 23.6006 47.5252 23.9236 47.7352 24.3128C47.9063 24.6283 48 24.9869 48 25.3631Z" fill="#FFD666"/>
<path d="M47.9999 25.363V38.6352C47.9999 39.4755 47.5332 40.2296 46.7822 40.6051L32.646 47.7682C32.338 47.9213 32.0012 47.9982 31.6651 47.9982H31.6514V32.2606L47.7351 24.3127C47.9062 24.6282 47.9999 24.9869 47.9999 25.363Z" fill="#FFAB00"/>
<path d="M47.7358 24.3128L40.5733 27.8522L38.8114 28.7231L31.6521 32.2606L16.2656 24.2965C16.4706 23.9192 16.7854 23.603 17.1822 23.3956L22.9546 20.3317L24.9557 19.2695L30.6469 16.2493C30.9611 16.085 31.3066 16.0019 31.6521 16C31.9932 15.9982 32.3344 16.075 32.6467 16.2306L32.653 16.2331L46.783 23.3931C47.1979 23.6005 47.5259 23.9235 47.7358 24.3128Z" fill="#FFF5CC"/>
<path d="M40.612 28.1189C40.612 28.1189 40.612 28.1189 40.612 28.1195V33.0484C40.612 33.5657 40.1922 33.9856 39.6748 33.9856C39.1575 33.9856 38.7377 33.5657 38.7377 33.0484V28.6843L31.6514 24.9344L22.9539 20.3317L24.955 19.2695L31.6514 22.8133L40.1134 27.2911C40.1147 27.2917 40.1159 27.2923 40.1172 27.293C40.1353 27.303 40.1528 27.3142 40.1703 27.3248C40.1797 27.3305 40.1897 27.3361 40.199 27.3423L40.1997 27.343C40.2728 27.3923 40.3371 27.451 40.3915 27.516C40.394 27.5192 40.3965 27.5217 40.3983 27.5242C40.4121 27.5404 40.424 27.5579 40.4365 27.5748C40.4421 27.5829 40.4483 27.5904 40.454 27.5992C40.4627 27.6117 40.4696 27.6248 40.4777 27.6379C40.4858 27.6517 40.4946 27.6654 40.5021 27.6798C40.5065 27.6879 40.5102 27.696 40.514 27.7042C40.524 27.7242 40.5333 27.7442 40.5421 27.7648C40.5433 27.7679 40.544 27.7704 40.5452 27.7729C40.5558 27.7992 40.5646 27.8254 40.5721 27.8523C40.5896 27.9079 40.6015 27.966 40.6071 28.026C40.6102 28.057 40.612 28.0877 40.612 28.1189Z" fill="#FFD666"/>
<path d="M40.6109 28.119C40.6109 28.119 40.6109 28.119 40.6109 28.1196V33.0485C40.6109 33.5658 40.1911 33.9857 39.6738 33.9857C39.1564 33.9857 38.7366 33.5658 38.7366 33.0485V28.7587L40.5709 27.8522C40.5884 27.9078 40.6003 27.9659 40.6059 28.0259C40.6091 28.0571 40.6109 28.0877 40.6109 28.119Z" fill="#B76E00"/>
</g>
<defs>
<linearGradient id="paint0_linear_296_3264" x1="43.8414" y1="68.4015" x2="70.1982" y2="12.921" gradientUnits="userSpaceOnUse">
<stop/>
<stop offset="1" stop-opacity="0.01"/>
</linearGradient>
<clipPath id="clip0_296_3264">
<rect width="64" height="64" fill="white"/>
</clipPath>
</defs>
</svg>
