<svg width="64" height="64" viewBox="0 0 64 64" fill="none" xmlns="http://www.w3.org/2000/svg">
<g clip-path="url(#clip0_296_3263)">
<mask id="mask0_296_3263" style="mask-type:alpha" maskUnits="userSpaceOnUse" x="0" y="7" width="64" height="53">
<path d="M58.9345 16.6644C50.7574 10.3778 42.8261 15.5013 33.9795 13.6898C25.069 11.8652 21.5189 5.78979 11.37 8.59417C2.37975 11.0783 -3.07525 21.038 1.867 29.3764C3.27537 31.7525 5.67462 33.5452 6.65512 36.2038C8.23675 40.4927 5.82925 43.7854 6.29887 48.0003C8.25037 65.5129 34.9956 58.7295 44.8368 53.2809C60.2705 44.7359 70.7115 25.7188 58.9345 16.6644Z" fill="url(#paint0_linear_296_3263)" fill-opacity="0.16"/>
</mask>
<g mask="url(#mask0_296_3263)">
<path d="M58.9345 16.6644C50.7574 10.3778 42.8261 15.5013 33.9795 13.6898C25.069 11.8652 21.5189 5.78979 11.37 8.59417C2.37975 11.0783 -3.07525 21.038 1.867 29.3764C3.27537 31.7525 5.67462 33.5452 6.65512 36.2038C8.23675 40.4927 5.82925 43.7854 6.29887 48.0003C8.25037 65.5129 34.9956 58.7295 44.8368 53.2809C60.2705 44.7359 70.7115 25.7188 58.9345 16.6644Z" fill="#00A76F"/>
</g>
<path opacity="0.08" d="M51.3966 10.297C50.9324 10.297 50.4683 10.1203 50.1149 9.76702C49.4083 9.0604 49.4083 7.91052 50.1149 7.20377C50.8216 6.49702 51.9716 6.49702 52.6782 7.20377C53.3848 7.91052 53.3848 9.06027 52.6782 9.76702C52.3249 10.1203 51.8608 10.297 51.3966 10.297ZM51.3967 7.92314C51.2526 7.92314 51.1086 7.97789 50.9989 8.08764C50.7797 8.30689 50.7797 8.66377 50.9989 8.88315C51.2182 9.1024 51.5751 9.10252 51.7944 8.88315C52.0137 8.6639 52.0137 8.30702 51.7944 8.08764C51.6847 7.97789 51.5407 7.92314 51.3967 7.92314Z" fill="#00A76F"/>
<path opacity="0.24" d="M54.54 16.4084C54.0759 16.4086 53.6118 16.2318 53.2584 15.8784C52.916 15.5361 52.7275 15.0809 52.7275 14.5968C52.7275 14.1127 52.916 13.6575 53.2584 13.3152C53.9649 12.6085 55.1148 12.6084 55.8215 13.3152C56.1639 13.6575 56.3524 14.1127 56.3524 14.5968C56.3524 15.0811 56.1639 15.5362 55.8214 15.8784C55.4684 16.2317 55.0042 16.4084 54.54 16.4084ZM54.54 14.0345C54.396 14.0345 54.2519 14.0893 54.1423 14.199C54.0359 14.3053 53.9775 14.4465 53.9775 14.5968C53.9775 14.7471 54.036 14.8883 54.1423 14.9946C54.3617 15.2139 54.7185 15.2139 54.9378 14.9946C55.0442 14.8883 55.1025 14.7471 55.1025 14.5968C55.1025 14.4465 55.044 14.3054 54.9378 14.199C54.8282 14.0893 54.6842 14.0345 54.54 14.0345Z" fill="#00A76F"/>
<path opacity="0.08" d="M13.1719 29.595C12.7078 29.595 12.2436 29.4182 11.8903 29.065C11.1837 28.3582 11.1837 27.2083 11.8903 26.5017C12.5969 25.7952 13.7469 25.7951 14.4536 26.5017C15.1602 27.2085 15.1602 28.3582 14.4536 29.065C14.1003 29.4182 13.6361 29.595 13.1719 29.595ZM13.1719 27.2211C13.0279 27.2211 12.8838 27.2758 12.7742 27.3856C12.5548 27.6048 12.5548 27.9617 12.7742 28.1811C12.9934 28.4005 13.3504 28.4003 13.5697 28.1811C13.7891 27.9618 13.7891 27.605 13.5697 27.3856C13.4601 27.2758 13.3161 27.2211 13.1719 27.2211Z" fill="#00A76F"/>
<path opacity="0.48" d="M12.3662 35.2127C12.2062 35.2127 12.0463 35.1517 11.9242 35.0297L11.1787 34.2842L10.4332 35.0297C10.1891 35.2737 9.79343 35.2737 9.5493 35.0297C9.30518 34.7855 9.30518 34.3898 9.5493 34.1458L10.7368 32.9583C10.9809 32.7143 11.3766 32.7143 11.6207 32.9583L12.8082 34.1458C13.0523 34.3899 13.0523 34.7857 12.8082 35.0297C12.6861 35.1515 12.5262 35.2127 12.3662 35.2127Z" fill="#00A76F"/>
<path opacity="0.24" d="M53.3525 53.3126C53.1925 53.3126 53.0326 53.2516 52.9105 53.1296L52.165 52.3841L51.4195 53.1296C51.1754 53.3736 50.7798 53.3736 50.5356 53.1296C50.2915 52.8855 50.2915 52.4897 50.5356 52.2457L51.7231 51.0582C51.9673 50.8142 52.3629 50.8142 52.607 51.0582L53.7945 52.2457C54.0386 52.4899 54.0386 52.8856 53.7945 53.1296C53.6724 53.2515 53.5125 53.3126 53.3525 53.3126Z" fill="#00A76F"/>
<path d="M34.0285 42.5509C39.2046 41.3274 42.4088 36.1395 41.1852 30.9634C39.9617 25.7873 34.7738 22.5831 29.5977 23.8067C24.4215 25.0302 21.2173 30.2181 22.4409 35.3942C23.6644 40.5703 28.8523 43.7745 34.0285 42.5509Z" fill="#FFD666"/>
<path d="M31.8136 23.5548V42.8193C37.1249 42.8193 41.4458 38.4983 41.4458 33.1871C41.4458 27.8759 37.1248 23.5548 31.8136 23.5548Z" fill="#FFAB00"/>
<path d="M42.2873 22.7128C39.9941 20.4197 37.0814 18.9717 33.9268 18.5237L34.85 17.6004C35.2161 17.2342 35.2161 16.6407 34.85 16.2745C34.4839 15.9085 33.8903 15.9085 33.5242 16.2745L31.15 18.6487C30.7839 19.0148 30.7839 19.6084 31.15 19.9745L33.5241 22.3487C33.7072 22.5317 33.9471 22.6233 34.187 22.6233C34.4269 22.6233 34.6669 22.5317 34.8499 22.3487C35.216 21.9826 35.216 21.389 34.8499 21.0229L34.321 20.494C40.2586 21.6652 44.7508 26.9111 44.7508 33.1871C44.7509 40.3211 38.9469 46.125 31.8129 46.125C24.679 46.125 18.875 40.3211 18.875 33.1871C18.875 30.4649 19.7104 27.8609 21.2911 25.6567C22.8389 23.4981 24.9726 21.8874 27.4618 20.9988C27.9494 20.8247 28.2036 20.2883 28.0295 19.8006C27.8554 19.313 27.3189 19.0589 26.8313 19.2329C23.9811 20.2505 21.5384 22.094 19.7673 24.5641C17.9569 27.0888 17 30.0706 17 33.1872C17 37.1439 18.5408 40.8637 21.3386 43.6615C24.1364 46.4591 27.8563 48 31.8129 48C35.7696 48 39.4894 46.4592 42.2873 43.6614C45.0851 40.8636 46.6259 37.1438 46.6259 33.1871C46.6259 29.2304 45.085 25.5106 42.2873 22.7128Z" fill="#00B8D9"/>
<path d="M32.9591 32.2568C32.2175 31.9947 31.3983 31.6788 30.9456 31.3238C30.8323 31.2349 30.784 31.0098 30.828 30.7763C30.8511 30.6538 30.9584 30.2445 31.3706 30.1204C32.0961 29.9018 32.5903 30.1893 32.7692 30.3228C33.1841 30.633 33.7715 30.5481 34.0814 30.1333C34.3915 29.7186 34.3066 29.1312 33.8919 28.8212C33.72 28.6927 33.3009 28.4178 32.701 28.2687V28.0171C32.701 27.4993 32.2813 27.0796 31.7635 27.0796C31.2458 27.0796 30.826 27.4993 30.826 28.0171V28.3264C29.8811 28.6127 29.176 29.4178 28.9855 30.429C28.8093 31.3642 29.117 32.2723 29.7886 32.7991C30.4528 33.32 31.4045 33.696 32.3341 34.0246C33.0675 34.2838 33.0891 34.8453 33.0367 35.157C32.9493 35.6771 32.5116 36.2394 31.7573 36.2444C30.9696 36.2495 30.7456 36.2141 30.1511 35.8251C29.7177 35.5416 29.1368 35.6631 28.8533 36.0965C28.5698 36.5298 28.6913 37.1108 29.1246 37.3943C29.7712 37.8173 30.2558 38.0018 30.826 38.0756V38.3569C30.826 38.8746 31.2458 39.2944 31.7635 39.2944C32.2813 39.2944 32.701 38.8746 32.701 38.3569V37.9798C33.1428 37.8454 33.5465 37.6158 33.8944 37.2962C34.4161 36.8169 34.7681 36.1675 34.8858 35.4677C35.1259 34.0395 34.3516 32.7491 32.9591 32.2568Z" fill="#B76E00"/>
<path d="M33.9274 18.5237L34.8506 17.6004C35.2168 17.2342 35.2168 16.6407 34.8506 16.2745C34.4846 15.9085 33.8909 15.9085 33.5248 16.2745L31.1507 18.6487C30.7846 19.0148 30.7846 19.6084 31.1507 19.9745L33.5248 22.3487C33.7079 22.5317 33.9478 22.6233 34.1877 22.6233C34.4276 22.6233 34.6676 22.5317 34.8506 22.3487C35.2167 21.9826 35.2167 21.389 34.8506 21.0229L34.3217 20.494C40.2593 21.6652 44.7514 26.9111 44.7514 33.1871C44.7516 40.3211 38.9476 46.125 31.8136 46.125V48C35.7703 48 39.4901 46.4592 42.2879 43.6614C45.0858 40.8636 46.6266 37.1438 46.6266 33.1871C46.6266 29.2304 45.0858 25.5106 42.2879 22.7128C39.9948 20.4197 37.0821 18.9717 33.9274 18.5237Z" fill="#00B8D9"/>
<path d="M32.9582 32.257C32.577 32.1222 32.1755 31.9731 31.8136 31.8119V33.8356C31.9863 33.9007 32.1602 33.9636 32.3333 34.0248C33.0666 34.2839 33.0882 34.8455 33.0359 35.1571C32.9507 35.6638 32.5323 36.2089 31.8136 36.2416V39.292C32.3075 39.2654 32.7002 38.8576 32.7002 38.3571V37.9799C33.1419 37.8456 33.5456 37.616 33.8935 37.2964C34.4152 36.8171 34.7672 36.1677 34.8849 35.4679C35.1251 34.0396 34.3508 32.7492 32.9582 32.257Z" fill="#B76E00"/>
<path d="M31.8136 27.0823V30.0438C32.2968 30.0221 32.6289 30.2188 32.7684 30.323C33.1832 30.6331 33.7706 30.5483 34.0806 30.1335C34.3906 29.7188 34.3057 29.1313 33.8911 28.8213C33.7192 28.6928 33.3 28.418 32.7002 28.2688V28.0173C32.7002 27.5166 32.3075 27.1089 31.8136 27.0823Z" fill="#B76E00"/>
</g>
<defs>
<linearGradient id="paint0_linear_296_3263" x1="43.8414" y1="68.4015" x2="70.1982" y2="12.921" gradientUnits="userSpaceOnUse">
<stop/>
<stop offset="1" stop-opacity="0.01"/>
</linearGradient>
<clipPath id="clip0_296_3263">
<rect width="64" height="64" fill="white"/>
</clipPath>
</defs>
</svg>
