<svg width="200" height="200" viewBox="0 0 200 200" fill="none" xmlns="http://www.w3.org/2000/svg">
<path opacity="0.24" d="M100 156C130.928 156 156 130.928 156 100C156 69.0721 130.928 44 100 44C69.0721 44 44 69.0721 44 100C44 130.928 69.0721 156 100 156Z" fill="#919EAB"/>
<path d="M99.9996 100.426C105.985 100.426 110.837 95.8531 110.837 90.2128C110.837 84.5724 105.985 80 99.9996 80C94.0143 80 89.1622 84.5724 89.1622 90.2128C89.1622 95.8531 94.0143 100.426 99.9996 100.426ZM92.5445 103.604C97.3943 102.09 102.605 102.09 107.455 103.604C112.222 105.092 116.174 108.401 118.415 112.782L119.639 115.174C120.481 116.819 119.801 118.822 118.12 119.647C117.647 119.879 117.125 120 116.595 120H83.4039C81.524 120 80 118.508 80 116.667C80 116.148 80.1235 115.637 80.3606 115.174L81.5843 112.782C83.8255 108.401 87.7774 105.092 92.5445 103.604Z" fill="#919EAB"/>
</svg>
