<svg width="200" height="200" viewBox="0 0 200 200" fill="none" xmlns="http://www.w3.org/2000/svg">
<path opacity="0.24" d="M24 48C24 43.5817 27.5817 40 32 40H168C172.418 40 176 43.5817 176 48V64C176 68.4183 172.418 72 168 72H32C27.5817 72 24 68.4183 24 64V48Z" fill="#919EAB"/>
<path opacity="0.24" d="M24 92C24 87.5817 27.5817 84 32 84H168C172.418 84 176 87.5817 176 92V108C176 112.418 172.418 116 168 116H32C27.5817 116 24 112.418 24 108V92Z" fill="#919EAB"/>
<path opacity="0.24" d="M24 136C24 131.582 27.5817 128 32 128H168C172.418 128 176 131.582 176 136V152C176 156.418 172.418 160 168 160H32C27.5817 160 24 156.418 24 152V136Z" fill="#919EAB"/>
<path opacity="0.48" d="M161.994 52.3483L156.986 57.2461L151.977 52.3483C151.519 51.916 150.792 51.9221 150.342 52.3622C149.892 52.8023 149.885 53.5139 150.327 53.9615L156.161 59.666C156.616 60.1113 157.355 60.1113 157.81 59.666L163.644 53.9615C163.947 53.6751 164.069 53.2509 163.962 52.852C163.855 52.4531 163.537 52.1416 163.129 52.0372C162.721 51.9328 162.287 52.0517 161.994 52.3483Z" fill="#919EAB"/>
<path opacity="0.48" d="M161.994 96.3483L156.986 101.246L151.977 96.3483C151.519 95.916 150.792 95.9221 150.342 96.3622C149.892 96.8023 149.885 97.5139 150.327 97.9615L156.161 103.666C156.616 104.111 157.355 104.111 157.81 103.666L163.644 97.9615C163.947 97.6751 164.069 97.2509 163.962 96.852C163.855 96.4531 163.537 96.1416 163.129 96.0372C162.721 95.9328 162.287 96.0517 161.994 96.3483Z" fill="#919EAB"/>
<path opacity="0.48" d="M161.994 140.348L156.986 145.246L151.977 140.348C151.519 139.916 150.792 139.922 150.342 140.362C149.892 140.802 149.885 141.514 150.327 141.962L156.161 147.666C156.616 148.111 157.355 148.111 157.81 147.666L163.644 141.962C163.947 141.675 164.069 141.251 163.962 140.852C163.855 140.453 163.537 140.142 163.129 140.037C162.721 139.933 162.287 140.052 161.994 140.348Z" fill="#919EAB"/>
<rect x="36" y="51" width="40" height="10" rx="5" fill="#919EAB"/>
<rect opacity="0.48" x="36" y="95" width="64" height="10" rx="5" fill="#919EAB"/>
<rect opacity="0.24" x="36" y="139" width="80" height="10" rx="5" fill="#919EAB"/>
</svg>
