<svg width="200" height="200" viewBox="0 0 200 200" fill="none" xmlns="http://www.w3.org/2000/svg">
<path opacity="0.24" d="M24 76C24 69.3726 29.3726 64 36 64H164C170.627 64 176 69.3726 176 76V124C176 130.627 170.627 136 164 136H36C29.3726 136 24 130.627 24 124V76Z" fill="#919EAB"/>
<rect opacity="0.48" x="86" y="86" width="32" height="10" rx="5" fill="#919EAB"/>
<rect opacity="0.24" x="86" y="104" width="64" height="10" rx="5" fill="#919EAB"/>
<path fill-rule="evenodd" clip-rule="evenodd" d="M59.9848 86.6651L73.2412 108.085C74.2211 109.65 74.2541 111.609 73.3276 113.204C72.2696 114.955 70.3315 116.021 68.2463 116H41.7336C39.6341 116.007 37.6927 114.914 36.6523 113.137C35.7527 111.559 35.7856 109.633 36.7387 108.085L49.995 86.6651C51.0844 85.0047 52.9674 84 54.9899 84C57.0125 84 58.8955 85.0047 59.9848 86.6651ZM52.2857 109.333C52.2857 110.806 53.5009 112 55 112C56.4991 112 57.7143 110.806 57.7143 109.333C57.7143 107.861 56.4991 106.667 55 106.667C53.5009 106.667 52.2857 107.861 52.2857 109.333ZM55 104C56.4991 104 57.7143 102.806 57.7143 101.333V90.6667C57.7143 89.1939 56.4991 88 55 88C53.5009 88 52.2857 89.1939 52.2857 90.6667V101.333C52.2857 102.806 53.5009 104 55 104Z" fill="#919EAB"/>
</svg>
