<svg width="200" height="200" viewBox="0 0 200 200" fill="none" xmlns="http://www.w3.org/2000/svg">
<path opacity="0.24" d="M24 98C24 91.3726 29.3726 86 36 86H164C170.627 86 176 91.3726 176 98V146C176 152.627 170.627 158 164 158H36C29.3726 158 24 152.627 24 146V98Z" fill="#919EAB"/>
<rect opacity="0.48" x="40" y="108" width="32" height="10" rx="5" fill="#919EAB"/>
<rect opacity="0.24" x="40" y="126" width="64" height="10" rx="5" fill="#919EAB"/>
<rect opacity="0.24" x="36" y="42" width="128" height="36" rx="18" fill="#919EAB"/>
<path opacity="0.48" d="M53.88 53C57.1274 53 59.76 55.6326 59.76 58.88C59.76 59.9963 59.4489 61.04 58.9087 61.929L61.5899 64.6101C62.1367 65.1568 62.1367 66.0432 61.5899 66.5899C61.0598 67.1201 60.2102 67.1362 59.6607 66.6381L59.6101 66.5899L56.929 63.9087C56.0399 64.4489 54.9963 64.76 53.88 64.76C50.6326 64.76 48 62.1274 48 58.88C48 55.6326 50.6326 53 53.88 53ZM53.88 55.8C52.179 55.8 50.8 57.179 50.8 58.88C50.8 60.581 52.179 61.96 53.88 61.96C54.7105 61.96 55.4822 61.6336 56.0579 61.0579C56.6336 60.4822 56.96 59.7105 56.96 58.88C56.96 57.179 55.581 55.8 53.88 55.8Z" fill="#919EAB"/>
<rect x="72" y="55" width="56" height="10" rx="5" fill="#919EAB"/>
</svg>
