<svg width="200" height="200" viewBox="0 0 200 200" fill="none" xmlns="http://www.w3.org/2000/svg">
<path d="M67.6551 75.3906H53.4894C48.9734 75.3906 45.3125 79.0633 45.3125 83.5938V116.406C45.3125 120.937 48.9734 124.609 53.4894 124.609H67.6551C69.0221 124.609 70.2986 123.924 71.0569 122.783L84.685 102.275C85.6006 100.897 85.6006 99.1026 84.685 97.7249L71.0569 77.2171C70.2986 76.076 69.0221 75.3906 67.6551 75.3906Z" fill="#919EAB"/>
<path opacity="0.24" d="M138.622 75.3906H85.6598C84.152 75.3906 82.7666 76.2232 82.0551 77.5568C81.3436 78.8904 81.4216 80.5087 82.2579 81.7673L92.8622 97.7249C93.7778 99.1026 93.7778 100.897 92.8622 102.275L82.2579 118.233C81.4216 119.491 81.3436 121.11 82.0551 122.443C82.7666 123.777 84.152 124.609 85.6598 124.609H138.622C139.989 124.609 141.265 123.924 142.024 122.783L152.628 106.825C155.374 102.692 155.374 97.3077 152.628 93.1745L142.024 77.2171C141.265 76.076 139.989 75.3906 138.622 75.3906Z" fill="#919EAB"/>
</svg>
