<svg width="200" height="200" viewBox="0 0 200 200" fill="none" xmlns="http://www.w3.org/2000/svg">
<path opacity="0.24" fill-rule="evenodd" clip-rule="evenodd" d="M161.888 90.5314C160.073 79.4581 154.429 71.2034 145.558 66.7741C140.115 64.1568 134.47 62.9488 128.422 62.9488C120.156 62.9488 112.496 65.3648 105.641 67.5795L105.036 67.7654C100.058 69.2971 95.8239 70.5994 92.3355 70.5994C89.3115 70.5994 87.0939 69.5928 85.4811 67.5795C84.1806 65.9096 84.9346 63.3849 85.8498 60.3204L85.8502 60.3191C85.928 60.0586 86.0069 59.7942 86.0859 59.5262L86.1294 59.3743C87.3333 55.1686 88.8674 49.8093 85.4811 45.4329C83.4651 42.8156 80.0378 41.4062 76.0058 41.4062C71.9738 41.4062 67.7402 42.8156 64.313 45.0302C47.5801 56.5062 37.5 75.6328 37.5 96.1687C37.5 130.798 65.7242 158.984 100.4 158.984C128.422 158.984 153.219 140.26 160.88 113.282C161.485 110.463 163.501 100.799 161.888 90.5314ZM128.22 106.034C120.358 106.034 114.108 99.7925 114.108 91.9406C114.108 84.0886 120.358 77.8473 128.22 77.8473C136.083 77.8473 142.332 84.0886 142.332 91.9406C142.332 99.7925 136.083 106.034 128.22 106.034ZM91.9323 132.207C91.9323 136.637 95.5611 140.26 99.9963 140.26C104.432 140.26 108.06 136.637 108.06 132.207C108.06 127.778 104.432 124.154 99.9963 124.154C95.5611 124.154 91.9323 127.778 91.9323 132.207ZM70.9012 128.133C66.8716 127.696 63.7081 124.263 63.7081 120.127C63.7081 116.252 66.4864 112.992 70.1523 112.238C70.676 112.131 71.2178 112.074 71.7722 112.074C71.7721 112.074 71.7723 112.074 71.7722 112.074C76.2074 112.074 79.8365 115.698 79.8365 120.127C79.8365 124.003 77.058 127.262 73.3921 128.016C72.8685 128.124 72.3268 128.18 71.7726 128.18C71.7724 128.18 71.7727 128.18 71.7726 128.18C71.4784 128.18 71.1874 128.165 70.9012 128.133ZM55.6445 91.9408C55.6445 87.5114 59.2734 83.8875 63.7086 83.8875C68.1438 83.8875 71.7726 87.5114 71.7726 91.9408C71.7726 96.3701 68.1438 99.994 63.7086 99.994C59.2734 99.994 55.6445 96.3701 55.6445 91.9408Z" fill="#919EAB"/>
<path opacity="0.48" fill-rule="evenodd" clip-rule="evenodd" d="M91.9323 132.207C91.9323 136.637 95.5611 140.26 99.9963 140.26C104.432 140.26 108.06 136.637 108.06 132.207C108.06 127.778 104.432 124.154 99.9963 124.154C95.5611 124.154 91.9323 127.778 91.9323 132.207ZM70.9012 128.133C66.8716 127.696 63.7081 124.263 63.7081 120.127C63.7081 116.252 66.4864 112.992 70.1523 112.238C70.676 112.131 71.2178 112.074 71.7722 112.074C76.2074 112.074 79.8365 115.698 79.8365 120.127C79.8365 124.003 77.058 127.262 73.3921 128.016C72.8685 128.124 72.3268 128.18 71.7726 128.18C71.4784 128.18 71.1874 128.165 70.9012 128.133ZM55.6445 91.9408C55.6445 87.5114 59.2734 83.8875 63.7086 83.8875C68.1438 83.8875 71.7726 87.5114 71.7726 91.9408C71.7726 96.3701 68.1438 99.994 63.7086 99.994C59.2734 99.994 55.6445 96.3701 55.6445 91.9408Z" fill="#919EAB"/>
<path fill-rule="evenodd" clip-rule="evenodd" d="M128.22 106.034C120.358 106.034 114.108 99.7925 114.108 91.9406C114.108 84.0886 120.358 77.8473 128.22 77.8473C136.083 77.8473 142.333 84.0886 142.333 91.9406C142.333 99.7925 136.083 106.034 128.22 106.034Z" fill="#919EAB"/>
</svg>
