<svg width="200" height="200" viewBox="0 0 200 200" fill="none" xmlns="http://www.w3.org/2000/svg">
<path opacity="0.24" fill-rule="evenodd" clip-rule="evenodd" d="M76 64C69.3726 64 64 69.3726 64 76V124C64 130.627 69.3726 136 76 136H124C130.627 136 136 130.627 136 124V76C136 69.3726 130.627 64 124 64H76ZM82 72C76.4772 72 72 76.4772 72 82V118C72 123.523 76.4772 128 82 128H118C123.523 128 128 123.523 128 118V82C128 76.4772 123.523 72 118 72H82Z" fill="#919EAB"/>
<path d="M113.049 86.3387C114.51 84.6906 117.025 84.5441 118.667 86.0113C120.282 87.4549 120.449 89.9228 119.062 91.5716L118.993 91.652L98.7952 114.431C97.2974 116.12 94.7101 116.221 93.0862 114.674L93.0096 114.599L81.1655 102.707C79.6115 101.146 79.6115 98.6168 81.1655 97.0565C82.6939 95.5218 85.1565 95.4967 86.7156 96.981L86.7927 97.0565L95.6549 105.955L113.049 86.3387Z" fill="#919EAB"/>
</svg>
