<svg width="200" height="200" viewBox="0 0 200 200" fill="none" xmlns="http://www.w3.org/2000/svg">
<rect opacity="0.24" x="24" y="72" width="152" height="56" rx="28" fill="#919EAB"/>
<rect opacity="0.48" x="82" y="93" width="66" height="14" rx="7" fill="#919EAB"/>
<path fill-rule="evenodd" clip-rule="evenodd" d="M74 100C74 112.15 64.1503 122 52 122C39.8497 122 30 112.15 30 100C30 87.8497 39.8497 78 52 78C64.1503 78 74 87.8497 74 100ZM47.4275 109.609L51.4629 107.475C51.7989 107.298 52.2009 107.298 52.5369 107.475L56.5723 109.609C56.8783 109.771 57.2288 109.827 57.5695 109.768C58.4251 109.621 58.9998 108.803 58.8531 107.943L58.0808 103.414C58.0175 103.043 58.1402 102.664 58.409 102.4L61.6789 99.1943C61.9265 98.9516 62.0876 98.6336 62.1373 98.2895C62.2621 97.4253 61.6669 96.623 60.8078 96.4974L56.2943 95.8377C55.9196 95.7829 55.596 95.547 55.4292 95.2071L53.4095 91.0907C53.2565 90.7789 53.0056 90.5265 52.6956 90.3726C51.9171 89.9861 50.9745 90.3076 50.5903 91.0907L48.5706 95.2071C48.4038 95.547 48.0802 95.7829 47.7055 95.8377L43.192 96.4974C42.8499 96.5474 42.5337 96.7095 42.2924 96.9585C41.6865 97.5838 41.6992 98.5848 42.3209 99.1943L45.5908 102.4C45.8596 102.664 45.9822 103.043 45.919 103.414L45.1467 107.943C45.0883 108.285 45.1438 108.638 45.3047 108.946C45.7087 109.719 46.6591 110.016 47.4275 109.609Z" fill="#919EAB"/>
</svg>
