<svg width="200" height="200" viewBox="0 0 200 200" fill="none" xmlns="http://www.w3.org/2000/svg">
<path opacity="0.48" d="M28 60C28 53.3726 33.3726 48 40 48H160C166.627 48 172 53.3726 172 60V72H28V60Z" fill="#919EAB"/>
<path opacity="0.24" d="M28 72V140C28 146.627 33.3726 152 40 152H160C166.627 152 172 146.627 172 140V72H28Z" fill="#919EAB"/>
<g opacity="0.48">
<path d="M40 95C40 91.6863 42.6863 89 46 89H70C73.3137 89 76 91.6863 76 95V103C76 106.314 73.3137 109 70 109H46C42.6863 109 40 106.314 40 103V95Z" fill="#919EAB"/>
<path d="M82 95C82 91.6863 84.6863 89 88 89H154C157.314 89 160 91.6863 160 95V103C160 106.314 157.314 109 154 109H88C84.6863 109 82 106.314 82 103V95Z" fill="#919EAB"/>
</g>
<g opacity="0.24">
<path d="M40 121C40 117.686 42.6863 115 46 115H70C73.3137 115 76 117.686 76 121V129C76 132.314 73.3137 135 70 135H46C42.6863 135 40 132.314 40 129V121Z" fill="#919EAB"/>
<path d="M82 121C82 117.686 84.6863 115 88 115H154C157.314 115 160 117.686 160 121V129C160 132.314 157.314 135 154 135H88C84.6863 135 82 132.314 82 129V121Z" fill="#919EAB"/>
</g>
</svg>
