<svg width="200" height="200" viewBox="0 0 200 200" fill="none" xmlns="http://www.w3.org/2000/svg">
<g filter="url(#filter0_di_1587_120567)">
<rect x="44" y="32" width="112" height="136" rx="12" fill="white"/>
</g>
<g filter="url(#filter1_di_1587_120567)">
<path d="M60 60.0714C60 57.824 61.824 56 64.0714 56H93.9286C96.176 56 98 57.824 98 60.0714V65.5C98 67.7474 96.176 69.5714 93.9286 69.5714C91.6811 69.5714 89.8571 67.7474 89.8571 65.5V64.1429H83.0714V85.8571C85.3189 85.8571 87.1429 87.6811 87.1429 89.9286C87.1429 92.176 85.3189 94 83.0714 94H74.9286C72.6811 94 70.8571 92.176 70.8571 89.9286C70.8571 87.6811 72.6811 85.8571 74.9286 85.8571V64.1429H68.1429V65.5C68.1429 67.7474 66.3189 69.5714 64.0714 69.5714C61.824 69.5714 60 67.7474 60 65.5V60.0714Z" fill="#00A76F"/>
</g>
<rect opacity="0.4" x="110" y="56" width="28" height="10" rx="5" fill="#007867"/>
<rect opacity="0.24" x="110" y="70" width="28" height="10" rx="5" fill="#007867"/>
<rect opacity="0.16" x="110" y="84" width="28" height="10" rx="5" fill="#B76E00"/>
<rect opacity="0.16" x="60" y="106" width="80" height="10" rx="5" fill="#007867"/>
<rect opacity="0.16" x="60" y="120" width="80" height="10" rx="5" fill="#007867"/>
<defs>
<filter id="filter0_di_1587_120567" x="36" y="24" width="144" height="168" filterUnits="userSpaceOnUse" color-interpolation-filters="sRGB">
<feFlood flood-opacity="0" result="BackgroundImageFix"/>
<feColorMatrix in="SourceAlpha" type="matrix" values="0 0 0 0 0 0 0 0 0 0 0 0 0 0 0 0 0 0 127 0" result="hardAlpha"/>
<feOffset dx="8" dy="8"/>
<feGaussianBlur stdDeviation="8"/>
<feColorMatrix type="matrix" values="0 0 0 0 0.770709 0 0 0 0 0.792653 0 0 0 0 0.818587 0 0 0 0.16 0"/>
<feBlend mode="normal" in2="BackgroundImageFix" result="effect1_dropShadow_1587_120567"/>
<feBlend mode="normal" in="SourceGraphic" in2="effect1_dropShadow_1587_120567" result="shape"/>
<feColorMatrix in="SourceAlpha" type="matrix" values="0 0 0 0 0 0 0 0 0 0 0 0 0 0 0 0 0 0 127 0" result="hardAlpha"/>
<feOffset dx="-2" dy="-2"/>
<feGaussianBlur stdDeviation="2"/>
<feComposite in2="hardAlpha" operator="arithmetic" k2="-1" k3="1"/>
<feColorMatrix type="matrix" values="0 0 0 0 0.717499 0 0 0 0 0.740813 0 0 0 0 0.768367 0 0 0 0.48 0"/>
<feBlend mode="normal" in2="shape" result="effect2_innerShadow_1587_120567"/>
</filter>
<filter id="filter1_di_1587_120567" x="56" y="52" width="54" height="54" filterUnits="userSpaceOnUse" color-interpolation-filters="sRGB">
<feFlood flood-opacity="0" result="BackgroundImageFix"/>
<feColorMatrix in="SourceAlpha" type="matrix" values="0 0 0 0 0 0 0 0 0 0 0 0 0 0 0 0 0 0 127 0" result="hardAlpha"/>
<feOffset dx="4" dy="4"/>
<feGaussianBlur stdDeviation="4"/>
<feColorMatrix type="matrix" values="0 0 0 0 0 0 0 0 0 0.470588 0 0 0 0 0.403922 0 0 0 0.16 0"/>
<feBlend mode="normal" in2="BackgroundImageFix" result="effect1_dropShadow_1587_120567"/>
<feBlend mode="normal" in="SourceGraphic" in2="effect1_dropShadow_1587_120567" result="shape"/>
<feColorMatrix in="SourceAlpha" type="matrix" values="0 0 0 0 0 0 0 0 0 0 0 0 0 0 0 0 0 0 127 0" result="hardAlpha"/>
<feOffset dx="-1" dy="-1"/>
<feGaussianBlur stdDeviation="1"/>
<feComposite in2="hardAlpha" operator="arithmetic" k2="-1" k3="1"/>
<feColorMatrix type="matrix" values="0 0 0 0 0 0 0 0 0 0.470588 0 0 0 0 0.403922 0 0 0 0.48 0"/>
<feBlend mode="normal" in2="shape" result="effect2_innerShadow_1587_120567"/>
</filter>
</defs>
</svg>
