<svg width="200" height="200" viewBox="0 0 200 200" fill="none" xmlns="http://www.w3.org/2000/svg">
<path d="M85.3765 62.4485C89.9096 60.6746 94.7751 59.8652 99.6005 60.0934C91.9154 63.2062 84.8636 68.5979 80.3907 76.0131C76.508 82.3603 74.6426 89.9155 74.2959 97.425C73.124 112.198 80.3563 127.104 91.8839 135.292C94.5459 137.151 97.44 138.661 100.5 139.613C93.096 140.1 85.5657 138.207 79.1901 134.172C71.4821 129.359 65.4876 121.533 62.6594 112.52C59.1636 101.563 60.4531 89.0088 66.1954 79.1654C70.5795 71.519 77.4422 65.4973 85.3765 62.4485Z" fill="white"/>
<path d="M55.0763 66.4743C61.4864 62.0293 69.2164 59.6913 76.8804 60.0652C69.7472 63.1968 63.0416 67.9458 58.5769 74.7318C53.171 82.7552 51.2715 92.8795 51.5987 102.593C52.2471 115.737 59.2454 128.275 69.6181 135.453C72.1402 137.235 74.9407 138.481 77.7727 139.582C69.9567 140.108 62.0057 137.91 55.4177 133.428C48.078 128.494 42.4369 120.784 39.7971 112.006C37.4557 104.326 37.3983 95.8834 39.6479 88.1701C42.1872 79.3227 47.7623 71.5121 55.0763 66.4743Z" fill="white"/>
<path opacity="0.16" d="M55.0763 66.4743C61.4864 62.0293 69.2164 59.6913 76.8804 60.0652C69.7472 63.1968 63.0416 67.9458 58.5769 74.7318C53.171 82.7552 51.2715 92.8795 51.5987 102.593C52.2471 115.737 59.2454 128.275 69.6181 135.453C72.1402 137.235 74.9407 138.481 77.7727 139.582C69.9567 140.108 62.0057 137.91 55.4177 133.428C48.078 128.494 42.4369 120.784 39.7971 112.006C37.4557 104.326 37.3983 95.8834 39.6479 88.1701C42.1872 79.3227 47.7623 71.5121 55.0763 66.4743Z" fill="#007867"/>
<path opacity="0.4" d="M85.3765 62.4485C89.9096 60.6746 94.7751 59.8652 99.6005 60.0934C91.9154 63.2062 84.8636 68.5979 80.3907 76.0131C76.508 82.3603 74.6426 89.9155 74.2959 97.425C73.124 112.198 80.3563 127.104 91.8839 135.292C94.5459 137.151 97.44 138.661 100.5 139.613C93.096 140.1 85.5657 138.207 79.1901 134.172C71.4821 129.359 65.4876 121.533 62.6594 112.52C59.1636 101.563 60.4531 89.0088 66.1954 79.1654C70.5795 71.519 77.4422 65.4973 85.3765 62.4485Z" fill="#007867"/>
<g filter="url(#filter0_di_1587_120569)">
<path d="M120.258 60.1121C128.819 59.4587 137.571 61.6771 144.766 66.3723C154.463 72.5869 161.232 83.1897 162.65 94.6373C164.093 105.207 161.019 116.293 154.323 124.595C148.513 131.949 140.028 137.134 130.82 138.899C124.133 140.212 117.112 139.753 110.649 137.587C104.336 135.484 98.5716 131.755 94.0618 126.856C87.6448 119.979 83.8031 110.756 83.4873 101.347C83.1259 92.662 85.7285 83.8887 90.7849 76.8171C97.4904 67.2444 108.59 60.9174 120.258 60.1121Z" fill="#00A76F"/>
</g>
<defs>
<filter id="filter0_di_1587_120569" x="75.4541" y="52" width="111.545" height="111.632" filterUnits="userSpaceOnUse" color-interpolation-filters="sRGB">
<feFlood flood-opacity="0" result="BackgroundImageFix"/>
<feColorMatrix in="SourceAlpha" type="matrix" values="0 0 0 0 0 0 0 0 0 0 0 0 0 0 0 0 0 0 127 0" result="hardAlpha"/>
<feOffset dx="8" dy="8"/>
<feGaussianBlur stdDeviation="8"/>
<feColorMatrix type="matrix" values="0 0 0 0 0 0 0 0 0 0.470588 0 0 0 0 0.403922 0 0 0 0.16 0"/>
<feBlend mode="normal" in2="BackgroundImageFix" result="effect1_dropShadow_1587_120569"/>
<feBlend mode="normal" in="SourceGraphic" in2="effect1_dropShadow_1587_120569" result="shape"/>
<feColorMatrix in="SourceAlpha" type="matrix" values="0 0 0 0 0 0 0 0 0 0 0 0 0 0 0 0 0 0 127 0" result="hardAlpha"/>
<feOffset dx="-2" dy="-2"/>
<feGaussianBlur stdDeviation="2"/>
<feComposite in2="hardAlpha" operator="arithmetic" k2="-1" k3="1"/>
<feColorMatrix type="matrix" values="0 0 0 0 0 0 0 0 0 0.470588 0 0 0 0 0.403922 0 0 0 0.48 0"/>
<feBlend mode="normal" in2="shape" result="effect2_innerShadow_1587_120569"/>
</filter>
</defs>
</svg>
