<svg width="200" height="200" viewBox="0 0 200 200" fill="none" xmlns="http://www.w3.org/2000/svg">
<g filter="url(#filter0_di_1587_120560)">
<path d="M122.371 125.501C118.226 125.701 119.585 130.016 123.735 130.016H137.121C151.391 130.016 163 118.412 163 104.15C163 92.7717 155.613 83.0862 145.381 79.6333C141.21 78.2258 137.357 75.6791 134.44 72.382C129.63 66.9443 122.649 63.6415 115.148 63.6415V63.6415C113.998 63.6415 112.896 63.1239 112.201 62.2064C105.965 53.9694 96.2138 49 85.8516 49C70.4441 49 57.4542 59.5426 53.7246 73.7902C52.5982 78.0933 49.9974 81.9733 46.6751 84.931C41.2767 89.737 38 96.6863 38 104.15C38 118.412 49.6091 130.016 63.8789 130.016H85.8516V130.016C86.1942 130.016 86.3357 129.623 86.1002 129.374C83.9575 127.108 80.9519 125.658 77.6307 125.497C77.1085 125.472 76.6054 125.446 76.1206 125.419C70.1436 125.093 67.6561 119.41 71.5592 114.872C73.8474 112.211 76.8011 108.946 80.5802 105.028C87.1438 98.2252 92.0468 94.3718 95.2898 92.2244C98.2372 90.273 101.845 90.2727 104.793 92.2241C108.036 94.3712 112.939 98.2246 119.502 105.028C123.279 108.944 126.232 112.209 128.52 114.869C132.424 119.409 129.936 125.093 123.958 125.419C123.449 125.447 122.921 125.474 122.371 125.501V125.501Z" fill="white"/>
</g>
<g filter="url(#filter1_di_1587_120560)">
<path fill-rule="evenodd" clip-rule="evenodd" d="M122.371 125.501C116.198 125.8 111.115 130.551 110.635 136.713L109.573 150.354C109.292 153.955 107.554 157.175 103.968 157.603C102.877 157.734 101.567 157.816 100 157.816C98.4332 157.816 97.1239 157.734 96.0326 157.604C92.4461 157.175 90.7078 153.955 90.4271 150.354L89.3645 136.709C88.8847 130.548 83.8025 125.797 77.6305 125.498C77.1083 125.472 76.6051 125.446 76.1204 125.42C70.1434 125.094 67.6559 119.411 71.559 114.872C73.8471 112.211 76.8009 108.946 80.5799 105.029C87.1436 98.2257 92.0466 94.3723 95.2896 92.2249C98.2369 90.2735 101.845 90.2732 104.792 92.2246C108.036 94.3717 112.939 98.2251 119.502 105.029C123.279 108.945 126.232 112.209 128.52 114.87C132.423 119.409 129.936 125.094 123.957 125.42C123.449 125.448 122.921 125.475 122.371 125.501Z" fill="#FFAB00"/>
</g>
<defs>
<filter id="filter0_di_1587_120560" x="30" y="41" width="157" height="113.016" filterUnits="userSpaceOnUse" color-interpolation-filters="sRGB">
<feFlood flood-opacity="0" result="BackgroundImageFix"/>
<feColorMatrix in="SourceAlpha" type="matrix" values="0 0 0 0 0 0 0 0 0 0 0 0 0 0 0 0 0 0 127 0" result="hardAlpha"/>
<feOffset dx="8" dy="8"/>
<feGaussianBlur stdDeviation="8"/>
<feColorMatrix type="matrix" values="0 0 0 0 0.770709 0 0 0 0 0.792653 0 0 0 0 0.818587 0 0 0 0.16 0"/>
<feBlend mode="normal" in2="BackgroundImageFix" result="effect1_dropShadow_1587_120560"/>
<feBlend mode="normal" in="SourceGraphic" in2="effect1_dropShadow_1587_120560" result="shape"/>
<feColorMatrix in="SourceAlpha" type="matrix" values="0 0 0 0 0 0 0 0 0 0 0 0 0 0 0 0 0 0 127 0" result="hardAlpha"/>
<feOffset dx="-2" dy="-2"/>
<feGaussianBlur stdDeviation="2"/>
<feComposite in2="hardAlpha" operator="arithmetic" k2="-1" k3="1"/>
<feColorMatrix type="matrix" values="0 0 0 0 0.717499 0 0 0 0 0.740813 0 0 0 0 0.768367 0 0 0 0.48 0"/>
<feBlend mode="normal" in2="shape" result="effect2_innerShadow_1587_120560"/>
</filter>
<filter id="filter1_di_1587_120560" x="61.6785" y="82.7612" width="92.7219" height="99.0549" filterUnits="userSpaceOnUse" color-interpolation-filters="sRGB">
<feFlood flood-opacity="0" result="BackgroundImageFix"/>
<feColorMatrix in="SourceAlpha" type="matrix" values="0 0 0 0 0 0 0 0 0 0 0 0 0 0 0 0 0 0 127 0" result="hardAlpha"/>
<feOffset dx="8" dy="8"/>
<feGaussianBlur stdDeviation="8"/>
<feColorMatrix type="matrix" values="0 0 0 0 0.717647 0 0 0 0 0.431373 0 0 0 0 0 0 0 0 0.16 0"/>
<feBlend mode="normal" in2="BackgroundImageFix" result="effect1_dropShadow_1587_120560"/>
<feBlend mode="normal" in="SourceGraphic" in2="effect1_dropShadow_1587_120560" result="shape"/>
<feColorMatrix in="SourceAlpha" type="matrix" values="0 0 0 0 0 0 0 0 0 0 0 0 0 0 0 0 0 0 127 0" result="hardAlpha"/>
<feOffset dx="-2" dy="-2"/>
<feGaussianBlur stdDeviation="2"/>
<feComposite in2="hardAlpha" operator="arithmetic" k2="-1" k3="1"/>
<feColorMatrix type="matrix" values="0 0 0 0 0.717647 0 0 0 0 0.431373 0 0 0 0 0 0 0 0 0.48 0"/>
<feBlend mode="normal" in2="shape" result="effect2_innerShadow_1587_120560"/>
</filter>
</defs>
</svg>
