<svg width="200" height="200" viewBox="0 0 200 200" fill="none" xmlns="http://www.w3.org/2000/svg">
<g filter="url(#filter0_di_1587_120558)">
<rect x="74" y="36" width="82" height="96" rx="12" fill="#00A76F"/>
</g>
<path d="M88.5732 139.501C76.37 139.501 66.4375 129.542 66.4375 117.307V63.7812H57.3232C49.422 63.7812 43 70.2193 43 78.1413V148.639C43 156.561 49.422 163 57.3232 163H122.427C130.328 163 136.75 156.561 136.75 148.639V139.501H88.5732Z" fill="white"/>
<path opacity="0.12" d="M88.5732 139.501C76.37 139.501 66.4375 129.542 66.4375 117.307V63.7812H57.3232C49.422 63.7812 43 70.2193 43 78.1413V148.639C43 156.561 49.422 163 57.3232 163H122.427C130.328 163 136.75 156.561 136.75 148.639V139.501H88.5732Z" fill="#007867"/>
<defs>
<filter id="filter0_di_1587_120558" x="66" y="28" width="114" height="128" filterUnits="userSpaceOnUse" color-interpolation-filters="sRGB">
<feFlood flood-opacity="0" result="BackgroundImageFix"/>
<feColorMatrix in="SourceAlpha" type="matrix" values="0 0 0 0 0 0 0 0 0 0 0 0 0 0 0 0 0 0 127 0" result="hardAlpha"/>
<feOffset dx="8" dy="8"/>
<feGaussianBlur stdDeviation="8"/>
<feColorMatrix type="matrix" values="0 0 0 0 0 0 0 0 0 0.470588 0 0 0 0 0.403922 0 0 0 0.16 0"/>
<feBlend mode="normal" in2="BackgroundImageFix" result="effect1_dropShadow_1587_120558"/>
<feBlend mode="normal" in="SourceGraphic" in2="effect1_dropShadow_1587_120558" result="shape"/>
<feColorMatrix in="SourceAlpha" type="matrix" values="0 0 0 0 0 0 0 0 0 0 0 0 0 0 0 0 0 0 127 0" result="hardAlpha"/>
<feOffset dx="-2" dy="-2"/>
<feGaussianBlur stdDeviation="2"/>
<feComposite in2="hardAlpha" operator="arithmetic" k2="-1" k3="1"/>
<feColorMatrix type="matrix" values="0 0 0 0 0 0 0 0 0 0.470588 0 0 0 0 0.403922 0 0 0 0.48 0"/>
<feBlend mode="normal" in2="shape" result="effect2_innerShadow_1587_120558"/>
</filter>
</defs>
</svg>
