<svg width="200" height="200" viewBox="0 0 200 200" fill="none" xmlns="http://www.w3.org/2000/svg">
<path d="M103.491 45.3091C103.491 40.1678 107.659 36 112.8 36H154.691C159.832 36 164 40.1678 164 45.3091V87.2C164 92.3413 159.832 96.5091 154.691 96.5091H112.8C107.659 96.5091 103.491 92.3413 103.491 87.2V45.3091Z" fill="#919EAB"/>
<g opacity="0.24">
<path d="M36 45.3091C36 40.1678 40.1678 36 45.3091 36H87.2C92.3413 36 96.5091 40.1678 96.5091 45.3091V87.2C96.5091 92.3413 92.3413 96.5091 87.2 96.5091H45.3091C40.1678 96.5091 36 92.3413 36 87.2V45.3091Z" fill="#919EAB"/>
<path d="M36 112.8C36 107.659 40.1678 103.491 45.3091 103.491H87.2C92.3413 103.491 96.5091 107.659 96.5091 112.8V154.691C96.5091 159.832 92.3413 164 87.2 164H45.3091C40.1678 164 36 159.832 36 154.691V112.8Z" fill="#919EAB"/>
<path d="M103.491 112.8C103.491 107.659 107.659 103.491 112.8 103.491H154.691C159.832 103.491 164 107.659 164 112.8V154.691C164 159.832 159.832 164 154.691 164H112.8C107.659 164 103.491 159.832 103.491 154.691V112.8Z" fill="#919EAB"/>
</g>
</svg>
