<svg width="200" height="200" viewBox="0 0 200 200" fill="none" xmlns="http://www.w3.org/2000/svg">
<path opacity="0.24" d="M100 164C135.346 164 164 135.346 164 100C164 64.6538 135.346 36 100 36C64.6538 36 36 64.6538 36 100C36 135.346 64.6538 164 100 164Z" fill="#919EAB"/>
<path d="M97.7512 119.585L88.3346 124.535C86.3611 125.573 83.9201 124.814 82.8826 122.841C82.4694 122.055 82.3268 121.155 82.4769 120.28L84.2753 109.794C84.5535 108.172 84.0158 106.517 82.8373 105.368L75.2192 97.9425C73.6225 96.3862 73.5899 93.8302 75.1462 92.2336C75.7659 91.5978 76.578 91.1841 77.4566 91.0564L87.9847 89.5266C89.6132 89.2899 91.021 88.2671 91.7494 86.7914L96.4576 77.2513C97.4444 75.2519 99.8652 74.431 101.865 75.4178C102.661 75.8107 103.305 76.4552 103.698 77.2513L108.406 86.7914C109.135 88.2671 110.543 89.2899 112.171 89.5266L122.699 91.0564C124.906 91.377 126.434 93.4256 126.114 95.6321C125.986 96.5108 125.572 97.3228 124.937 97.9425L117.318 105.368C116.14 106.517 115.602 108.172 115.88 109.794L117.679 120.28C118.056 122.477 116.58 124.564 114.382 124.941C113.507 125.091 112.607 124.949 111.821 124.535L102.405 119.585C100.948 118.819 99.2078 118.819 97.7512 119.585Z" fill="#919EAB"/>
</svg>
