<svg width="200" height="200" viewBox="0 0 200 200" fill="none" xmlns="http://www.w3.org/2000/svg">
<path d="M67 70C67 65.5817 70.5817 62 75 62H127C131.418 62 135 65.5817 135 70C135 74.4183 131.418 78 127 78H75C70.5817 78 67 74.4183 67 70Z" fill="#919EAB"/>
<path d="M46 79C50.9706 79 55 74.9706 55 70C55 65.0294 50.9706 61 46 61C41.0294 61 37 65.0294 37 70C37 74.9706 41.0294 79 46 79Z" fill="#919EAB"/>
<g opacity="0.48">
<path d="M67 100C67 95.5817 70.5817 92 75 92H155C159.418 92 163 95.5817 163 100C163 104.418 159.418 108 155 108H75C70.5817 108 67 104.418 67 100Z" fill="#919EAB"/>
<path d="M46 109C50.9706 109 55 104.971 55 100C55 95.0294 50.9706 91 46 91C41.0294 91 37 95.0294 37 100C37 104.971 41.0294 109 46 109Z" fill="#919EAB"/>
</g>
<g opacity="0.24">
<path d="M67 130C67 125.582 70.5817 122 75 122H107C111.418 122 115 125.582 115 130C115 134.418 111.418 138 107 138H75C70.5817 138 67 134.418 67 130Z" fill="#919EAB"/>
<path d="M46 139C50.9706 139 55 134.971 55 130C55 125.029 50.9706 121 46 121C41.0294 121 37 125.029 37 130C37 134.971 41.0294 139 46 139Z" fill="#919EAB"/>
</g>
</svg>
