<svg width="200" height="200" viewBox="0 0 200 200" fill="none" xmlns="http://www.w3.org/2000/svg">
<path opacity="0.24" d="M40 114C47.732 114 54 107.732 54 100C54 92.268 47.732 86 40 86C32.268 86 26 92.268 26 100C26 107.732 32.268 114 40 114Z" fill="#919EAB"/>
<path opacity="0.24" d="M120 114C127.732 114 134 107.732 134 100C134 92.268 127.732 86 120 86C112.268 86 106 92.268 106 100C106 107.732 112.268 114 120 114Z" fill="#919EAB"/>
<path opacity="0.24" d="M160 114C167.732 114 174 107.732 174 100C174 92.268 167.732 86 160 86C152.268 86 146 92.268 146 100C146 107.732 152.268 114 160 114Z" fill="#919EAB"/>
<path d="M80 114C87.732 114 94 107.732 94 100C94 92.268 87.732 86 80 86C72.268 86 66 92.268 66 100C66 107.732 72.268 114 80 114Z" fill="#919EAB"/>
</svg>
