<svg width="200" height="200" viewBox="0 0 200 200" fill="none" xmlns="http://www.w3.org/2000/svg">
<path opacity="0.24" d="M126.133 143.646C142.628 143.646 156 131.749 156 117.074V70.5723C156 55.8968 142.628 44 126.133 44H73.8667C57.3718 44 44 55.8968 44 70.5723V117.074C44 131.749 57.3718 143.646 73.8667 143.646H81.3333L97.6678 155.272C99.001 156.221 100.883 156.242 102.24 155.335L102.332 155.272L118.667 143.646H126.133Z" fill="#919EAB"/>
<rect x="64" y="77" width="48" height="10" rx="5" fill="#919EAB"/>
<rect opacity="0.24" x="64" y="113" width="48" height="10" rx="5" fill="#919EAB"/>
<rect opacity="0.48" x="64" y="95" width="72" height="10" rx="5" fill="#919EAB"/>
</svg>
