<svg width="200" height="200" viewBox="0 0 200 200" fill="none" xmlns="http://www.w3.org/2000/svg">
<path d="M68 42C68 39.7909 66.2091 38 64 38C61.7909 38 60 39.7909 60 42V54H68V42Z" fill="#919EAB"/>
<path d="M140 42C140 39.7909 138.209 38 136 38C133.791 38 132 39.7909 132 42V54H140V42Z" fill="#919EAB"/>
<path opacity="0.24" d="M28 70C28 63.3726 33.3726 58 40 58H160C166.627 58 172 63.3726 172 70V150C172 156.627 166.627 162 160 162H40C33.3726 162 28 156.627 28 150V70Z" fill="#919EAB"/>
<g opacity="0.24">
<path d="M52 119C52 115.686 54.6863 113 58 113H74C77.3137 113 80 115.686 80 119V127C80 130.314 77.3137 133 74 133H58C54.6863 133 52 130.314 52 127V119Z" fill="#919EAB"/>
<path d="M86 119C86 115.686 88.6863 113 92 113H108C111.314 113 114 115.686 114 119V127C114 130.314 111.314 133 108 133H92C88.6863 133 86 130.314 86 127V119Z" fill="#919EAB"/>
</g>
<g opacity="0.48">
<path d="M52 93C52 89.6863 54.6863 87 58 87H74C77.3137 87 80 89.6863 80 93V101C80 104.314 77.3137 107 74 107H58C54.6863 107 52 104.314 52 101V93Z" fill="#919EAB"/>
<path d="M86 93C86 89.6863 88.6863 87 92 87H108C111.314 87 114 89.6863 114 93V101C114 104.314 111.314 107 108 107H92C88.6863 107 86 104.314 86 101V93Z" fill="#919EAB"/>
<path d="M120 93C120 89.6863 122.686 87 126 87H142C145.314 87 148 89.6863 148 93V101C148 104.314 145.314 107 142 107H126C122.686 107 120 104.314 120 101V93Z" fill="#919EAB"/>
</g>
<g opacity="0.48">
<path d="M68 68C68 70.2091 66.2091 72 64 72C61.7909 72 60 70.2091 60 68C60 65.7909 61.7909 64 64 64C66.2091 64 68 65.7909 68 68Z" fill="#919EAB"/>
<path d="M140 68C140 70.2091 138.209 72 136 72C133.791 72 132 70.2091 132 68C132 65.7909 133.791 64 136 64C138.209 64 140 65.7909 140 68Z" fill="#919EAB"/>
</g>
</svg>
