<svg width="200" height="200" viewBox="0 0 200 200" fill="none" xmlns="http://www.w3.org/2000/svg">
<path opacity="0.24" fill-rule="evenodd" clip-rule="evenodd" d="M136 100C136 119.882 119.882 136 100 136C80.1178 136 64 119.882 64 100C64 80.1178 80.1178 64 100 64C119.882 64 136 80.1178 136 100ZM128 100C128 115.464 115.464 128 100 128C84.536 128 72 115.464 72 100C72 84.536 84.536 72 100 72C115.464 72 128 84.536 128 100Z" fill="#919EAB"/>
<path d="M100 120C111.046 120 120 111.046 120 100C120 88.9543 111.046 80 100 80C88.9543 80 80 88.9543 80 100C80 111.046 88.9543 120 100 120Z" fill="#919EAB"/>
</svg>
