<svg width="200" height="200" viewBox="0 0 200 200" fill="none" xmlns="http://www.w3.org/2000/svg">
<path d="M30.754 110.222L24.9174 113.308C23.8531 113.871 22.5369 113.459 21.9774 112.389C21.7546 111.963 21.6777 111.474 21.7586 111L22.8748 104.454C22.9332 104.111 22.82 103.762 22.5718 103.519L17.8449 98.884C16.984 98.0398 16.9663 96.6534 17.8056 95.7874C18.1398 95.4425 18.5777 95.2181 19.0515 95.1489L25.5787 94.1948C25.9246 94.1443 26.2235 93.9264 26.3775 93.6126L29.2977 87.6608C29.8298 86.5763 31.1352 86.1311 32.2133 86.6663C32.6427 86.8794 32.9902 87.229 33.2021 87.6608L36.1223 93.6126C36.2763 93.9264 36.5751 94.1443 36.921 94.1948L43.4483 95.1489C44.6381 95.3228 45.4625 96.434 45.2896 97.6308C45.2207 98.1074 44.9976 98.5478 44.6548 98.884L39.9279 103.519C39.6797 103.762 39.5665 104.111 39.625 104.454L40.7411 111C40.9443 112.192 40.1484 113.324 38.9634 113.528C38.4915 113.61 38.0061 113.532 37.5824 113.308L31.7457 110.222C31.4355 110.058 31.0642 110.058 30.754 110.222Z" fill="#919EAB"/>
<path d="M65.129 110.222L59.2924 113.308C58.2281 113.871 56.9119 113.459 56.3524 112.389C56.1296 111.963 56.0527 111.474 56.1336 111L57.2498 104.454C57.3082 104.111 57.195 103.762 56.9468 103.519L52.2199 98.884C51.359 98.0398 51.3413 96.6534 52.1806 95.7874C52.5148 95.4425 52.9527 95.2181 53.4265 95.1489L59.9537 94.1948C60.2996 94.1443 60.5985 93.9264 60.7525 93.6126L63.6727 87.6608C64.2048 86.5763 65.5102 86.1311 66.5883 86.6663C67.0177 86.8794 67.3652 87.229 67.5771 87.6608L70.4973 93.6126C70.6513 93.9264 70.9501 94.1443 71.296 94.1948L77.8233 95.1489C79.0131 95.3228 79.8375 96.434 79.6646 97.6308C79.5957 98.1074 79.3726 98.5478 79.0298 98.884L74.3029 103.519C74.0547 103.762 73.9415 104.111 74 104.454L75.1161 111C75.3193 112.192 74.5234 113.324 73.3384 113.528C72.8665 113.61 72.3811 113.532 71.9574 113.308L66.1207 110.222C65.8105 110.058 65.4392 110.058 65.129 110.222Z" fill="#919EAB"/>
<path d="M99.5041 110.222L93.6674 113.308C92.6031 113.871 91.2869 113.459 90.7274 112.389C90.5046 111.963 90.4277 111.474 90.5086 111L91.6247 104.454C91.6832 104.111 91.57 103.762 91.3218 103.519L86.5949 98.884C85.734 98.0398 85.7163 96.6534 86.5556 95.7874C86.8898 95.4425 87.3277 95.2181 87.8015 95.1489L94.3287 94.1948C94.6746 94.1443 94.9735 93.9264 95.1275 93.6126L98.0477 87.6608C98.5798 86.5763 99.8852 86.1311 100.963 86.6663C101.393 86.8794 101.74 87.229 101.952 87.6608L104.872 93.6126C105.026 93.9264 105.325 94.1443 105.671 94.1948L112.198 95.1489C113.388 95.3228 114.212 96.434 114.04 97.6308C113.971 98.1074 113.748 98.5478 113.405 98.884L108.678 103.519C108.43 103.762 108.317 104.111 108.375 104.454L109.491 111C109.694 112.192 108.898 113.324 107.713 113.528C107.242 113.61 106.756 113.532 106.332 113.308L100.496 110.222C100.185 110.058 99.8142 110.058 99.5041 110.222Z" fill="#919EAB"/>
<g opacity="0.24">
<path d="M133.879 110.222L128.042 113.308C126.978 113.871 125.662 113.459 125.102 112.389C124.88 111.963 124.803 111.474 124.884 111L126 104.454C126.058 104.111 125.945 103.762 125.697 103.519L120.97 98.884C120.109 98.0398 120.091 96.6534 120.931 95.7874C121.265 95.4425 121.703 95.2181 122.176 95.1489L128.704 94.1948C129.05 94.1443 129.348 93.9264 129.502 93.6126L132.423 87.6608C132.955 86.5763 134.26 86.1311 135.338 86.6663C135.768 86.8794 136.115 87.229 136.327 87.6608L139.247 93.6126C139.401 93.9264 139.7 94.1443 140.046 94.1948L146.573 95.1489C147.763 95.3228 148.587 96.434 148.415 97.6308C148.346 98.1074 148.123 98.5478 147.78 98.884L143.053 103.519C142.805 103.762 142.692 104.111 142.75 104.454L143.866 111C144.069 112.192 143.273 113.324 142.088 113.528C141.617 113.61 141.131 113.532 140.707 113.308L134.871 110.222C134.56 110.058 134.189 110.058 133.879 110.222Z" fill="#919EAB"/>
<path d="M168.254 110.222L162.417 113.308C161.353 113.871 160.037 113.459 159.477 112.389C159.255 111.963 159.178 111.474 159.259 111L160.375 104.454C160.433 104.111 160.32 103.762 160.072 103.519L155.345 98.884C154.484 98.0398 154.466 96.6534 155.306 95.7874C155.64 95.4425 156.078 95.2181 156.551 95.1489L163.079 94.1948C163.425 94.1443 163.723 93.9264 163.877 93.6126L166.798 87.6608C167.33 86.5763 168.635 86.1311 169.713 86.6663C170.143 86.8794 170.49 87.229 170.702 87.6608L173.622 93.6126C173.776 93.9264 174.075 94.1443 174.421 94.1948L180.948 95.1489C182.138 95.3228 182.962 96.434 182.79 97.6308C182.721 98.1074 182.498 98.5478 182.155 98.884L177.428 103.519C177.18 103.762 177.067 104.111 177.125 104.454L178.241 111C178.444 112.192 177.648 113.324 176.463 113.528C175.992 113.61 175.506 113.532 175.082 113.308L169.246 110.222C168.935 110.058 168.564 110.058 168.254 110.222Z" fill="#919EAB"/>
</g>
</svg>
