<svg width="200" height="200" viewBox="0 0 200 200" fill="none" xmlns="http://www.w3.org/2000/svg">
<rect opacity="0.24" x="24" y="86" width="152" height="28" rx="14" fill="#919EAB"/>
<path fill-rule="evenodd" clip-rule="evenodd" d="M129 100C129 111.046 120.046 120 109 120C97.9543 120 89 111.046 89 100C89 88.9543 97.9543 80 109 80C120.046 80 129 88.9543 129 100ZM101.975 95.0588C101.975 93.0539 100.349 91.4286 98.3445 91.4286C96.3396 91.4286 94.7143 93.0539 94.7143 95.0588V104.941C94.7143 106.946 96.3396 108.571 98.3445 108.571C100.349 108.571 101.975 106.946 101.975 104.941V95.0588ZM112.261 95.0588C112.261 93.0539 110.635 91.4286 108.63 91.4286C106.625 91.4286 105 93.0539 105 95.0588V104.941C105 106.946 106.625 108.571 108.63 108.571C110.635 108.571 112.261 106.946 112.261 104.941V95.0588ZM118.916 91.4286C120.921 91.4286 122.546 93.0539 122.546 95.0588V104.941C122.546 106.946 120.921 108.571 118.916 108.571C116.911 108.571 115.286 106.946 115.286 104.941V95.0588C115.286 93.0539 116.911 91.4286 118.916 91.4286Z" fill="#919EAB"/>
<path opacity="0.48" d="M91.5094 92H38C33.5817 92 30 95.5817 30 100C30 104.418 33.5817 108 38 108H91.5094C89.9276 105.732 89 102.974 89 100C89 97.0255 89.9276 94.2677 91.5094 92Z" fill="#919EAB"/>
</svg>
