<svg width="200" height="200" viewBox="0 0 200 200" fill="none" xmlns="http://www.w3.org/2000/svg">
<path opacity="0.48" fill-rule="evenodd" clip-rule="evenodd" d="M64 100C64 111.046 55.0457 120 44 120C32.9543 120 24 111.046 24 100C24 88.9543 32.9543 80 44 80C55.0457 80 64 88.9543 64 100ZM50 106.33C50 107.443 49.3507 108 48.0522 108H40.2836C38.9851 108 38.3358 107.443 38.3358 106.33C38.3358 105.788 38.4925 105.382 38.806 105.111C39.1194 104.841 39.6119 104.705 40.2836 104.705H42.097V96.5585L40.306 97.6192C40.0522 97.7696 39.791 97.8449 39.5224 97.8449C39.1045 97.8449 38.7463 97.6606 38.4478 97.292C38.1493 96.9234 38 96.5134 38 96.0621C38 95.4452 38.2612 94.9788 38.7836 94.6629L42.3657 92.5642C43.0224 92.1881 43.6418 92 44.2239 92C44.8209 92 45.3022 92.1805 45.6679 92.5416C46.0336 92.9027 46.2164 93.3916 46.2164 94.0085V104.705H48.0522C48.7239 104.705 49.2164 104.841 49.5299 105.111C49.8433 105.382 50 105.788 50 106.33Z" fill="#919EAB"/>
<path fill-rule="evenodd" clip-rule="evenodd" d="M176 100C176 113.807 164.807 125 151 125C137.193 125 126 113.807 126 100C126 86.1929 137.193 75 151 75C164.807 75 176 86.1929 176 100ZM159.493 111.395C159.006 111.798 158.265 112 157.27 112H144.884C144.07 112 143.425 111.759 142.95 111.277C142.475 110.796 142.238 110.185 142.238 109.445C142.238 108.482 142.622 107.608 143.391 106.824L150.585 99.395C152.078 97.8487 152.825 96.4258 152.825 95.1261C152.825 94.3641 152.604 93.7815 152.163 93.3782C151.722 92.9748 151.094 92.7731 150.28 92.7731C149.624 92.7731 149.019 92.8683 148.464 93.0588C147.91 93.2493 147.271 93.5238 146.547 93.8824L145.868 94.2185C145.778 94.2633 145.603 94.3585 145.342 94.5042C145.082 94.6499 144.85 94.7563 144.647 94.8235C144.443 94.8908 144.228 94.9244 144.002 94.9244C143.437 94.9244 142.961 94.6723 142.577 94.1681C142.192 93.6639 142 93.0644 142 92.3697C142 91.8768 142.074 91.4734 142.221 91.1597C142.368 90.8459 142.645 90.5546 143.052 90.2857C144.115 89.5686 145.309 89.0084 146.632 88.605C147.955 88.2017 149.262 88 150.551 88C152.225 88 153.696 88.2745 154.963 88.8235C156.229 89.3725 157.208 90.1569 157.898 91.1765C158.588 92.1961 158.933 93.3669 158.933 94.6891C158.933 96.056 158.656 97.3053 158.101 98.437C157.547 99.5686 156.603 100.829 155.268 102.218L150.449 107.092H157.27C158.265 107.092 159.006 107.289 159.493 107.681C159.979 108.073 160.222 108.683 160.222 109.513C160.222 110.364 159.979 110.992 159.493 111.395Z" fill="#919EAB"/>
<path opacity="0.24" d="M63.084 106H127.084C126.606 104.078 126.353 102.068 126.353 100C126.353 97.9317 126.606 95.9221 127.084 94H63.084C63.6844 95.8941 64.008 97.9096 64.008 100C64.008 102.09 63.6844 104.106 63.084 106Z" fill="#919EAB"/>
<path fill-rule="evenodd" clip-rule="evenodd" d="M50 106.33C50 107.443 49.3507 108 48.0522 108H40.2836C38.9851 108 38.3358 107.443 38.3358 106.33C38.3358 105.788 38.4925 105.382 38.806 105.111C39.1194 104.841 39.6119 104.705 40.2836 104.705H42.097V96.5585L40.306 97.6192C40.0522 97.7696 39.791 97.8449 39.5224 97.8449C39.1045 97.8449 38.7463 97.6606 38.4478 97.292C38.1493 96.9234 38 96.5134 38 96.0621C38 95.4452 38.2612 94.9788 38.7836 94.6629L42.3657 92.5642C43.0224 92.1881 43.6418 92 44.2239 92C44.8209 92 45.3022 92.1805 45.6679 92.5416C46.0336 92.9027 46.2164 93.3916 46.2164 94.0085V104.705H48.0522C48.7239 104.705 49.2164 104.841 49.5299 105.111C49.8433 105.382 50 105.788 50 106.33Z" fill="#919EAB"/>
</svg>
