<svg width="200" height="200" viewBox="0 0 200 200" fill="none" xmlns="http://www.w3.org/2000/svg">
<rect opacity="0.24" x="24" y="72" width="152" height="56" rx="28" fill="#919EAB"/>
<path fill-rule="evenodd" clip-rule="evenodd" d="M108 76C103.582 76 100 79.5817 100 84V116C100 120.418 103.582 124 108 124H148C161.255 124 172 113.255 172 100C172 86.7452 161.255 76 148 76H108ZM130.596 110.928L135.456 108.358C135.796 108.178 136.204 108.178 136.544 108.358L141.404 110.928C141.765 111.119 142.179 111.185 142.582 111.116C143.593 110.941 144.272 109.975 144.099 108.958L143.169 103.506C143.105 103.13 143.229 102.746 143.502 102.479L147.439 98.6191C147.731 98.3323 147.922 97.9564 147.98 97.5497C148.128 96.5284 147.425 95.5802 146.409 95.4318L140.974 94.6374C140.594 94.5819 140.267 94.343 140.098 93.9986L137.666 89.0421C137.485 88.6735 137.188 88.3753 136.822 88.1934C135.902 87.7366 134.788 88.1166 134.334 89.0421L131.902 93.9986C131.733 94.343 131.405 94.5819 131.026 94.6374L125.591 95.4318C125.186 95.4909 124.813 95.6824 124.527 95.9767C123.811 96.7157 123.826 97.8988 124.561 98.6191L128.498 102.479C128.77 102.746 128.894 103.13 128.83 103.506L127.901 108.958C127.832 109.363 127.897 109.78 128.087 110.143C128.565 111.057 129.688 111.408 130.596 110.928Z" fill="#919EAB"/>
<path d="M65.0892 88.4129L75.7187 98.8766C76.0927 99.2447 76.0943 99.8432 75.7223 100.213C75.543 100.392 75.2993 100.492 75.0451 100.492H74.5C74.1023 100.492 73.78 100.814 73.78 101.212V110.582C73.78 111.365 73.1386 112 72.3473 112H70.0768C69.4078 112 68.8279 111.542 68.6797 110.896L66.763 102.545C66.6148 101.9 66.0349 101.441 65.3659 101.441H62.8065C62.1375 101.441 61.5576 101.9 61.4094 102.545L59.4926 110.896C59.3444 111.542 58.7645 112 58.0955 112H55.8251C55.0338 112 54.3924 111.365 54.3924 110.582V101.212C54.3924 100.814 54.07 100.492 53.6724 100.492H52.9554C52.4279 100.492 52.0002 100.069 52.0002 99.5467C52.0002 99.2927 52.1035 99.0495 52.2868 98.8717L63.0759 88.4056C63.6359 87.8623 64.5332 87.8656 65.0892 88.4129Z" fill="#919EAB"/>
</svg>
