<svg width="200" height="200" viewBox="0 0 200 200" fill="none" xmlns="http://www.w3.org/2000/svg">
<path d="M115.886 129.6H75.8246C74.4008 129.6 73.1153 130.451 72.5574 131.761L65.0109 149.468C64.4521 150.779 63.1665 151.629 61.7436 151.629H46.5249C43.9547 151.629 42.2353 148.98 43.2786 146.628L85.7419 50.9401C86.3122 49.6559 87.5844 48.8281 88.9882 48.8281H102.854C104.258 48.8281 105.53 49.6559 106.1 50.9401L148.563 146.628C149.607 148.98 147.887 151.629 145.317 151.629H130.084C128.669 151.629 127.388 150.787 126.825 149.487L119.145 131.742C118.582 130.442 117.301 129.6 115.886 129.6ZM80.5186 111.977H111.176L95.9214 74.675L80.5186 111.977Z" fill="#919EAB"/>
<path opacity="0.24" d="M163.623 47.001C164.649 47.001 165.481 47.8336 165.481 48.8619V151.655C165.481 152.682 164.649 153.516 163.623 153.516H151.875C150.848 153.516 150.017 152.682 150.017 151.655C150.017 150.626 150.849 149.793 151.875 149.793H161.764V127.917H155.913C154.886 127.917 154.055 127.083 154.055 126.056C154.055 125.028 154.886 124.194 155.913 124.194H161.764V102.073H151.852C150.825 102.073 149.993 101.24 149.993 100.212C149.993 100.195 149.996 100.178 149.996 100.16L149.993 100.108C149.993 99.0796 150.825 98.2471 151.852 98.2471H161.764V76.5181H155.913C154.886 76.5181 154.055 75.6846 154.055 74.6563C154.055 73.629 154.886 72.7954 155.913 72.7954H161.764V50.7228H151.875C150.848 50.7228 150.017 49.8892 150.017 48.8619C150.017 47.8336 150.849 47.001 151.875 47.001H163.623ZM117.625 149.682C118.651 149.682 119.484 150.515 119.484 151.543C119.484 152.543 118.696 153.359 117.708 153.402L117.625 153.404H115.89C114.863 153.404 114.032 152.57 114.032 151.543C114.032 150.515 114.863 149.682 115.89 149.682H117.625ZM109.693 149.682C110.721 149.682 111.553 150.515 111.553 151.543C111.553 152.543 110.765 153.359 109.776 153.402L109.693 153.404H107.959C106.933 153.404 106.1 152.57 106.1 151.543C106.1 150.515 106.933 149.682 107.959 149.682H109.693ZM101.763 149.682C102.789 149.682 103.621 150.515 103.621 151.543C103.621 152.543 102.834 153.359 101.845 153.402L101.763 153.404H100.028C99.0008 153.404 98.1692 152.57 98.1692 151.543C98.1692 150.515 99.0008 149.682 100.028 149.682H101.763ZM93.8319 149.682C94.858 149.682 95.6906 150.515 95.6906 151.543C95.6906 152.543 94.9024 153.359 93.9146 153.402L93.8319 153.404H92.0971C91.07 153.404 90.2384 152.57 90.2384 151.543C90.2384 150.515 91.07 149.682 92.0971 149.682H93.8319ZM85.9002 149.682C86.9273 149.682 87.7598 150.515 87.7598 151.543C87.7598 152.543 86.9717 153.359 85.983 153.402L85.9002 153.404H84.1654C83.1393 153.404 82.3067 152.57 82.3067 151.543C82.3067 150.515 83.1393 149.682 84.1654 149.682H85.9002ZM77.9694 149.682C78.9956 149.682 79.8281 150.515 79.8281 151.543C79.8281 152.543 79.0399 153.359 78.0522 153.402L77.9694 153.404H76.2347C75.2076 153.404 74.3759 152.57 74.3759 151.543C74.3759 150.515 75.2076 149.682 76.2347 149.682H77.9694ZM70.0386 149.682C71.0648 149.682 71.8973 150.515 71.8973 151.543C71.8973 152.543 71.1092 153.359 70.1214 153.402L70.0386 153.404H68.3039C67.2768 153.404 66.4452 152.57 66.4452 151.543C66.4452 150.515 67.2768 149.682 68.3039 149.682H70.0386ZM77.5059 110.021C78.5321 110.021 79.3646 110.854 79.3646 111.882C79.3646 112.91 78.5321 113.743 77.5059 113.743H75.7702C74.7441 113.743 73.9115 112.91 73.9115 111.882C73.9115 110.854 74.7441 110.021 75.7702 110.021H77.5059ZM69.5742 110.021C70.6013 110.021 71.4339 110.854 71.4339 111.882C71.4339 112.91 70.6013 113.743 69.5742 113.743H67.8395C66.8133 113.743 65.9807 112.91 65.9807 111.882C65.9807 110.854 66.8133 110.021 67.8395 110.021H69.5742ZM61.6434 110.021C62.6705 110.021 63.5021 110.854 63.5021 111.882C63.5021 112.91 62.6705 113.743 61.6434 113.743H59.9087C58.8816 113.743 58.05 112.91 58.05 111.882C58.05 110.854 58.8816 110.021 59.9087 110.021H61.6434ZM53.7127 110.021C54.7388 110.021 55.5714 110.854 55.5714 111.882C55.5714 112.91 54.7388 113.743 53.7127 113.743H51.977C50.9508 113.743 50.1183 112.91 50.1183 111.882C50.1183 110.854 50.9508 110.021 51.977 110.021H53.7127ZM45.7809 110.021C46.8081 110.021 47.6406 110.854 47.6406 111.882C47.6406 112.91 46.8081 113.743 45.7809 113.743H44.0462C43.0201 113.743 42.1875 112.91 42.1875 111.882C42.1875 110.854 43.0201 110.021 44.0462 110.021H45.7809ZM145.737 46.875C146.763 46.875 147.595 47.7085 147.595 48.7359C147.595 49.7642 146.763 50.5967 145.737 50.5967H144.002C142.975 50.5967 142.143 49.7642 142.143 48.7359C142.143 47.7085 142.975 46.875 144.002 46.875H145.737ZM137.806 46.875C138.832 46.875 139.665 47.7085 139.665 48.7359C139.665 49.7642 138.832 50.5967 137.806 50.5967H136.07C135.044 50.5967 134.211 49.7642 134.211 48.7359C134.211 47.7085 135.044 46.875 136.07 46.875H137.806ZM129.874 46.875C130.901 46.875 131.734 47.7085 131.734 48.7359C131.734 49.7642 130.901 50.5967 129.874 50.5967H128.139C127.113 50.5967 126.281 49.7642 126.281 48.7359C126.281 47.7085 127.112 46.875 128.139 46.875H129.874ZM121.943 46.875C122.97 46.875 123.802 47.7085 123.802 48.7359C123.802 49.7642 122.97 50.5967 121.943 50.5967H120.209C119.182 50.5967 118.35 49.7642 118.35 48.7359C118.35 47.7085 119.182 46.875 120.209 46.875H121.943ZM114.013 46.875C115.039 46.875 115.871 47.7085 115.871 48.7359C115.871 49.7642 115.039 50.5967 114.013 50.5967H112.277C111.251 50.5967 110.418 49.7642 110.418 48.7359C110.418 47.7085 111.251 46.875 112.277 46.875H114.013ZM106.081 46.875C107.108 46.875 107.941 47.7085 107.941 48.7359C107.941 49.7642 107.108 50.5967 106.081 50.5967H104.346C103.32 50.5967 102.487 49.7642 102.487 48.7359C102.487 47.7085 103.32 46.875 104.346 46.875H106.081ZM98.1501 46.875C99.1763 46.875 100.009 47.7085 100.009 48.7359C100.009 49.7642 99.1763 50.5967 98.1501 50.5967H96.4154C95.3883 50.5967 94.5567 49.7642 94.5567 48.7359C94.5567 47.7085 95.3883 46.875 96.4154 46.875H98.1501ZM90.2194 46.875C91.2455 46.875 92.0781 47.7085 92.0781 48.7359C92.0781 49.7642 91.2455 50.5967 90.2194 50.5967H88.4837C87.4575 50.5967 86.625 49.7642 86.625 48.7359C86.625 47.7085 87.4575 46.875 88.4837 46.875H90.2194Z" fill="#919EAB"/>
</svg>
