<svg width="200" height="200" viewBox="0 0 200 200" fill="none" xmlns="http://www.w3.org/2000/svg">
<rect opacity="0.24" x="24" y="40" width="152" height="32" rx="8" fill="#919EAB"/>
<path opacity="0.48" d="M48.8333 54.8333H44.1667V50.1667C44.1667 49.5223 43.6443 49 43 49C42.3557 49 41.8333 49.5223 41.8333 50.1667V54.8333H37.1667C36.5223 54.8333 36 55.3557 36 56C36 56.6443 36.5223 57.1667 37.1667 57.1667H41.8333V61.8333C41.8333 62.4777 42.3557 63 43 63C43.6443 63 44.1667 62.4777 44.1667 61.8333V57.1667H48.8333C49.4777 57.1667 50 56.6443 50 56C50 55.3557 49.4777 54.8333 48.8333 54.8333Z" fill="#919EAB"/>
<rect x="62" y="51" width="80" height="10" rx="5" fill="#919EAB"/>
<rect opacity="0.24" x="36" y="84" width="140" height="32" rx="8" fill="#919EAB"/>
<path opacity="0.48" d="M60.8333 101.5H49.1667C48.5223 101.5 48 100.94 48 100.25C48 99.5596 48.5223 99 49.1667 99H60.8333C61.4777 99 62 99.5596 62 100.25C62 100.94 61.4777 101.5 60.8333 101.5Z" fill="#919EAB"/>
<rect opacity="0.48" x="74" y="95" width="68" height="10" rx="5" fill="#919EAB"/>
<rect opacity="0.24" x="36" y="128" width="140" height="32" rx="8" fill="#919EAB"/>
<path opacity="0.48" d="M60.8333 145.5H49.1667C48.5223 145.5 48 144.94 48 144.25C48 143.56 48.5223 143 49.1667 143H60.8333C61.4777 143 62 143.56 62 144.25C62 144.94 61.4777 145.5 60.8333 145.5Z" fill="#919EAB"/>
<rect opacity="0.24" x="74" y="139" width="68" height="10" rx="5" fill="#919EAB"/>
</svg>
