<svg width="200" height="200" viewBox="0 0 200 200" fill="none" xmlns="http://www.w3.org/2000/svg">
<path fill-rule="evenodd" clip-rule="evenodd" d="M118 46C118 55.9411 109.941 64 100 64C90.0589 64 82 55.9411 82 46C82 36.0589 90.0589 28 100 28C109.941 28 118 36.0589 118 46ZM101.5 44.5H107.5C108.328 44.5 109 45.1716 109 46C109 46.8284 108.328 47.5 107.5 47.5H101.5V53.5C101.5 54.3284 100.828 55 100 55C99.1716 55 98.5 54.3284 98.5 53.5V47.5H92.5C91.6716 47.5 91 46.8284 91 46C91 45.1716 91.6716 44.5 92.5 44.5H98.5V38.5C98.5 37.6716 99.1716 37 100 37C100.828 37 101.5 37.6716 101.5 38.5V44.5Z" fill="#919EAB"/>
<path opacity="0.24" d="M122.4 86.5892C136.538 86.5892 148 96.7864 148 109.365V149.224C148 161.803 136.538 172 122.4 172H77.6C63.4615 172 52 161.803 52 149.224V109.365C52 96.7864 63.4615 86.5892 77.6 86.5892H84L98.001 76.6239C99.1437 75.8105 100.757 75.7925 101.92 76.5696L101.999 76.6239L116 86.5892H122.4Z" fill="#919EAB"/>
<rect opacity="0.48" x="64" y="114" width="48" height="10" rx="5" fill="#919EAB"/>
<rect opacity="0.24" x="64" y="150" width="48" height="10" rx="5" fill="#919EAB"/>
<rect opacity="0.24" x="64" y="132" width="72" height="10" rx="5" fill="#919EAB"/>
</svg>
