<svg width="200" height="200" viewBox="0 0 200 200" fill="none" xmlns="http://www.w3.org/2000/svg">
<path opacity="0.24" d="M46 44C46 37.3726 51.3726 32 58 32H142C148.627 32 154 37.3726 154 44V156C154 162.627 148.627 168 142 168H58C51.3726 168 46 162.627 46 156V44Z" fill="#919EAB"/>
<g opacity="0.24">
<path d="M62 115C62 112.239 64.2386 110 67 110H133C135.761 110 138 112.239 138 115C138 117.761 135.761 120 133 120H67C64.2386 120 62 117.761 62 115Z" fill="#919EAB"/>
<path d="M62 133C62 130.239 64.2386 128 67 128H133C135.761 128 138 130.239 138 133C138 135.761 135.761 138 133 138H67C64.2386 138 62 135.761 62 133Z" fill="#919EAB"/>
</g>
<g opacity="0.48">
<path d="M62 61C62 58.2386 64.2386 56 67 56H97C99.7614 56 102 58.2386 102 61C102 63.7614 99.7614 66 97 66H67C64.2386 66 62 63.7614 62 61Z" fill="#919EAB"/>
<path d="M62 97C62 94.2386 64.2386 92 67 92H97C99.7614 92 102 94.2386 102 97C102 99.7614 99.7614 102 97 102H67C64.2386 102 62 99.7614 62 97Z" fill="#919EAB"/>
<path d="M62 79C62 76.2386 64.2386 74 67 74H97C99.7614 74 102 76.2386 102 79C102 81.7614 99.7614 84 97 84H67C64.2386 84 62 81.7614 62 79Z" fill="#919EAB"/>
</g>
<path d="M134.491 79.2548C135.066 78.7161 135.979 79.1202 135.979 79.8946C135.979 85.7872 131.175 90.5349 125.254 90.5349H120.72V94.0368C120.72 94.946 119.739 95.4847 118.961 95.0133L107.558 88.0769C106.814 87.6392 106.814 86.5617 107.558 86.1239L118.927 79.1875C119.705 78.7161 120.686 79.2885 120.686 80.164V83.6995H124.983C127.994 83.6995 130.904 82.5547 133.103 80.5344L134.491 79.2548ZM124.171 64.3382C124.171 63.429 125.152 62.8903 125.93 63.3617L137.299 70.2981C138.043 70.7358 138.043 71.8133 137.299 72.2511L125.964 79.1538C125.186 79.6252 124.205 79.0528 124.205 78.1773V74.6755H119.874C116.863 74.6755 113.953 75.8203 111.754 77.8406L110.367 79.1202C109.825 79.6252 108.912 79.2212 108.912 78.4804L108.913 78.304C109.008 72.4933 113.775 67.8401 119.637 67.8401H124.171V64.3382Z" fill="#919EAB"/>
</svg>
