<svg width="200" height="200" viewBox="0 0 200 200" fill="none" xmlns="http://www.w3.org/2000/svg">
<rect x="117" y="92" width="48" height="16" rx="8" fill="#919EAB"/>
<rect opacity="0.48" x="35" y="52" width="48" height="16" rx="8" fill="#919EAB"/>
<rect opacity="0.24" x="35" y="132" width="48" height="16" rx="8" fill="#919EAB"/>
<path opacity="0.24" d="M100 113.171C100.835 113.171 101.5 113.677 101.5 114.511V125.489C101.5 126.323 100.835 126.829 100 126.829V126.829V126.829C99.1653 126.829 98.5 126.323 98.5 125.489V114.511C98.5 113.677 99.1653 113.171 100 113.171V113.171V113.171Z" fill="#919EAB"/>
<path opacity="0.24" d="M100 73.1707C100.835 73.1707 101.5 73.6766 101.5 74.5113V85.4887C101.5 86.3234 100.835 86.8293 100 86.8293V86.8293V86.8293C99.1653 86.8293 98.5 86.3234 98.5 85.4887V74.5113C98.5 73.6766 99.1653 73.1707 100 73.1707V73.1707V73.1707Z" fill="#919EAB"/>
<path opacity="0.24" d="M100 46.8361C99.1658 46.8361 98.5 46.3238 98.5 45.4896V38.6393C98.5 37.6557 99.1 37 100 37C100.9 37 101.5 37.6557 101.5 38.6393V45.4896C101.5 46.3238 100.834 46.8361 100 46.8361V46.8361V46.8361Z" fill="#919EAB"/>
<path opacity="0.24" d="M100 153.164C100.834 153.164 101.5 153.676 101.5 154.51V161.361C101.5 162.344 100.9 163 100 163C99.1 163 98.5 162.344 98.5 161.361V154.51C98.5 153.676 99.1658 153.164 100 153.164V153.164V153.164Z" fill="#919EAB"/>
<circle opacity="0.24" cx="100" cy="60" r="9" fill="#919EAB"/>
<circle opacity="0.24" cx="100" cy="100" r="9" fill="#919EAB"/>
<circle opacity="0.24" cx="100" cy="140" r="9" fill="#919EAB"/>
</svg>
