<svg width="133" height="41" viewBox="0 0 133 41" fill="none" xmlns="http://www.w3.org/2000/svg">
<path fill-rule="evenodd" clip-rule="evenodd" d="M76.9476 1.37896V4.41074C76.9476 4.80194 77.3388 5.09534 77.7299 5.19314H84.7715L76.6542 16.8313C76.1652 17.6137 76.1652 18.3961 76.1652 18.8851V21.9169C76.1652 22.4059 76.6542 22.7971 77.1432 22.6015C81.7397 20.1565 87.3143 20.4499 91.4219 22.6015C91.9109 22.8948 92.3999 22.4059 92.3999 21.9169V18.6895C92.3999 18.2983 92.2043 17.8093 91.7153 17.5159C89.3681 16.1467 86.6297 15.8533 83.9891 15.8533L91.0307 5.87774C91.1078 5.74915 91.1816 5.62733 91.2515 5.51183C91.7136 4.74882 92.0087 4.26151 92.0087 3.92175V1.37896C92.0087 0.987761 91.6175 0.596563 91.2263 0.596563H77.7299C77.241 0.596563 76.9476 0.889961 76.9476 1.37896ZM23.549 23.1882H27.6566C28.0478 23.1882 28.439 22.8949 28.2434 22.5037V11.2567C28.2434 11.1779 28.2433 11.0983 28.2432 11.0181C28.2403 8.51094 28.2366 5.38874 31.0796 5.38874C33.7136 5.38874 33.6676 8.22641 33.6307 10.505C33.6265 10.7645 33.6224 11.0167 33.6224 11.2567V22.5037C33.6224 22.8949 34.0136 23.286 34.4048 23.286H38.5124C38.9035 23.286 39.2948 22.8949 39.2948 22.5037V11.2567C39.2948 9.98532 39.2948 8.22492 39.6859 7.14913C40.0771 6.07334 41.1529 5.38874 42.1309 5.38874C43.4023 5.38874 44.2825 5.87774 44.5759 7.24693C44.7296 7.93851 44.7022 9.47537 44.6833 10.5292C44.6782 10.8166 44.6737 11.0681 44.6737 11.2567V22.5037C44.6737 22.8949 45.0649 23.286 45.4561 23.286H49.5637C49.9549 23.286 50.3461 22.8949 50.3461 22.5037V9.10512C50.3461 8.73553 50.3534 8.36109 50.3607 7.98562C50.3997 5.97655 50.4393 3.93795 49.3681 2.45475C48.1945 0.792162 46.3363 0.107565 44.5759 0.107565C42.1309 0.107565 39.8815 1.37896 38.9035 4.01955C37.8278 1.37896 36.1652 0.107565 33.6224 0.107565C31.1774 0.107565 29.2214 1.37896 28.2434 4.01955H28.1456V1.28116C28.0478 0.889961 27.7544 0.596563 27.3632 0.596563H23.549C23.1578 0.596563 22.7666 0.987761 22.7666 1.37896V22.5037C22.8644 22.8949 23.1578 23.1882 23.549 23.1882ZM94.4537 11.9413C94.3559 5.29094 97.6811 0.205365 103.647 0.205365C109.808 0.205365 113.133 5.38874 113.036 12.1369C113.036 18.5917 109.417 23.6772 103.647 23.6772C97.6811 23.6772 94.4537 18.4939 94.4537 11.9413ZM100.517 11.4834C100.514 14.1977 100.509 19.3741 103.647 19.3741C106.776 19.3741 106.972 14.8753 107.07 12.1369C107.07 10.3765 106.972 8.22492 106.483 6.56233C105.994 5.09534 105.016 4.50854 103.745 4.50854C100.713 4.50854 100.517 8.71392 100.517 11.2567C100.517 11.3301 100.517 11.4058 100.517 11.4834ZM116.85 23.1882H120.957C121.446 23.1882 121.838 22.8949 121.838 22.5037V11.0611C121.838 9.59412 121.935 8.32272 122.522 7.05133C122.913 6.07334 123.891 5.38874 124.869 5.38874C127.468 5.38874 127.439 8.17943 127.416 10.4523C127.414 10.6604 127.412 10.8642 127.412 11.0611V22.5037C127.51 22.8949 127.803 23.1882 128.194 23.1882H132.204C132.595 23.1882 132.987 22.8949 132.987 22.5037V9.20292C132.987 7.14913 132.987 4.31294 131.911 2.65035C130.737 0.889961 128.977 0.205365 127.119 0.205365C124.283 0.205365 122.718 1.47676 121.544 4.41074H121.446V1.18336C121.349 0.889961 121.055 0.596563 120.664 0.596563H116.85C116.459 0.596563 116.067 0.889961 116.067 1.28116V22.4059C116.067 22.7971 116.459 23.1882 116.85 23.1882ZM73.3194 19.095C73.3875 19.187 73.456 19.2798 73.5246 19.3741C73.818 19.7653 73.818 20.2543 73.4268 20.3521C72.9867 20.6944 72.3999 21.2078 71.8131 21.7213C71.2263 22.2347 70.6395 22.7482 70.1994 23.0905C69.906 23.286 69.5148 23.3838 69.2214 23.1882C68.173 22.3645 67.8127 21.8275 67.3501 21.1381C67.2086 20.9271 67.0575 20.7019 66.8742 20.4499C64.6248 22.7971 63.06 23.4816 60.126 23.4816C56.7031 23.4816 53.9647 21.3301 53.9647 17.1247C53.9647 13.7017 55.8229 11.4523 58.3657 10.3765C60.2246 9.56827 62.6847 9.29439 64.8076 9.05806C65.2534 9.00842 65.6844 8.96045 66.0918 8.90952V8.42052C66.0918 8.30031 66.0933 8.17715 66.0948 8.05193C66.1055 7.15845 66.1175 6.16074 65.6028 5.38874C65.1138 4.60634 64.2336 4.31294 63.3534 4.31294C61.7886 4.31294 60.3216 5.09534 60.0282 6.75793C59.9304 7.14913 59.7348 7.54033 59.3436 7.54033L55.3339 7.14913C55.0405 7.05133 54.6493 6.75793 54.7471 6.26893C55.7251 1.47676 60.0282 0.00976562 63.9402 0.00976562C65.994 0.00976562 68.6346 0.498763 70.1016 2.06356C71.9896 3.86162 71.9767 6.07292 71.9623 8.54549C71.9611 8.76266 71.9598 8.98183 71.9598 9.20292V15.5599C71.9598 17.2553 72.6111 18.1365 73.3194 19.095ZM62.571 19.3741C63.7446 19.3741 64.7226 18.6895 65.4072 17.5159C66.1896 16.0489 66.1896 14.6797 66.1896 13.1149V12.2347C63.1578 12.2347 60.0282 12.8215 60.0282 16.3423C60.0282 18.2005 61.0062 19.3741 62.571 19.3741ZM19.3341 19.095C19.4021 19.187 19.4707 19.2798 19.5392 19.3741C19.8326 19.7653 19.9304 20.2543 19.5392 20.3521C19.0992 20.6944 18.5124 21.2078 17.9256 21.7213C17.3388 22.2347 16.752 22.7482 16.3119 23.0905C16.0185 23.286 15.6273 23.3838 15.3339 23.1882C14.2855 22.3645 13.9252 21.8275 13.4626 21.1381C13.3211 20.9271 13.17 20.7019 12.9867 20.4499C10.7373 22.7971 9.1725 23.4816 6.23852 23.4816C2.81553 23.4816 0.0771484 21.3301 0.0771484 17.1247C0.0771484 13.7017 1.93534 11.4523 4.47813 10.3765C6.33709 9.56827 8.79722 9.29439 10.9201 9.05806C11.3659 9.00842 11.7969 8.96045 12.2043 8.90952V8.42052C12.2043 8.30031 12.2058 8.17713 12.2073 8.05191C12.218 7.15844 12.23 6.16074 11.7153 5.38874C11.2263 4.60634 10.3461 4.31294 9.4659 4.31294C7.90111 4.31294 6.43412 5.09534 6.14072 6.75793C6.04292 7.14913 5.84732 7.54033 5.45612 7.54033L1.44634 7.14913C1.05514 7.05133 0.761745 6.85573 0.859544 6.26893C1.83754 1.47676 6.14072 0.00976562 10.0527 0.00976562C12.0087 0.00976562 14.6493 0.498763 16.1163 2.06356C18.0042 3.86163 17.9914 6.07293 17.977 8.54551C17.9757 8.76266 17.9745 8.98184 17.9745 9.20292V15.5599C17.9745 17.2553 18.6257 18.1365 19.3341 19.095ZM8.68351 19.3741C9.8571 19.3741 10.8351 18.6895 11.5197 17.5159C12.3021 16.0489 12.3021 14.6797 12.3021 13.1149V12.2347C9.2703 12.2347 6.14072 12.8215 6.14072 16.3423C6.14072 18.2005 7.11871 19.3741 8.68351 19.3741ZM54.0644 40.0098C63.7465 40.0098 74.8956 36.978 82.6218 31.3056C83.8932 30.4254 82.8174 28.9584 81.4482 29.4474C72.8419 33.1638 63.3553 34.9242 54.8467 34.9242C42.1328 34.9242 29.8101 31.5012 19.9323 25.731C19.0521 25.1442 18.4653 26.0244 19.1499 26.709C28.4409 35.022 40.568 40.0098 54.0644 40.0098ZM76.9325 27.2861C79.4173 26.9878 84.8818 26.3317 85.8492 27.5892C86.7633 28.8689 84.9435 33.4804 83.9831 35.9143C83.9159 36.0846 83.853 36.2441 83.7954 36.3912C83.502 37.0758 84.0888 37.3692 84.7734 36.8802C88.9788 33.4572 90.0546 26.1222 89.1744 25.1442C88.2942 24.1663 81.057 23.1883 76.656 26.3178C75.9714 26.709 76.0692 27.3936 76.8516 27.2958L76.9325 27.2861Z" fill="white"/>
</svg>
