<svg width="98" height="41" viewBox="0 0 98 41" fill="none" xmlns="http://www.w3.org/2000/svg">
<path d="M17.7666 0.423559H28.5712V39.55H17.7666V25.0672H10.87V39.55H0.0654297V0.423559H10.87V15.1822H17.7666V0.423559ZM97.0769 20.0098C97.0769 31.0442 88.1114 40.0098 77.0769 40.0098C68.5942 40.0098 61.3298 34.6994 58.4332 27.2511C58.4562 27.504 58.4562 27.7799 58.4562 28.0557C58.4562 40.0098 48.1114 39.55 48.1114 39.55H30.87V0.423559H47.4217C50.4103 0.423559 58.916 2.05574 58.916 10.4236C58.916 10.8833 58.893 11.3201 58.87 11.7339C62.0195 4.81436 69.008 0.00976562 77.0769 0.00976562C88.1114 0.00976562 97.0769 8.97528 97.0769 20.0098ZM48.5712 27.1362C48.5712 24.3776 46.2723 24.3776 46.2723 24.3776H40.5252V30.3546H46.2723C46.2723 30.3546 48.5712 30.1247 48.5712 27.1362ZM48.5712 12.7684C48.5712 9.9408 46.2723 9.96379 46.2723 9.96379H40.5252V15.8718H46.2723C46.2723 15.8718 48.5712 15.596 48.5712 12.7684ZM57.3298 23.1362C57.1689 22.1247 57.0769 21.0672 57.0769 20.0098C57.0769 18.9523 57.1689 17.9408 57.3068 16.9293C56.1574 18.6534 54.5482 19.3661 53.1689 19.619C51.7896 19.8718 55.3988 19.7569 57.3298 23.1362ZM86.962 20.0098C86.962 14.5615 82.5252 10.1247 77.0769 10.1247C71.6286 10.1247 67.1919 14.5615 67.1919 20.0098C67.1919 25.458 71.6286 29.8948 77.0769 29.8948C82.5252 29.8948 86.962 25.458 86.962 20.0098ZM77.0769 11.9638C72.6401 11.9638 69.0309 15.573 69.0309 20.0098C69.0309 24.4465 72.6401 28.0557 77.0769 28.0557C81.5137 28.0557 85.1229 24.4465 85.1229 20.0098C85.1229 15.573 81.5137 11.9638 77.0769 11.9638Z" fill="white"/>
</svg>
