<svg width="134" height="41" viewBox="0 0 134 41" fill="none" xmlns="http://www.w3.org/2000/svg">
<path d="M20.5713 0.00976562C9.52523 0.00976562 0.571289 8.96371 0.571289 20.0098C0.571289 31.0558 9.52523 40.0098 20.5713 40.0098C31.6173 40.0098 40.5713 31.0558 40.5713 20.0098C40.5713 8.96507 31.6173 0.0111303 20.5713 0.00976562ZM29.7436 28.8545C29.3847 29.4441 28.6163 29.6283 28.0295 29.2694C23.3335 26.3994 17.4215 25.7512 10.4601 27.3411C9.78862 27.4953 9.11991 27.0749 8.96706 26.4035C8.81285 25.732 9.23181 25.0633 9.90462 24.9105C17.5225 23.1705 24.0582 23.9197 29.3301 27.1404C29.9169 27.5021 30.1039 28.2677 29.7436 28.8545ZM32.1905 23.4107C31.7388 24.1449 30.778 24.3741 30.0452 23.9238C24.6709 20.6198 16.4744 19.6631 10.1162 21.5928C9.29186 21.8426 8.42117 21.3772 8.17006 20.5543C7.92168 19.73 8.38705 18.8607 9.20998 18.6096C16.473 16.4055 25.5034 17.4727 31.676 21.2667C32.4103 21.7184 32.6423 22.6778 32.1905 23.4107ZM32.4007 17.7389C25.9538 13.9108 15.3198 13.5587 9.16494 15.4257C8.17688 15.7259 7.13151 15.1677 6.83263 14.1797C6.53376 13.1916 7.09057 12.1462 8.07999 11.846C15.1452 9.70202 26.8886 10.1155 34.3099 14.5209C35.1984 15.049 35.4904 16.1967 34.9636 17.0838C34.4382 17.9736 33.2878 18.267 32.4007 17.7389ZM54.9841 18.4731C51.5314 17.6502 50.9159 17.0715 50.9159 15.8569C50.9159 14.7092 51.9967 13.9381 53.603 13.9381C55.1602 13.9381 56.7037 14.5249 58.3236 15.7314C58.3727 15.7682 58.4341 15.7819 58.4942 15.7723C58.5542 15.7628 58.6075 15.73 58.6429 15.6795L60.3284 13.3022C60.398 13.2039 60.3789 13.0688 60.2861 12.9951C58.3591 11.4489 56.1905 10.6969 53.6535 10.6969C49.9251 10.6969 47.3212 12.935 47.3212 16.1353C47.3212 19.569 49.5675 20.7836 53.4502 21.7225C56.7542 22.484 57.3123 23.1213 57.3123 24.2609C57.3123 25.5246 56.1851 26.3093 54.37 26.3093C52.3543 26.3093 50.7098 25.6297 48.8715 24.0371C48.8265 23.9975 48.7637 23.9797 48.705 23.9825C48.6436 23.9879 48.589 24.0152 48.5495 24.0616L46.6593 26.3121C46.5802 26.4049 46.5897 26.5454 46.6811 26.6259C48.821 28.5365 51.4522 29.5451 54.2936 29.5451C58.3113 29.5451 60.907 27.3492 60.907 23.9524C60.9138 21.0838 59.197 19.4953 54.9909 18.4731H54.9841ZM69.9974 15.0681C68.256 15.0681 66.8272 15.7546 65.6494 17.1589V15.5771C65.6494 15.4516 65.5484 15.3506 65.4229 15.3506H62.3304C62.2049 15.3506 62.1039 15.453 62.1039 15.5771V33.1548C62.1039 33.2803 62.2049 33.3813 62.3304 33.3813H65.4229C65.5471 33.3813 65.6494 33.279 65.6494 33.1548V27.6058C66.8272 28.9282 68.256 29.5737 69.9974 29.5737C73.2332 29.5737 76.5085 27.0831 76.5085 22.3216C76.514 17.5587 73.2359 15.0667 70.0002 15.0667L69.9974 15.0681ZM72.9138 22.3216C72.9138 24.7467 71.4208 26.439 69.2809 26.439C67.167 26.439 65.5716 24.6703 65.5716 22.3216C65.5716 19.9743 67.167 18.2042 69.2809 18.2042C71.3853 18.2042 72.9138 19.9361 72.9138 22.3216ZM84.9043 15.0681C80.7364 15.0681 77.472 18.2766 77.472 22.3748C77.472 26.4281 80.7146 29.6024 84.8524 29.6024C89.0339 29.6024 92.3093 26.4049 92.3093 22.323C92.3106 18.2547 89.0571 15.0681 84.9043 15.0681ZM84.9043 26.4622C82.688 26.4622 81.0162 24.6812 81.0162 22.3202C81.0162 19.9484 82.6293 18.2288 84.8524 18.2288C87.0837 18.2288 88.7651 20.0098 88.7651 22.3721C88.7664 24.7426 87.1424 26.4622 84.9043 26.4622ZM101.21 15.3506H97.8077V11.8719C97.8077 11.7477 97.7067 11.6454 97.5826 11.6454H94.4915C94.3659 11.6454 94.2649 11.7477 94.2649 11.8719V15.3506H92.7787C92.6545 15.3506 92.5535 15.453 92.5535 15.5771V18.2343C92.5535 18.3585 92.6545 18.4608 92.7787 18.4608H94.2649V25.3363C94.2649 28.1148 95.6474 29.5232 98.3755 29.5232C99.485 29.5232 100.405 29.294 101.271 28.8027C101.342 28.7631 101.386 28.6867 101.386 28.6061V26.076C101.386 25.9982 101.345 25.9245 101.278 25.8835C101.211 25.8412 101.127 25.8385 101.058 25.8726C100.463 26.1728 99.8876 26.3107 99.2434 26.3107C98.2513 26.3107 97.8091 25.8603 97.8091 24.8504V18.4608H101.211C101.337 18.4608 101.437 18.3585 101.437 18.2343V15.5771C101.442 15.4516 101.341 15.3506 101.214 15.3506H101.21ZM113.065 15.3643V14.9371C113.065 13.6802 113.547 13.1193 114.628 13.1193C115.272 13.1193 115.791 13.2476 116.371 13.4414C116.442 13.4632 116.517 13.4523 116.574 13.41C116.634 13.3677 116.667 13.2981 116.667 13.2257V10.6191C116.667 10.5195 116.603 10.4308 116.507 10.4021C115.894 10.2193 115.111 10.0323 113.937 10.0323C111.081 10.0323 109.572 11.6399 109.572 14.6819V15.3356H108.085C107.961 15.3356 107.859 15.4379 107.859 15.5621V18.2329C107.859 18.3571 107.961 18.4594 108.085 18.4594H109.572V29.0661C109.572 29.1916 109.673 29.2926 109.797 29.2926H112.889C113.015 29.2926 113.116 29.1903 113.116 29.0661V18.4608H116.002L120.424 29.0647C119.922 30.1783 119.428 30.4008 118.755 30.4008C118.21 30.4008 117.636 30.2384 117.05 29.9176C116.996 29.8876 116.93 29.8822 116.87 29.9013C116.811 29.9217 116.761 29.9654 116.736 30.0227L115.688 32.3223C115.638 32.4315 115.681 32.5584 115.785 32.6143C116.88 33.2066 117.866 33.4591 119.088 33.4591C121.371 33.4591 122.633 32.396 123.746 29.5342L129.11 15.6727C129.138 15.6031 129.129 15.5239 129.086 15.4625C129.043 15.4011 128.975 15.3643 128.9 15.3643H125.681C125.584 15.3643 125.498 15.4257 125.467 15.5157L122.169 24.935L118.557 15.5103C118.524 15.4229 118.44 15.3643 118.345 15.3643H113.065ZM106.191 15.3506H103.099C102.973 15.3506 102.872 15.453 102.872 15.5771V29.0674C102.872 29.193 102.975 29.294 103.099 29.294H106.191C106.315 29.294 106.418 29.1916 106.418 29.0674V15.5785C106.418 15.453 106.317 15.352 106.191 15.3506C106.193 15.3506 106.191 15.3506 106.191 15.3506ZM104.663 9.20799C103.437 9.20799 102.444 10.2001 102.444 11.4243C102.444 12.6498 103.439 13.6433 104.663 13.6433C105.887 13.6433 106.88 12.6512 106.88 11.4243C106.88 10.2001 105.887 9.20799 104.663 9.20799ZM131.751 19.6877C130.527 19.6877 129.576 18.7051 129.576 17.511C129.576 16.3168 130.541 15.3233 131.763 15.3233C132.988 15.3233 133.939 16.3059 133.939 17.4987C133.937 18.6928 132.973 19.6877 131.751 19.6877ZM131.762 15.5403C130.647 15.5403 129.804 16.426 129.804 17.511C129.804 18.5959 130.642 19.4693 131.75 19.4693C132.865 19.4693 133.708 18.5836 133.708 17.4987C133.709 16.4151 132.872 15.5403 131.762 15.5403ZM132.245 17.7225L132.861 18.5836H132.342L131.788 17.7935H131.312V18.5836H130.878V16.2991H131.896C132.427 16.2991 132.776 16.5707 132.776 17.0278C132.779 17.4018 132.56 17.6311 132.248 17.7211L132.245 17.7225ZM131.877 16.6921H131.31V17.4141H131.877C132.159 17.4141 132.328 17.2762 132.328 17.0524C132.328 16.8177 132.159 16.6921 131.877 16.6921Z" fill="white"/>
</svg>
