<svg width="100" height="41" viewBox="0 0 100 41" fill="none" xmlns="http://www.w3.org/2000/svg">
<path d="M0 0.00976562V2.73704H19.4318V0.00976562H0ZM22.2727 0.00976562V2.73704H50C50 2.73704 47.1591 0.00976562 43.4091 0.00976562H22.2727ZM55.4545 0.00976562V2.73704H72.2727L71.1364 0.00976562H55.4545ZM84.2045 0.00976562L83.1818 2.73704H99.7727V0.00976562H84.2045ZM0 5.35067V8.07795H19.4318V5.35067H0ZM22.2727 5.35067V8.07795H53.1818C53.1818 8.07795 52.8409 5.91886 52.1591 5.35067H22.2727ZM55.4545 5.35067V8.07795H74.0909L73.1818 5.35067H55.4545ZM82.2727 5.35067L81.3636 8.07795H99.8864V5.35067H82.2727ZM5.56818 10.6916V13.4189H13.9773V10.6916H5.56818ZM27.8409 10.6916V13.4189H36.25V10.6916H27.8409ZM44.4318 10.6916V13.4189H52.8409C52.8409 13.4189 53.4091 11.9416 53.4091 10.6916H44.4318ZM61.0227 10.6916V13.4189H76.0227L75 10.6916H61.0227ZM80.3409 10.6916L79.3182 13.4189H94.3182V10.6916H80.3409ZM5.56818 16.0325V18.7598H13.9773V16.0325H5.56818ZM27.8409 16.0325V18.7598H49.3182C49.3182 18.7598 51.1364 17.3961 51.7045 16.0325H27.8409ZM61.0227 16.0325V18.7598H69.4318V17.2825L70 18.7598H85.4545L86.0227 17.2825V18.7598H94.4318V16.0325H78.6364L77.8409 18.3052L77.0454 16.0325H61.0227ZM5.56818 21.2598V23.987H13.9773V21.2598H5.56818ZM27.8409 21.2598V23.987H51.7045C51.1364 22.6234 49.3182 21.2598 49.3182 21.2598H27.8409ZM61.0227 21.2598V23.987H69.4318V21.2598H61.0227ZM70.9091 21.2598L71.9318 23.987H83.5227L84.5454 21.2598H70.9091ZM86.0227 21.2598V23.987H94.4318V21.2598H86.0227ZM5.56818 26.6007V29.3279H13.9773V26.6007H5.56818ZM27.8409 26.6007V29.3279H36.25V26.6007H27.8409ZM44.4318 26.6007V29.3279H53.4091C53.4091 28.0779 52.8409 26.6007 52.8409 26.6007H44.4318ZM61.0227 26.6007V29.3279H69.4318V26.6007H61.0227ZM72.8409 26.6007L73.8636 29.3279H81.5909L82.6136 26.6007H72.8409ZM86.0227 26.6007V29.3279H94.4318V26.6007H86.0227ZM0.113636 31.9416V34.6689H19.5455V31.9416H0.113636ZM22.2727 31.9416V34.6689H52.2727C52.9545 33.987 53.2955 31.9416 53.2955 31.9416H22.2727ZM55.5682 31.9416V34.6689H69.4318V31.9416H55.5682ZM74.7727 31.9416L75.7954 34.6689H79.7727L80.6818 31.9416H74.7727ZM86.0227 31.9416V34.6689H100V31.9416H86.0227ZM0.113636 37.2825V40.0098H19.5455V37.2825H0.113636ZM22.2727 37.2825V40.0098H43.4091C47.1591 40.0098 50 37.2825 50 37.2825H22.2727ZM55.5682 37.2825V40.0098H69.4318V37.2825H55.5682ZM76.7045 37.2825L77.7273 40.0098H77.8409L78.8636 37.2825H76.7045ZM86.0227 37.2825V40.0098H100V37.2825H86.0227Z" fill="white"/>
</svg>
