<svg width="59" height="41" viewBox="0 0 59 41" fill="none" xmlns="http://www.w3.org/2000/svg">
<path d="M22.1428 20.9241C22.1428 21.2812 21.9714 21.6241 21.6785 21.8241C20.5285 22.6312 19.2857 21.8169 19.2857 20.7241V9.29551H10.7143V23.5812C10.7143 27.5169 13.9214 30.7241 17.8571 30.7241C19.5571 30.7241 21.2071 30.1169 22.5 29.0098C22.3643 30.0669 21.7857 30.9383 20.8143 31.5455C19.9071 32.1169 18.7214 32.4169 17.3928 32.4169C16.0214 32.4169 14.6286 32.0955 13.3643 31.4883C13.3643 31.4883 13.1357 31.3812 12.85 31.2169V38.8312C14.7571 39.6026 16.85 40.0098 18.8714 40.0098C22.0714 40.0098 24.9928 39.0098 27.1 37.1883C29.4643 35.1526 30.7143 32.1741 30.7143 28.5812V9.29551H22.1428V20.9241ZM8.57142 23.5812V0.724093H0V22.1526C0 28.0383 3.88571 30.7241 7.49999 30.7241C8.57856 30.7241 9.65713 30.4741 10.6214 30.0241C10.7643 29.9598 10.9928 29.8169 10.9928 29.8169C10.9928 29.8169 10.7786 29.5883 10.6857 29.4883C9.31428 27.9241 8.57142 25.8955 8.57142 23.5812ZM58.5714 17.8669V9.29551H55.5142C54.2357 2.55981 47.1571 -1.86876 40.0428 0.795521C36.0785 2.27409 32.8571 7.0098 32.8571 11.2455V30.7241H33.2285C35.4357 30.6312 37.5 29.6955 39.0357 28.0955C40.5785 26.4883 41.4285 24.3812 41.4285 22.1598H45V13.5812H41.4285V11.2241C41.4285 10.3098 41.9142 9.45265 42.7142 9.0098C44.9071 7.78837 47.1428 9.3598 47.1428 11.4384V19.2955C47.1428 22.4026 48.3142 25.2884 50.4428 27.4241C52.4785 29.4598 55.2357 30.6312 58.1999 30.7241H58.5642V22.1526C56.9642 22.1455 55.7071 20.8598 55.7071 19.2955V17.8669H58.5714Z" fill="white"/>
</svg>
