<svg width="149" height="41" viewBox="0 0 149 41" fill="none" xmlns="http://www.w3.org/2000/svg">
<path d="M126.571 37.3661C128.64 37.596 130.709 37.8259 132.663 38.0557L137.145 26.9063L141.398 39.0902C143.582 39.3201 145.766 39.6649 147.95 40.0098L140.479 18.6305L148.065 0.00976562H141.743L141.628 0.124708L137.605 10.1247L134.042 0.00976562H127.72L134.157 18.4006L126.571 37.3661ZM121.743 36.9063V0.00976563H115.421V36.4465C117.605 36.5615 119.674 36.7914 121.743 36.9063ZM74.5017 34.8374H79.5592V21.3891H87.1454V15.6419H79.5592V5.75689H88.2948V0.00976563H73.3523V34.8374H74.5017ZM55.0764 35.1822C57.1454 35.0672 59.2143 35.0672 61.3982 34.9523V5.75689H67.2603V0.00976563H49.2143V5.75689H55.0764V35.1822ZM6.91549 39.0902V17.1362L14.3868 38.2856L21.2833 37.596V0.00976563H15.3063V22.7684L7.26032 0.00976563H0.938477V39.8948C3.00744 39.6649 4.96146 39.4351 6.91549 39.0902ZM43.1224 5.75689V0.00976563H28.0649V36.9063C33.0074 36.4465 38.0649 36.1017 43.0074 35.8718V30.1247C40.1339 30.2397 37.2603 30.4695 34.2718 30.6994V21.3891H41.858V15.6419H34.2718V5.75689H43.1224ZM100.824 29.7799V0.00976563H94.5017V35.2971C99.5592 35.527 104.502 35.7569 109.559 36.1017V30.3546C106.571 30.0098 103.697 29.8948 100.824 29.7799Z" fill="white"/>
</svg>
