<svg width="319" height="206" viewBox="0 0 319 206" fill="none" xmlns="http://www.w3.org/2000/svg">
<path d="M7.18549 75.321C18.9849 53.7091 36.3872 41.0431 60.9902 39.4975C72.4644 38.7766 83.0513 42.0136 92.7971 48.051C94.6264 49.1843 96.4498 50.3272 99.047 51.9463C105.699 18.5233 126.044 0.0574268 159.603 0.0715718C193.075 0.0857018 213.862 17.9749 220.386 51.9857C223.682 50.004 226.288 48.3038 229.012 46.8196C256.556 31.8092 289.427 40.5318 307.96 67.7358C324.239 91.6302 322.11 120.444 302.417 141.618C270.561 175.873 230.751 195.009 185.198 203.293C146.263 210.374 110.233 200.414 75.3657 184.4C53.331 174.28 34.1199 159.992 17.6304 142.172C-0.294098 122.801 -3.9408 99.5928 7.18549 75.321ZM111.784 138.438C117.337 133.022 117.999 129.193 114.638 121.936C112.86 118.097 113.77 116.67 117.892 116.836C129.23 117.295 139.435 124.879 143.188 135.637C143.46 136.417 143.592 137.292 144.038 137.955C145.084 139.506 146.347 140.992 148.513 140.234C150.345 139.593 150.81 138.006 150.763 136.195C150.681 133.103 149.504 130.362 148.073 127.71C141.294 115.141 124.476 107.008 109.783 109.614C95.8162 112.091 84.8289 118.706 80.0193 132.993C79.0876 135.76 78.1301 138.981 81.7606 140.218C85.2468 141.406 86.0811 138.266 87.0109 135.695C88.0303 132.877 88.7758 129.8 91.8339 128.041C97.4392 140.709 102.047 143.188 111.784 138.438ZM215.63 118.579C223.91 121.724 229.707 127.264 232.3 135.884C233.045 138.363 234.432 140.291 237.267 139.683C240.519 138.985 239.968 136.221 239.486 133.991C238.561 129.701 236.644 125.811 233.75 122.478C223.747 110.958 210.792 107.18 196.306 109.821C182.828 112.279 172.852 119.888 168.646 133.584C167.983 135.743 167.373 138.51 170.379 139.564C173.532 140.669 174.797 138.484 175.717 135.861C176.664 133.163 177.062 130.032 180.471 128.408C181.042 130.015 181.521 131.378 182.011 132.738C183.626 137.222 186.857 139.842 191.495 140.6C196.495 141.417 200.347 139.252 203.032 135.228C205.766 131.131 205.483 126.774 203.316 122.431C200.974 117.739 201.754 116.628 207.087 116.687C209.801 116.717 212.35 117.419 215.63 118.579ZM178.97 165.486C180.463 163.789 182.936 162.125 180.698 159.633C178.362 157.031 175.925 158.571 173.66 160.237C164.115 167.258 155.012 167.315 145.827 160.361C143.572 158.654 141.139 156.925 138.922 159.731C136.855 162.345 139.16 164.307 141.035 165.999C151.281 175.247 166.574 175.23 178.97 165.486Z" fill="white"/>
</svg>
