<svg width="48" height="49" viewBox="0 0 48 49" fill="none" xmlns="http://www.w3.org/2000/svg">
<path opacity="0.48" d="M34.3481 38.3422C32.8525 36.8466 31.8332 34.9417 31.4186 32.8676L30.132 25.858C29.97 25.8176 24.7734 24.7734 24.7734 24.7734L25.7468 29.643C26.1613 31.717 27.1806 33.6219 28.6762 35.1175L36.5059 42.9472L37.7295 41.7236L34.3481 38.3422Z" fill="#00AB55"/>
<path d="M36.3329 27.4608C34.5915 25.7194 32.3946 24.5439 29.9799 24.0612L25.1103 23.0879C24.547 22.9751 23.9645 23.1516 23.5581 23.558C23.1518 23.9644 22.9755 24.5468 23.088 25.1103L24.0614 29.9798C24.5441 32.3947 25.7196 34.5914 27.4609 36.3328L35.2906 44.1624C36.4755 45.3473 38.0509 46 39.7266 46C41.4023 46 42.9777 45.3473 44.1626 44.1624C45.3475 42.9775 46 41.4021 46 39.7265C46 38.0508 45.3475 36.4754 44.1626 35.2905L36.3329 27.4608ZM41.7318 41.7319C41.1963 42.2674 40.484 42.5625 39.7266 42.5625C38.9691 42.5625 38.2569 42.2674 37.7213 41.7318L29.8916 33.9022C28.6319 32.6423 27.7814 31.0531 27.4323 29.3062L26.9642 26.9641L29.3062 27.4322C31.0532 27.7814 32.6425 28.6317 33.9022 29.8916L41.7319 37.7212C42.2675 38.2568 42.5625 38.9691 42.5625 39.7265C42.5625 40.484 42.2675 41.1962 41.7318 41.7319Z" fill="#00AB55"/>
<path d="M17.2109 5.4375H12.0169C11.3073 3.43705 9.3969 2 7.15625 2C4.31309 2 2 4.31309 2 7.15625C2 9.3969 3.43705 11.3073 5.4375 12.0169V17.125C5.4375 18.0743 6.20698 18.8438 7.15625 18.8438C8.10552 18.8438 8.875 18.0743 8.875 17.125V12.0169C10.3375 11.4982 11.4982 10.3376 12.0169 8.875H17.2109C18.1602 8.875 18.9297 8.10552 18.9297 7.15625C18.9297 6.20698 18.1602 5.4375 17.2109 5.4375ZM7.15625 8.875C6.20853 8.875 5.4375 8.10397 5.4375 7.15625C5.4375 6.20853 6.20853 5.4375 7.15625 5.4375C8.10397 5.4375 8.875 6.20853 8.875 7.15625C8.875 8.10397 8.10397 8.875 7.15625 8.875ZM30.7031 8.875H35.9831C36.5018 10.3375 37.6624 11.4982 39.125 12.0169V17.125C39.125 18.0743 39.8945 18.8438 40.8438 18.8438C41.793 18.8438 42.5625 18.0743 42.5625 17.125V12.0169C44.563 11.3074 46 9.3969 46 7.15625C46 4.31309 43.6869 2 40.8438 2C38.6031 2 36.6927 3.43705 35.9831 5.4375H30.7031C29.7539 5.4375 28.9844 6.20698 28.9844 7.15625C28.9844 8.10552 29.7539 8.875 30.7031 8.875ZM40.8438 5.4375C41.7915 5.4375 42.5625 6.20853 42.5625 7.15625C42.5625 8.10397 41.7915 8.875 40.8438 8.875C39.896 8.875 39.125 8.10397 39.125 7.15625C39.125 6.20853 39.896 5.4375 40.8438 5.4375ZM17.2109 39.125H12.0169C11.4982 37.6625 10.3376 36.5018 8.875 35.9831V30.7891C8.875 29.8398 8.10552 29.0703 7.15625 29.0703C6.20698 29.0703 5.4375 29.8398 5.4375 30.7891V35.9831C3.43705 36.6927 2 38.6031 2 40.8438C2 43.6869 4.31309 46 7.15625 46C9.3969 46 11.3073 44.563 12.0169 42.5625H17.2109C18.1602 42.5625 18.9297 41.793 18.9297 40.8438C18.9297 39.8945 18.1602 39.125 17.2109 39.125ZM7.15625 42.5625C6.20853 42.5625 5.4375 41.7915 5.4375 40.8438C5.4375 39.896 6.20853 39.125 7.15625 39.125C8.10397 39.125 8.875 39.896 8.875 40.8438C8.875 41.7915 8.10397 42.5625 7.15625 42.5625Z" fill="#005249"/>
<path d="M26.0625 7.15625C26.0625 8.34279 25.1006 9.30469 23.9141 9.30469C22.7275 9.30469 21.7656 8.34279 21.7656 7.15625C21.7656 5.96971 22.7275 5.00781 23.9141 5.00781C25.1006 5.00781 26.0625 5.96971 26.0625 7.15625ZM23.9141 38.6953C22.7275 38.6953 21.7656 39.6572 21.7656 40.8438C21.7656 42.0303 22.7275 42.9922 23.9141 42.9922C25.1006 42.9922 26.0625 42.0303 26.0625 40.8438C26.0625 39.6572 25.1006 38.6953 23.9141 38.6953ZM40.8438 22.0234C39.6572 22.0234 38.6953 22.9853 38.6953 24.1719C38.6953 25.3584 39.6572 26.3203 40.8438 26.3203C42.0303 26.3203 42.9922 25.3584 42.9922 24.1719C42.9922 22.9853 42.0303 22.0234 40.8438 22.0234ZM7.15625 22.0234C5.96971 22.0234 5.00781 22.9853 5.00781 24.1719C5.00781 25.3584 5.96971 26.3203 7.15625 26.3203C8.34279 26.3203 9.30469 25.3584 9.30469 24.1719C9.30469 22.9853 8.34279 22.0234 7.15625 22.0234Z" fill="#00AB55"/>
</svg>
