<svg width="48" height="49" viewBox="0 0 48 49" fill="none" xmlns="http://www.w3.org/2000/svg">
<path opacity="0.48" d="M9.04688 27.4098V13.309C9.04688 8.56471 12.8835 4.71875 17.6162 4.71875H12.3984C7.6522 4.71875 3.80469 8.56626 3.80469 13.3125V27.4062C3.80469 32.1524 7.6522 36 12.3984 36H17.6162C12.8835 36 9.04688 32.154 9.04688 27.4098Z" fill="#00B8D9"/>
<path d="M32.25 44.5938H15.75C13.472 44.5093 13.4737 41.24 15.75 41.1562H32.25C34.528 41.2407 34.5263 44.51 32.25 44.5938ZM35.6875 37.7188H12.3107C6.62541 37.7188 2 33.0934 2 27.4081V13.3125C2 7.62619 6.62619 3 12.3125 3H35.6875C41.3738 3 46 7.62619 46 13.3125V27.4062C46 33.0926 41.3738 37.7188 35.6875 37.7188ZM12.3125 6.4375C8.52163 6.4375 5.4375 9.52163 5.4375 13.3125V27.4081C5.4375 31.1979 8.52085 34.2812 12.3107 34.2812H35.6875C39.4784 34.2812 42.5625 31.1971 42.5625 27.4062V13.3125C42.5625 9.52163 39.4784 6.4375 35.6875 6.4375H12.3125Z" fill="#003768"/>
<path d="M22.1107 29.0395C21.9535 29.0395 21.7937 29.0178 21.635 28.9722C20.7227 28.7098 20.1958 27.7577 20.4581 26.8454L24.4112 13.0954C24.6735 12.1832 25.6258 11.6567 26.538 11.9185C27.4502 12.1809 27.9772 13.133 27.7149 14.0453L23.7618 27.7953C23.545 28.5488 22.8575 29.0395 22.1107 29.0395ZM32.4224 27.3203C31.978 27.3203 31.5338 27.149 31.1974 26.8072C30.5316 26.1306 30.5402 25.0424 31.2168 24.3765L34.5819 21.0648C34.9162 20.7038 34.9163 20.2295 34.5791 19.8684L31.2086 16.5059C30.5365 15.8354 30.5353 14.7472 31.2057 14.0752C31.8762 13.4031 32.9645 13.402 33.6364 14.0723L37.0066 17.4345C38.6751 19.0305 38.6751 21.9058 37.0062 23.5019C37.0036 23.5046 37.0009 23.5073 36.9983 23.5099L33.6281 26.8267C33.2933 27.156 32.8577 27.3203 32.4224 27.3203ZM15.7504 27.3203C15.3151 27.3203 14.8797 27.156 14.5449 26.8266L11.1747 23.5098C11.172 23.5072 11.1693 23.5045 11.1668 23.5019C9.49776 21.9054 9.49784 19.0304 11.1668 17.4342L14.5365 14.0723C15.2086 13.4019 16.2968 13.4033 16.9672 14.0752C17.6376 14.7472 17.6364 15.8354 16.9644 16.5059L13.5941 19.8681C13.2569 20.229 13.2562 20.7031 13.591 21.0648L16.956 24.3765C17.6326 25.0424 17.6413 26.1306 16.9754 26.8072C16.6391 27.149 16.1948 27.3203 15.7504 27.3203Z" fill="#00B8D9"/>
</svg>
