<svg width="48" height="49" viewBox="0 0 48 49" fill="none" xmlns="http://www.w3.org/2000/svg">
<path opacity="0.48" d="M17.2978 43.8376L17.0351 44.2704C17.0351 44.2704 5.35059 44.8718 5.35059 37.1395C5.35059 29.2353 15.5845 25.7734 18.7534 24.6818C19.4455 24.4433 20.6797 24.0958 22.1858 23.6157C22.4107 24.0926 22.6296 24.572 22.8435 25.0535C18.9084 26.4624 10.5055 29.9771 10.5055 37.1395C10.5055 41.4265 14.097 43.1512 17.2978 43.8376ZM29.1018 43.2261L30.7236 35.8797C31.138 33.8062 32.1571 31.9018 33.6523 30.4065L36.6943 27.3645C35.395 27.2464 34.0548 27.6842 33.0602 28.6789L27.81 33.9291C26.3148 35.4242 25.2958 37.3286 24.8813 39.4022L23.9083 44.2704C23.9083 44.2704 28.9938 43.2512 29.1018 43.2261Z" fill="#FFAB00"/>
<path d="M44.151 24.0269C42.9664 22.8423 41.3914 22.1899 39.7162 22.1899C38.0409 22.1899 36.4659 22.8423 35.2813 24.0269L26.5945 32.7137C24.8536 34.4547 23.6785 36.6509 23.1959 39.0651L22.2228 43.9334C22.1102 44.4967 22.2866 45.079 22.6928 45.4852C23.0182 45.8106 23.4567 45.9884 23.9079 45.9884C24.0199 45.9884 24.1326 45.9775 24.2447 45.9551L29.113 44.982C31.5271 44.4995 33.7233 43.3243 35.4643 41.5834L44.151 32.8966C45.3356 31.712 45.9881 30.137 45.9881 28.4618C45.9881 26.7865 45.3356 25.2115 44.151 24.0269ZM41.7209 30.4665L33.0341 39.1533C31.7747 40.4128 30.1859 41.263 28.4394 41.612L26.0979 42.08L26.5659 39.7385C26.915 37.9921 27.7651 36.4032 29.0246 35.1438L37.7114 26.4569C38.2469 25.9215 38.9589 25.6265 39.7162 25.6265C40.4734 25.6265 41.1855 25.9215 41.721 26.457C42.2564 26.9924 42.5514 27.7045 42.5514 28.4618C42.5514 29.219 42.2565 29.9311 41.7209 30.4665Z" fill="#FFAB00"/>
<path d="M20.545 25.91C20.0436 26.0678 19.535 26.23 19.238 26.3322C16.2283 27.3685 7.06942 30.5223 7.06942 37.1393C7.06942 38.4186 7.4831 39.4345 8.33418 40.2451C10.5699 42.3746 15.3125 42.634 16.9496 42.5541C17.8983 42.5069 18.7031 43.2376 18.7505 44.1844C18.798 45.1312 18.0708 45.9375 17.1239 45.9863C17.0738 45.9889 16.8341 46 16.452 46C14.549 46 9.11231 45.724 5.97211 42.7412C4.41997 41.2669 3.63281 39.3821 3.63281 37.1393C3.63281 34.971 4.28156 32.9294 5.56084 31.0712C6.58237 29.5877 8.01844 28.2116 9.82953 26.9811C12.9445 24.8647 16.5146 23.6353 18.1942 23.057C18.5351 22.9396 18.9888 22.797 19.5141 22.6318C21.8606 21.8938 25.7878 20.6588 29.1565 18.783C32.8575 16.7222 34.734 14.5336 34.734 12.2779C34.734 9.70376 33.5144 8.07798 32.4911 7.16745C31.3098 6.11594 29.6946 5.43661 28.3764 5.43661C27.4274 5.43661 26.6581 4.66732 26.6581 3.7183C26.6581 2.76928 27.4274 2 28.3764 2C30.554 2 32.9463 2.97196 34.7758 4.60005C36.965 6.54826 38.1707 9.27495 38.1707 12.2779C38.1707 20.3671 25.8194 24.2513 20.545 25.91Z" fill="#7A4100"/>
<path d="M11.4507 12.6535C7.83201 12.6535 5.62047 11.1169 4.40245 9.82782C2.87573 8.21193 2 5.98509 2 3.7183C2 2.76928 2.76928 2 3.7183 2C4.66732 2 5.43661 2.76928 5.43661 3.7183C5.43661 6.36655 7.31858 9.21688 11.4507 9.21688C14.4195 9.21688 16.2937 7.74291 18.4639 6.03621C19.1366 5.50723 19.832 4.96029 20.5783 4.44635C21.3599 3.90818 22.4298 4.10527 22.9681 4.88684C23.5064 5.66841 23.3092 6.73831 22.5276 7.27657C21.8708 7.72891 21.2478 8.2188 20.5883 8.73755C18.2544 10.573 15.609 12.6535 11.4507 12.6535Z" fill="#7A4100"/>
</svg>
